SplineFontDB: 3.0
FontName: Autopia-Regular
FullName: Autopia Regular
FamilyName: Autopia
Weight: Book
Copyright: Copyright (C) 2014 - Antoine Gelgon (Luuse) - http://luuse.io/\nAutopia font family is under SIL Open Font License (OFL)
Version: V.1.0
ItalicAngle: 0
UnderlinePosition: -256
UnderlineWidth: 102
Ascent: 1638
Descent: 410
InvalidEm: 0
sfntRevision: 0x00010000
LayerCount: 2
Layer: 0 1 "Arri+AOgA-re" 1
Layer: 1 1 "Avant" 0
XUID: [1021 327 -1103567284 13825959]
StyleMap: 0x0040
FSType: 8
OS2Version: 3
OS2_WeightWidthSlopeOnly: 0
OS2_UseTypoMetrics: 0
CreationTime: 1391727600
ModificationTime: 1548637445
PfmFamily: 17
TTFWeight: 400
TTFWidth: 5
LineGap: 0
VLineGap: 0
Panose: 2 2 5 0 0 0 0 0 0 0
OS2TypoAscent: 1544
OS2TypoAOffset: 0
OS2TypoDescent: -472
OS2TypoDOffset: 0
OS2TypoLinegap: 279
OS2WinAscent: 1829
OS2WinAOffset: 0
OS2WinDescent: 504
OS2WinDOffset: 0
HheadAscent: 1829
HheadAOffset: 0
HheadDescent: -504
HheadDOffset: 0
OS2SubXSize: 768
OS2SubYSize: 1024
OS2SubXOff: 0
OS2SubYOff: 512
OS2SupXSize: 768
OS2SupYSize: 1024
OS2SupXOff: 0
OS2SupYOff: 1024
OS2StrikeYSize: 102
OS2StrikeYPos: 657
OS2CapHeight: 1455
OS2XHeight: 1026
OS2Vendor: '    '
OS2CodePages: 20000111.40000000
OS2UnicodeRanges: 8000002f.10000048.00000000.00000000
Lookup: 258 0 0 "'kern' Horizontal Kerning lookup 0" { "'kern' Horizontal Kerning lookup 0 subtable"  } ['kern' ('DFLT' <'dflt' > ) ]
MarkAttachClasses: 1
DEI: 91125
TtTable: prep
PUSHW_1
 0
CALL
SVTCA[y-axis]
PUSHW_3
 1
 4
 2
CALL
SVTCA[x-axis]
PUSHW_3
 5
 3
 2
CALL
SVTCA[x-axis]
PUSHW_8
 5
 64
 52
 41
 29
 14
 0
 8
CALL
PUSHW_8
 6
 48
 39
 31
 22
 14
 0
 8
CALL
PUSHW_8
 7
 44
 39
 31
 22
 14
 0
 8
CALL
SVTCA[y-axis]
PUSHW_8
 1
 153
 130
 101
 73
 44
 0
 8
CALL
PUSHW_8
 2
 164
 130
 101
 73
 44
 0
 8
CALL
PUSHW_8
 3
 51
 39
 31
 22
 14
 0
 8
CALL
PUSHW_8
 4
 49
 39
 31
 22
 14
 0
 8
CALL
SVTCA[y-axis]
PUSHW_3
 8
 4
 7
CALL
PUSHW_1
 0
DUP
RCVT
RDTG
ROUND[Black]
RTG
WCVTP
EndTTInstrs
TtTable: fpgm
PUSHW_1
 0
FDEF
MPPEM
PUSHW_1
 8

StartChar: greater
Encoding: 33 33 4
Width: 496
Flags: W
LayerCount: 2
Fore
SplineSet
336 1367 m 1,0,1
 336 488 l 1,2,-1
 158 427 l 1,3,4
 156 866 156 866 158 1306 c 1,5,-1
 336 1367 l 1,0,1
344 201 m 0,6,7
 377 164 377 164 377 106.5 c 128,-1,8
 377 49 377 49 343 13 c 128,-1,9
 309 -23 309 -23 249.5 -23 c 128,-1,10
 190 -23 190 -23 156 14 c 0,11,12
 119 49 119 49 119 106.5 c 128,-1,13
 119 164 119 164 154.5 200 c 128,-1,14
 190 236 190 236 249.5 236 c 128,-1,15
 309 236 309 236 344 201 c 0,6,7
EndSplineSet
EndChar

StartChar: question
Encoding: 34 34 5
Width: 938
Flags: W
LayerCount: 2
Fore
SplineSet
303 956 m 1,0,-1
 204 1454 l 1,1,-1
 298 1539 l 1,2,-1
 395 1454 l 1,3,-1
 303 956 l 1,0,-1
641 956 m 1,4,-1
 542 1454 l 1,5,-1
 636 1539 l 1,6,-1
 733 1454 l 1,7,-1
 641 956 l 1,4,-1
EndSplineSet
EndChar

StartChar: at
Encoding: 35 35 6
Width: 1085
Flags: W
LayerCount: 2
Fore
SplineSet
566 924 m 1,0,1
 568 925 568 925 623.5 923.541666667 c 128,-1,2
 679 922.083333333 679 922.083333333 704 920 c 1,3,4
 715.806930693 981.396039604 715.806930693 981.396039604 749.403465347 1100.6980198 c 128,-1,5
 783 1220 783 1220 796 1310 c 1,6,-1
 974 1371 l 1,7,8
 970.291666667 1337.625 970.291666667 1337.625 963 1307 c 256,9,10
 931.152173913 1173.23913043 931.152173913 1173.23913043 913.576086957 1114.11956522 c 128,-1,11
 896 1055 896 1055 890 1022.5 c 128,-1,12
 884 990 884 990 881.5 978 c 128,-1,13
 879 966 879 966 879 954.5 c 0,14,15
 879 925.727272727 879 925.727272727 898 924 c 0,16,17
 937.225806452 928.129032258 937.225806452 928.129032258 995.112903226 926.564516129 c 128,-1,18
 1053 925 1053 925 1058 925 c 1,19,20
 1006 896.771428571 1006 896.771428571 917 851 c 1,21,-1
 846 851 l 1,22,23
 838.5 803 838.5 803 826.25 754 c 128,-1,24
 814 705 814 705 811 684 c 128,-1,25
 808 663 808 663 800 643 c 1,26,-1
 790 583 l 1,27,28
 790 564.5 790 564.5 795 552 c 1,29,30
 804 549 804 549 814 550 c 128,-1,31
 824 551 824 551 848 551.5 c 128,-1,32
 872 552 872 552 895 551.5 c 128,-1,33
 918 551 918 551 937.5 550.5 c 128,-1,34
 957 550 957 550 967 550 c 1,35,36
 915 521.771428571 915 521.771428571 826 476 c 1,37,-1
 759 476 l 1,38,39
 751 418 751 418 736.5 362 c 128,-1,40
 722 306 722 306 709 252 c 128,-1,41
 696 198 696 198 687 147.5 c 128,-1,42
 678 97 678 97 658 49 c 1,43,-1
 482 -5 l 1,44,45
 501 41 501 41 509.5 90 c 128,-1,46
 518 139 518 139 532.5 199 c 128,-1,47
 547 259 547 259 565 328.5 c 128,-1,48
 583 398 583 398 587 473 c 1,49,50
 561 471 561 471 537 476 c 1,51,-1
 372 476 l 1,52,53
 364 438 364 438 358 399 c 128,-1,54
 352 360 352 360 341 308 c 128,-1,55
 330 256 330 256 313.5 191.5 c 128,-1,56
 297 127 297 127 281 61 c 1,57,-1
 103 0 l 1,58,59
 119 66 119 66 135.5 130.5 c 128,-1,60
 152 195 152 195 164.5 254 c 128,-1,61
 177 313 177 313 184.5 365.5 c 0,62,63
 195.928571429 445.5 195.928571429 445.5 209 476 c 1,64,-1
 207 475 l 1,65,66
 157.272171254 485.810397554 157.272171254 485.810397554 99.6360856269 480.905198777 c 128,-1,67
 42 476 42 476 19 476 c 1,68,-1
 160 550 l 1,69,70
 198 550 198 550 237 553 c 1,71,72
 238 561 238 561 238.5 569.5 c 128,-1,73
 239 578 239 578 246 614 c 128,-1,74
 253 650 253 650 265 713.5 c 0,75,76
 288.417475728 837.417475728 288.417475728 837.417475728 296 845 c 1,77,78
 238.4 851 238.4 851 106 851 c 1,79,-1
 247 925 l 1,80,-1
 329 925 l 1,81,82
 331 939 331 939 332 953 c 128,-1,83
 333 967 333 967 343 1015 c 128,-1,84
 353 1063 353 1063 373.5 1144 c 128,-1,85
 394 1225 394 1225 414 1306 c 1,86,-1
 592 1367 l 1,87,88
 572 1286 572 1286 552 1205 c 128,-1,89
 532 1124 532 1124 520.5 1071 c 128,-1,90
 509 1018 509 1018 506.5 993 c 0,91,92
 501.866666667 946.666666667 501.866666667 946.666666667 496 932 c 1,93,94
 516 924 516 924 556 924 c 2,95,-1
 566 924 l 1,0,1
456.5 548 m 2,96,97
 463 548 463 548 482.5 553.5 c 128,-1,98
 502 559 502 559 540 559 c 128,-1,99
 578 559 578 559 616 556 c 1,100,101
 619 573 619 573 623 589 c 128,-1,102
 627 605 627 605 635.5 641.5 c 128,-1,103
 644 678 644 678 657 733 c 128,-1,104
 670 788 670 788 674 847 c 1,105,106
 612.25 840.5 612.25 840.5 546.625 845.75 c 128,-1,107
 481 851 481 851 468 851 c 2,108,-1
 459 851 l 1,109,110
 425.633333333 723.6 425.633333333 723.6 422.316666667 683.8 c 0,111,112
 413.444444444 577.333333333 413.444444444 577.333333333 406 555 c 1,113,114
 416.588235294 550.764705882 416.588235294 550.764705882 447 548 c 1,115,-1
 456.5 548 l 2,96,97
EndSplineSet
EndChar

StartChar: A
Encoding: 36 36 7
Width: 1085
Flags: W
LayerCount: 2
Fore
SplineSet
449 497 m 2,0,1
 449 613.6 449 613.6 453 616.8 c 128,-1,2
 457 620 457 620 459 622 c 2,3,-1
 492 661 l 1,4,5
 437.337662338 680.012987013 437.337662338 680.012987013 406 713 c 1,6,7
 254.350125945 743.329974811 254.350125945 743.329974811 172.5 838 c 0,8,9
 81.8981682333 942.792480116 81.8981682333 942.792480116 118 1091 c 0,10,11
 131.407554672 1149.65805169 131.407554672 1149.65805169 164.203777336 1195.32902584 c 128,-1,12
 197 1241 197 1241 227 1264 c 128,-1,13
 257 1287 257 1287 293 1305.5 c 0,14,15
 363.615384615 1341.78846154 363.615384615 1341.78846154 449 1361 c 1,16,-1
 449 1477 l 1,17,-1
 627 1538 l 1,18,-1
 627 1382 l 1,19,20
 741.419551935 1377.68228106 741.419551935 1377.68228106 795.709775967 1349.84114053 c 0,21,22
 889.175675676 1301.90990991 889.175675676 1301.90990991 942 1208 c 1,23,-1
 766 1141 l 1,24,25
 711.564660691 1236.73111396 711.564660691 1236.73111396 627 1277 c 1,26,-1
 627 1008 l 2,27,28
 627 987 627 987 629.5 966 c 128,-1,29
 632 945 632 945 633.5 924 c 0,30,31
 640.360824742 827.948453608 640.360824742 827.948453608 596 787 c 0,32,33
 589 780 589 780 585 778 c 1,34,35
 623.842105263 739.157894737 623.842105263 739.157894737 724.5 713.5 c 0,36,37
 903.355223881 667.909452736 903.355223881 667.909452736 970 505 c 0,38,39
 1010.88340807 405.062780269 1010.88340807 405.062780269 983.941704036 298.031390135 c 0,40,41
 938.085682788 115.859034087 938.085682788 115.859034087 768.5 43 c 0,42,43
 701 14 701 14 627 -1 c 1,44,-1
 627 -160 l 1,45,-1
 449 -221 l 1,46,-1
 449 -18 l 1,47,-1
 414 -16 l 1,48,49
 192.552238806 1.9552238806 192.552238806 1.9552238806 113.5 138.5 c 0,50,51
 108 148 108 148 103.5 158.5 c 128,-1,52
 99 169 99 169 92 183 c 1,53,-1
 268 250 l 1,54,55
 301 181 301 181 343.5 141.5 c 128,-1,56
 386 102 386 102 449 81 c 1,57,-1
 449 497 l 2,0,1
627 55 m 1,58,-1
 669 58 l 2,59,60
 674 58 674 58 704 63 c 1,61,62
 793.971962617 141.72546729 793.971962617 141.72546729 811 270.5 c 0,63,64
 835.888326799 458.717971418 835.888326799 458.717971418 690.5 577 c 0,65,66
 661 601 661 601 627 617 c 1,67,-1
 627 55 l 1,58,-1
456 823 m 1,68,-1
 449 947 l 1,69,-1
 449 1306 l 1,70,71
 434 1305 434 1305 419.5 1304.5 c 128,-1,72
 405 1304 405 1304 391 1302 c 1,73,74
 372.548387097 1290.25806452 372.548387097 1290.25806452 345.274193548 1257.12903226 c 128,-1,75
 318 1224 318 1224 301 1170 c 128,-1,76
 284 1116 284 1116 286.5 1066 c 128,-1,77
 289 1016 289 1016 303 980 c 128,-1,78
 317 944 317 944 339.5 914.5 c 0,79,80
 381.8 859.04 381.8 859.04 456 823 c 1,68,-1
583 776 m 129,-1,82
 583 776 583 776 583 776 c 129,-1,81
 583 776 583 776 583 776 c 129,-1,82
EndSplineSet
EndChar

StartChar: B
Encoding: 37 37 8
Width: 1716
Flags: W
LayerCount: 2
Fore
SplineSet
1378 1430 m 1,0,1
 1358 1397 1358 1397 1331 1371 c 128,-1,2
 1304 1345 1304 1345 1288 1319.5 c 128,-1,3
 1272 1294 1272 1294 1268.5 1273.5 c 128,-1,4
 1265 1253 1265 1253 1253 1229.5 c 128,-1,5
 1241 1206 1241 1206 1225 1180 c 128,-1,6
 1209 1154 1209 1154 1174.5 1096 c 128,-1,7
 1140 1038 1140 1038 1086 950 c 128,-1,8
 1032 862 1032 862 976.5 771.5 c 128,-1,9
 921 681 921 681 865.5 590 c 128,-1,10
 810 499 810 499 752 407 c 128,-1,11
 694 315 694 315 635.5 225 c 128,-1,12
 577 135 577 135 529 36 c 1,13,-1
 353 -18 l 1,14,15
 401 81 401 81 459.5 171 c 128,-1,16
 518 261 518 261 584 365.5 c 0,17,18
 806.52173913 717.826086957 806.52173913 717.826086957 919.760869565 908.913043478 c 128,-1,19
 1033 1100 1033 1100 1049 1126 c 128,-1,20
 1065 1152 1065 1152 1076 1174 c 128,-1,21
 1087 1196 1087 1196 1090.5 1214 c 128,-1,22
 1094 1232 1094 1232 1102 1249 c 1,23,24
 1074.76923077 1262.61538462 1074.76923077 1262.61538462 1020.38461538 1257.30769231 c 128,-1,25
 966 1252 966 1252 908 1255 c 128,-1,26
 850 1258 850 1258 792 1259 c 1,27,-1
 747 1259 l 1,28,29
 748 1248 748 1248 748 1237 c 128,-1,30
 748 1226 748 1226 752.5 1190.5 c 128,-1,31
 757 1155 757 1155 761 1095.5 c 128,-1,32
 765 1036 765 1036 757.5 978.5 c 0,33,34
 740.781879195 850.327740492 740.781879195 850.327740492 661 767 c 0,35,36
 608.615986099 712.601216334 608.615986099 712.601216334 462.5 670.5 c 0,37,38
 373.468468468 644.846846847 373.468468468 644.846846847 323.234234234 653.423423423 c 128,-1,39
 273 662 273 662 237.5 681.5 c 0,40,41
 98 758.126760563 98 758.126760563 98 1006 c 0,42,43
 98 1149.52173913 98 1149.52173913 129.5 1215.26086957 c 128,-1,44
 161 1281 161 1281 201.5 1318.5 c 128,-1,45
 242 1356 242 1356 290 1375.5 c 128,-1,46
 338 1395 338 1395 376.5 1407 c 128,-1,47
 415 1419 415 1419 454.5 1424.5 c 0,48,49
 543.468690702 1436.88804554 543.468690702 1436.88804554 591.734345351 1416.94402277 c 128,-1,50
 640 1397 640 1397 659 1377.5 c 128,-1,51
 678 1358 678 1358 690 1342.5 c 128,-1,52
 702 1327 702 1327 705 1323 c 128,-1,53
 708 1319 708 1319 712 1315 c 1,54,55
 778.451988361 1337.842871 778.451988361 1337.842871 903.72599418 1333.4214355 c 128,-1,56
 1029 1329 1029 1329 1078.5 1329 c 128,-1,57
 1128 1329 1128 1329 1141.5 1330 c 128,-1,58
 1155 1331 1155 1331 1169 1332 c 1,59,-1
 1174 1338 l 1,60,61
 1187 1351 1187 1351 1202 1376 c 1,62,-1
 1378 1430 l 1,0,1
1263 705 m 1,63,-1
 1323 740 l 1,64,65
 1463.36423841 758.715231788 1463.36423841 758.715231788 1548 663.5 c 0,66,67
 1642.29205176 557.421441774 1642.29205176 557.421441774 1625 343 c 0,68,69
 1608.64831039 143.509386733 1608.64831039 143.509386733 1496 55 c 0,70,71
 1454 22 1454 22 1413 8.5 c 128,-1,72
 1372 -5 1372 -5 1358.5 -10 c 128,-1,73
 1345 -15 1345 -15 1333 -18.5 c 0,74,75
 1255.73303167 -41.036199095 1255.73303167 -41.036199095 1212.86651584 -36.5180995475 c 0,76,77
 1138.4864168 -28.6784912833 1138.4864168 -28.6784912833 1101.7432084 -12.8392456417 c 128,-1,78
 1065 3 1065 3 1037.5 37 c 128,-1,79
 1010 71 1010 71 993 114.5 c 128,-1,80
 976 158 976 158 968.5 208 c 128,-1,81
 961 258 961 258 960.5 307.5 c 0,82,83
 958.638353479 491.803005554 958.638353479 491.803005554 1027.5 585.5 c 0,84,85
 1085.38328436 664.259222984 1085.38328436 664.259222984 1192.5 703.5 c 0,86,87
 1243 722 1243 722 1300 736 c 1,88,-1
 1263 705 l 1,63,-1
568 1226 m 1,89,90
 541.365853659 1232.14634146 541.365853659 1232.14634146 505.5 1287 c 0,91,92
 475.409090909 1333.02139037 475.409090909 1333.02139037 407.5 1349 c 0,93,94
 382 1355 382 1355 357 1354 c 1,95,96
 275 1272 275 1272 275 1067 c 0,97,98
 275 787.906976744 275 787.906976744 450 735 c 0,99,100
 461 733 461 733 471.5 731 c 0,101,102
 492.5 727 492.5 727 498 727 c 0,103,104
 503 732 503 732 507.5 738 c 128,-1,105
 512 744 512 744 523 758.5 c 0,106,107
 548.4375 792.03125 548.4375 792.03125 568.21875 862.015625 c 128,-1,108
 588 932 588 932 584.5 1005 c 128,-1,109
 581 1078 581 1078 575.5 1125 c 128,-1,110
 570 1172 570 1172 569.5 1189.5 c 128,-1,111
 569 1207 569 1207 565 1225 c 1,112,-1
 568 1226 l 1,89,90
1449.5 316.5 m 0,113,114
 1452.20207254 589.409326425 1452.20207254 589.409326425 1288.5 656 c 0,115,116
 1259 668 1259 668 1227 669 c 1,117,118
 1149.33333333 591.333333333 1149.33333333 591.333333333 1139 426 c 0,119,120
 1126.73320158 229.731225296 1126.73320158 229.731225296 1202.5 120 c 0,121,122
 1230.89450549 78.8769230769 1230.89450549 78.8769230769 1265.44725275 63.4384615385 c 0,123,124
 1322.38095238 38 1322.38095238 38 1361 38 c 1,125,126
 1447.6 124.6 1447.6 124.6 1449.5 316.5 c 0,113,114
1182 1347 m 2,127,-1
 1181 1346 l 2,128,129
 1182 1346 1182 1346 1182 1347 c 2,127,-1
EndSplineSet
EndChar

StartChar: C
Encoding: 38 38 9
Width: 1446
Flags: W
LayerCount: 2
Fore
SplineSet
1327 810 m 1,0,1
 1312.58717435 510.933867735 1312.58717435 510.933867735 1078 264 c 1,2,3
 1172.12048193 172.493975904 1172.12048193 172.493975904 1228.06024096 136.246987952 c 0,4,5
 1338.6530916 64.5867271005 1338.6530916 64.5867271005 1461 34 c 1,6,-1
 1292 -37 l 1,7,8
 1167.7852349 -5.45339299031 1167.7852349 -5.45339299031 1056 67 c 0,9,10
 1006 98 1006 98 963 139 c 1,11,12
 793.569502469 8.21154576529 793.569502469 8.21154576529 561.5 -21 c 0,13,14
 283.032414911 -56.0518638574 283.032414911 -56.0518638574 163 136 c 0,15,16
 114.56097561 213.502439024 114.56097561 213.502439024 104 317 c 0,17,18
 98.5502183406 361.96069869 98.5502183406 361.96069869 120.27510917 432.480349345 c 128,-1,19
 142 503 142 503 170.5 541.5 c 128,-1,20
 199 580 199 580 233.5 613 c 128,-1,21
 268 646 268 646 306 677 c 128,-1,22
 344 708 344 708 379 742 c 1,23,-1
 379 743 l 1,24,25
 375 750 375 750 369 769 c 128,-1,26
 363 788 363 788 352.5 801 c 128,-1,27
 342 814 342 814 316.5 850.5 c 128,-1,28
 291 887 291 887 268 961.5 c 128,-1,29
 245 1036 245 1036 253 1100.5 c 128,-1,30
 261 1165 261 1165 284.5 1209 c 128,-1,31
 308 1253 308 1253 343.5 1287 c 0,32,33
 424.715680643 1364.78403217 424.715680643 1364.78403217 585 1406 c 0,34,35
 767.481847226 1452.92390357 767.481847226 1452.92390357 854 1311.5 c 0,36,37
 907.212519562 1224.51799687 907.212519562 1224.51799687 893 1123 c 0,38,39
 872.63876652 977.562617999 872.63876652 977.562617999 677 849 c 0,40,41
 667 841 667 841 657.5 834 c 128,-1,42
 648 827 648 827 640 819 c 2,43,-1
 618 798 l 1,44,45
 594.79338843 768.991735537 594.79338843 768.991735537 641.396694215 718.495867769 c 128,-1,46
 688 668 688 668 731 619.5 c 0,47,48
 833.38762215 504.016286645 833.38762215 504.016286645 1006 335 c 1,49,50
 1137.90311419 519.664359862 1137.90311419 519.664359862 1149 749 c 1,51,-1
 1327 810 l 1,0,1
900 195 m 1,52,-1
 902 197 l 1,53,-1
 833 265 l 1,54,55
 722.357575758 371.690909091 722.357575758 371.690909091 653.178787879 446.345454545 c 128,-1,56
 584 521 584 521 551 556.5 c 128,-1,57
 518 592 518 592 495 618.5 c 0,58,59
 447.16 673.62 447.16 673.62 439 693 c 1,60,61
 322.778625954 595.374045802 322.778625954 595.374045802 295 475 c 0,62,63
 279.759036145 404.891566265 279.759036145 404.891566265 284.379518072 356.945783133 c 128,-1,64
 289 309 289 309 316 248.5 c 128,-1,65
 343 188 343 188 386.5 143 c 0,66,67
 480.266666667 46 480.266666667 46 623 46 c 0,68,69
 726.076923077 46 726.076923077 46 786 87 c 0,70,71
 821.356521739 111.191304348 821.356521739 111.191304348 846.67826087 138.095652174 c 2,72,-1
 900 195 l 1,52,-1
522.5 876 m 0,73,74
 531 865 531 865 536.5 856 c 128,-1,75
 542 847 542 847 548 832 c 1,76,77
 555 837 555 837 561 842 c 128,-1,78
 567 847 567 847 587.5 862.5 c 128,-1,79
 608 878 608 878 636.5 909 c 128,-1,80
 665 940 665 940 684 975.5 c 0,81,82
 742.84045584 1085.43874644 742.84045584 1085.43874644 699 1206 c 0,83,84
 671.675799087 1281.14155251 671.675799087 1281.14155251 600.5 1321 c 0,85,86
 563 1342 563 1342 520 1342 c 1,87,88
 424.873530795 1263.66055477 424.873530795 1263.66055477 430.5 1127.5 c 0,89,90
 436.281972265 987.576271186 436.281972265 987.576271186 522.5 876 c 0,73,74
897 190 m 1,91,92
 896.730249471 189.74341649 896.730249471 189.74341649 896.5 189.5 c 0,93,94
 896 188 896 188 897 190 c 1,91,92
879 171 m 1,95,-1
 880 172 l 1,96,-1
 879 171 l 1,95,-1
616 798 m 1,97,-1
 615 797 l 1,98,-1
 616 798 l 1,97,-1
EndSplineSet
EndChar

StartChar: Ucircumflex
Encoding: 8217 8217 10
Width: 569
Flags: W
LayerCount: 2
Fore
SplineSet
122 1007 m 1,0,1
 246.643454039 1144.53760446 246.643454039 1144.53760446 263.5 1275.5 c 0,2,3
 272.240753664 1343.40893231 272.240753664 1343.40893231 239 1390.5 c 0,4,5
 233 1399 233 1399 227 1409 c 1,6,-1
 403 1476 l 1,7,8
 409 1466 409 1466 415.5 1457 c 128,-1,9
 422 1448 422 1448 435 1418.5 c 128,-1,10
 448 1389 448 1389 441 1335.5 c 128,-1,11
 434 1282 434 1282 410.5 1230 c 0,12,13
 371.065703022 1142.74113009 371.065703022 1142.74113009 291 1052 c 1,14,-1
 122 1007 l 1,0,1
EndSplineSet
EndChar

StartChar: E
Encoding: 40 40 11
Width: 717
Flags: W
LayerCount: 2
Fore
SplineSet
557 -293 m 1,0,1
 471.588235294 -262.156862745 471.588235294 -262.156862745 424.294117647 -223.078431373 c 128,-1,2
 377 -184 377 -184 342 -127 c 128,-1,3
 307 -70 307 -70 283 -6.5 c 0,4,5
 243.49689441 98.0186335404 243.49689441 98.0186335404 217.748447205 255.00931677 c 0,6,7
 155.454224412 634.823001058 155.454224412 634.823001058 253 1012 c 0,8,9
 327.622285175 1300.53950268 327.622285175 1300.53950268 534.5 1388 c 0,10,11
 596 1414 596 1414 660 1434 c 1,12,-1
 643 1388 l 1,13,14
 580.838709677 1369.80645161 580.838709677 1369.80645161 522 1284 c 0,15,16
 373 1069.44 373 1069.44 373 589.5 c 0,17,18
 373 358.575757576 373 358.575757576 430.5 146 c 0,19,20
 502.301562002 -119.448198916 502.301562002 -119.448198916 661.5 -195 c 0,21,22
 691 -209 691 -209 726 -222 c 1,23,-1
 557 -293 l 1,0,1
EndSplineSet
EndChar

StartChar: F
Encoding: 41 41 12
Width: 717
Flags: W
LayerCount: 2
Fore
SplineSet
155 1447 m 1,0,1
 233.152542373 1428.13559322 233.152542373 1428.13559322 260 1408 c 0,2,3
 472.43852459 1256.25819672 472.43852459 1256.25819672 504 867 c 1,4,5
 563.425675676 228.173986486 563.425675676 228.173986486 377 -67 c 0,6,7
 312.092831962 -169.769682726 312.092831962 -169.769682726 206 -222 c 0,8,9
 141 -254 141 -254 72 -277 c 1,10,-1
 89 -231 l 1,11,12
 127.693877551 -218.102040816 127.693877551 -218.102040816 166.846938776 -168.051020408 c 128,-1,13
 206 -118 206 -118 226.5 -78 c 128,-1,14
 247 -38 247 -38 263 4.5 c 0,15,16
 337.056663169 201.213011542 337.056663169 201.213011542 340.5 518 c 0,17,18
 345.927918927 1017.36854125 345.927918927 1017.36854125 178.5 1254 c 0,19,20
 111.746887967 1348.34439834 111.746887967 1348.34439834 15 1368.5 c 0,21,22
 3 1371 3 1371 -14 1376 c 1,23,-1
 155 1447 l 1,0,1
EndSplineSet
EndChar

StartChar: G
Encoding: 42 42 13
Width: 844
Flags: W
LayerCount: 2
Fore
SplineSet
513 1420 m 1,0,-1
 513 1181 l 1,1,-1
 609 1238 l 1,2,-1
 748 1262 l 1,3,-1
 544 1142 l 1,4,5
 543 1140 543 1140 542.5 1138.5 c 128,-1,6
 542 1137 542 1137 540 1135 c 2,7,-1
 524 1115 l 1,8,9
 565.543478261 1076.65217391 565.543478261 1076.65217391 617.77173913 1046.32608696 c 128,-1,10
 670 1016 670 1016 700.5 998.5 c 128,-1,11
 731 981 731 981 760 962 c 1,12,-1
 584 895 l 1,13,14
 567 906 567 906 549 917 c 128,-1,15
 531 928 531 928 513 939 c 1,16,-1
 513 822 l 1,17,-1
 335 761 l 1,18,-1
 335 990 l 1,19,20
 281.333333333 964.333333333 281.333333333 964.333333333 248 941 c 1,21,-1
 109 917 l 1,22,-1
 333 1067 l 1,23,24
 270 1102 270 1102 209.5 1138.5 c 128,-1,25
 149 1175 149 1175 87 1212 c 1,26,-1
 263 1279 l 1,27,-1
 335 1237 l 1,28,-1
 335 1359 l 1,29,-1
 513 1420 l 1,0,-1
EndSplineSet
EndChar

StartChar: H
Encoding: 43 43 14
Width: 1167
Flags: W
LayerCount: 2
Fore
SplineSet
1080 548 m 1,0,1
 1028 519.771428571 1028 519.771428571 939 474 c 1,2,-1
 672 474 l 1,3,-1
 672 88 l 1,4,-1
 494 27 l 1,5,-1
 494 474 l 1,6,-1
 72 474 l 1,7,-1
 213 548 l 1,8,-1
 494 548 l 1,9,-1
 494 918 l 1,10,-1
 672 979 l 1,11,-1
 672 548 l 1,12,-1
 1080 548 l 1,0,1
EndSplineSet
EndChar

StartChar: I
Encoding: 44 44 15
Width: 543
Flags: W
LayerCount: 2
Fore
SplineSet
364 237 m 1,0,1
 406.115264798 183.398753894 406.115264798 183.398753894 400.5 125 c 0,2,3
 385.267759563 -33.4153005464 385.267759563 -33.4153005464 244 -210 c 1,4,-1
 68 -264 l 1,5,6
 207.445520581 -93.5665859564 207.445520581 -93.5665859564 222.5 63 c 0,7,8
 227.095191364 110.789990186 227.095191364 110.789990186 212.547595682 133.894995093 c 128,-1,9
 198 157 198 157 188 170 c 1,10,-1
 364 237 l 1,0,1
EndSplineSet
EndChar

StartChar: J
Encoding: 45 45 16
Width: 803
Flags: W
LayerCount: 2
Fore
SplineSet
651 553 m 1,0,1
 599 524.771428571 599 524.771428571 510 479 c 1,2,-1
 147 479 l 1,3,-1
 288 553 l 1,4,-1
 651 553 l 1,0,1
EndSplineSet
EndChar

StartChar: uni00AD
Encoding: 173 173 17
Width: 803
Flags: W
LayerCount: 2
Fore
SplineSet
657 547 m 1,0,1
 605 518.771428571 605 518.771428571 516 473 c 1,2,-1
 151 473 l 1,3,-1
 292 547 l 1,4,-1
 657 547 l 1,0,1
EndSplineSet
EndChar

StartChar: K
Encoding: 46 46 18
Width: 543
Flags: W
LayerCount: 2
Fore
SplineSet
369 201 m 0,0,1
 401 164 401 164 401 106.5 c 128,-1,2
 401 49 401 49 367.5 13 c 128,-1,3
 334 -23 334 -23 274.5 -23 c 128,-1,4
 215 -23 215 -23 179 13 c 128,-1,5
 143 49 143 49 143 106.5 c 128,-1,6
 143 164 143 164 179 200 c 128,-1,7
 215 236 215 236 274.5 236 c 128,-1,8
 334 236 334 236 369 201 c 0,0,1
EndSplineSet
EndChar

StartChar: L
Encoding: 47 47 19
Width: 942
Flags: W
LayerCount: 2
Fore
SplineSet
759 1446 m 1,0,1
 709 1236 709 1236 646.5 1030 c 128,-1,2
 584 824 584 824 543.5 684 c 128,-1,3
 503 544 503 544 484.5 471 c 128,-1,4
 466 398 466 398 446.5 325 c 0,5,6
 398.063291139 143.672833496 398.063291139 143.672833496 359 37 c 1,7,-1
 183 -17 l 1,8,9
 235 123 235 123 280 303 c 128,-1,10
 325 483 325 483 365.5 623 c 128,-1,11
 406 763 406 763 468.5 968.5 c 128,-1,12
 531 1174 531 1174 581 1385 c 1,13,-1
 759 1446 l 1,0,1
EndSplineSet
EndChar

StartChar: M
Encoding: 48 48 20
Width: 1085
Flags: W
LayerCount: 2
Fore
SplineSet
526 1392 m 1,0,-1
 574 1417 l 1,1,2
 649.877256318 1421.89530686 649.877256318 1421.89530686 704.938628159 1409.44765343 c 128,-1,3
 760 1397 760 1397 809 1352.5 c 128,-1,4
 858 1308 858 1308 889.5 1248 c 0,5,6
 939.3601359 1153.02831257 939.3601359 1153.02831257 965.68006795 1000.01415629 c 0,7,8
 1021.73948658 674.105843635 1021.73948658 674.105843635 941 335 c 0,9,10
 894.396226415 139.264150943 894.396226415 139.264150943 765 53 c 0,11,12
 634.974358974 -33.6837606838 634.974358974 -33.6837606838 466 -36.5 c 0,13,14
 368.841911765 -38.1193014706 368.841911765 -38.1193014706 285 36.5 c 0,15,16
 192.346017104 118.962044778 192.346017104 118.962044778 152.5 266.5 c 0,17,18
 45.3335996166 663.305320339 45.3335996166 663.305320339 154.5 1062 c 0,19,20
 206.826989619 1253.10726644 206.826989619 1253.10726644 337 1332 c 0,21,22
 424.131578947 1384.80701754 424.131578947 1384.80701754 551 1413 c 1,23,-1
 526 1392 l 1,0,-1
809 600 m 2,24,-1
 810 682.5 l 1,25,26
 810 925.2 810 925.2 748 1105 c 0,27,28
 705.949002217 1226.94789357 705.949002217 1226.94789357 623 1293.5 c 0,29,30
 551.384478145 1350.95896521 551.384478145 1350.95896521 462 1345 c 1,31,32
 456 1340 456 1340 450.5 1335.5 c 0,33,34
 359.977900552 1261.43646409 359.977900552 1261.43646409 316.488950276 1059.71823204 c 0,35,36
 230.81103209 662.311578813 230.81103209 662.311578813 338 307 c 0,37,38
 380.431603774 172.633254717 380.431603774 172.633254717 464 98.5 c 0,39,40
 528.287420942 41.4708362614 528.287420942 41.4708362614 622 38 c 1,41,-1
 634 38 l 1,42,43
 728.303156434 119.443635102 728.303156434 119.443635102 763.5 274.5 c 0,44,45
 801.013428827 439.761862131 801.013428827 439.761862131 804.506714414 507.880931065 c 128,-1,46
 808 576 808 576 809 600 c 2,24,-1
EndSplineSet
EndChar

StartChar: N
Encoding: 49 49 21
Width: 1085
Flags: W
LayerCount: 2
Fore
SplineSet
175 -2 m 1,0,1
 264 43.7714285714 264 43.7714285714 316 72 c 1,2,3
 406.5 72 406.5 72 462 75 c 1,4,5
 470.066666667 91.1333333333 470.066666667 91.1333333333 469.533333333 106.066666667 c 128,-1,6
 469 121 469 121 469 136 c 1,7,8
 452.954716981 182.130188679 452.954716981 182.130188679 460.477358491 243.56509434 c 128,-1,9
 468 305 468 305 468 329 c 2,10,-1
 468 1204 l 2,11,12
 468 1218 468 1218 471.5 1236 c 128,-1,13
 475 1254 475 1254 465 1271.5 c 128,-1,14
 455 1289 455 1289 433 1297.5 c 128,-1,15
 411 1306 411 1306 386.5 1308 c 128,-1,16
 362 1310 362 1310 337 1308 c 128,-1,17
 312 1306 312 1306 287 1305 c 0,18,19
 212 1302 212 1302 171 1302 c 1,20,-1
 312 1376 l 1,21,22
 374 1376 374 1376 434 1379 c 1,23,-1
 475.5 1380 l 1,24,-1
 517 1380 l 2,25,26
 584.933333333 1380 584.933333333 1380 605.466666667 1369 c 128,-1,27
 626 1358 626 1358 637 1344.5 c 128,-1,28
 648 1331 648 1331 648 1314.5 c 2,29,-1
 647 1273 l 1,30,-1
 646 1265 l 1,31,-1
 646 207 l 2,32,33
 646 187 646 187 647 169.5 c 128,-1,34
 648 152 648 152 640 134 c 1,35,-1
 646 136 l 1,36,37
 698.081712062 90.8625162127 698.081712062 90.8625162127 756.540856031 81.9312581064 c 0,38,39
 821.545454545 72 821.545454545 72 926 72 c 1,40,41
 874 43.7714285714 874 43.7714285714 785 -2 c 1,42,-1
 712 -2 l 2,43,44
 579.052631579 -2 579.052631579 -2 504 44 c 1,45,46
 395.646258503 2.13605442177 395.646258503 2.13605442177 265.5 -1 c 0,47,48
 224 -2 224 -2 175 -2 c 1,0,1
EndSplineSet
EndChar

StartChar: O
Encoding: 50 50 22
Width: 1085
Flags: W
LayerCount: 2
Fore
SplineSet
263 75 m 1,0,1
 272 72 272 72 279.25 72.5 c 128,-1,2
 286.5 73 286.5 73 470 73 c 2,3,-1
 643.5 73 l 2,4,5
 725 73 725 73 810 70 c 1,6,7
 836.91147541 112.049180328 836.91147541 112.049180328 853 181 c 1,8,-1
 1031 242 l 1,9,10
 1011.81481481 153.268518519 1011.81481481 153.268518519 980.407407407 114.134259259 c 128,-1,11
 949 75 949 75 919 56 c 128,-1,12
 889 37 889 37 855 24 c 0,13,14
 748.592592593 -16.6851851852 748.592592593 -16.6851851852 672 -4.5 c 0,15,16
 650 -1 650 -1 628 -1 c 2,17,-1
 151 -1 l 2,18,19
 142 -1 142 -1 131 -2 c 128,-1,20
 120 -3 120 -3 109.5 -1.5 c 0,21,22
 85 2 85 2 80 20.5 c 128,-1,23
 75 39 75 39 81.5 55 c 128,-1,24
 88 71 88 71 99 111 c 0,25,26
 119.656637168 186.115044248 119.656637168 186.115044248 217 302 c 0,27,28
 222 307 222 307 234 322 c 2,29,-1
 264 356 l 2,30,31
 265 356 265 356 270 361.5 c 128,-1,32
 275 367 275 367 281 373.5 c 128,-1,33
 287 380 287 380 307.5 401 c 128,-1,34
 328 422 328 422 360.5 450 c 128,-1,35
 393 478 393 478 431 510.5 c 128,-1,36
 469 543 469 543 513.5 582.5 c 128,-1,37
 558 622 558 622 597 666.5 c 0,38,39
 763.877396862 856.911388727 763.877396862 856.911388727 713 1079.5 c 0,40,41
 671.163913992 1262.53287629 671.163913992 1262.53287629 530.5 1308 c 0,42,43
 481 1324 481 1324 419 1316 c 1,44,45
 369.216624685 1290.18639798 369.216624685 1290.18639798 344.108312343 1254.09319899 c 0,46,47
 305.580645161 1198.70967742 305.580645161 1198.70967742 283 1140 c 1,48,-1
 107 1086 l 1,49,50
 141.646511628 1171.28372093 141.646511628 1171.28372093 163.323255814 1194.64186047 c 128,-1,51
 185 1218 185 1218 194.5 1228 c 128,-1,52
 204 1238 204 1238 213 1246 c 0,53,54
 318.346820809 1339.6416185 318.346820809 1339.6416185 480 1378 c 0,55,56
 539 1392 539 1392 598 1392 c 128,-1,57
 657 1392 657 1392 709.5 1373 c 0,58,59
 878.936229205 1311.68022181 878.936229205 1311.68022181 900 1087 c 0,60,61
 924.21257923 847.295465627 924.21257923 847.295465627 687.5 635.5 c 0,62,63
 621 576 621 576 568 529.5 c 0,64,65
 410.041712164 390.913955012 410.041712164 390.913955012 326.5 269.5 c 0,66,67
 289 215 289 215 279 178 c 128,-1,68
 269 141 269 141 265 131.5 c 128,-1,69
 261 122 261 122 258.5 112 c 0,70,71
 252.6875 88.75 252.6875 88.75 263 75 c 1,0,1
EndSplineSet
EndChar

StartChar: P
Encoding: 51 51 23
Width: 1085
Flags: W
LayerCount: 2
Fore
SplineSet
592 832 m 1,0,1
 594 833 594 833 604.681818182 840.454545455 c 128,-1,2
 615.363636364 847.909090909 615.363636364 847.909090909 629 867 c 1,3,-1
 630 867 l 1,4,-1
 651 898 l 1,5,6
 746.055837563 1072.26903553 746.055837563 1072.26903553 674 1218.5 c 0,7,8
 621.69343696 1324.6515544 621.69343696 1324.6515544 502 1353 c 0,9,10
 469.8 1360 469.8 1360 437.9 1360 c 0,11,12
 397 1360 397 1360 385 1357 c 1,13,14
 329.432098765 1315.72098765 329.432098765 1315.72098765 278 1218 c 1,15,-1
 102 1164 l 1,16,17
 156.361268403 1263.26840317 156.361268403 1263.26840317 206.680634202 1303.63420159 c 128,-1,18
 257 1344 257 1344 299 1366 c 128,-1,19
 341 1388 341 1388 386.5 1403 c 0,20,21
 480.533333333 1434 480.533333333 1434 538.766666667 1434 c 128,-1,22
 597 1434 597 1434 624.5 1431.5 c 128,-1,23
 652 1429 652 1429 678.5 1423 c 0,24,25
 786.802611753 1398.47865394 786.802611753 1398.47865394 844 1296 c 0,26,27
 910.706231454 1176.48466864 910.706231454 1176.48466864 851 1004 c 0,28,29
 812.219745223 891.968152866 812.219745223 891.968152866 688 832 c 1,30,-1
 684 829 l 1,31,32
 684 826 684 826 659 801 c 1,33,-1
 666 804 l 1,34,-1
 677 790 l 1,35,-1
 677 789 l 1,36,37
 780.5 754.5 780.5 754.5 817 718 c 0,38,39
 982.183333333 560.325 982.183333333 560.325 927 312 c 0,40,41
 890.553053358 146.586934469 890.553053358 146.586934469 741.5 65 c 0,42,43
 584.384615385 -21 584.384615385 -21 412 -21 c 0,44,45
 192.048780488 -21 192.048780488 -21 89 141.5 c 0,46,47
 76 162 76 162 62 187 c 1,48,-1
 238 254 l 1,49,50
 249 235 249 235 256 221.5 c 128,-1,51
 263 208 263 208 270.5 196 c 0,52,53
 305.886075949 139.382278481 305.886075949 139.382278481 362.943037975 108.191139241 c 128,-1,54
 420 77 420 77 460.5 65.5 c 0,55,56
 548.112244898 40.6224489796 548.112244898 40.6224489796 625 56 c 1,57,58
 721.932867884 118.721267454 721.932867884 118.721267454 752.5 262.5 c 0,59,60
 808.494057725 525.879456706 808.494057725 525.879456706 625 663.5 c 0,61,62
 584.142857143 694.142857143 584.142857143 694.142857143 544.071428571 705.071428571 c 128,-1,63
 504 716 504 716 491 734 c 1,64,65
 481 732 481 732 471 732 c 128,-1,66
 461 732 461 732 454 732.5 c 128,-1,67
 447 733 447 733 442 733 c 0,68,69
 429 733 429 733 423 735 c 1,70,-1
 310.5 735 l 2,71,72
 294.5 735 294.5 735 280.25 736.5 c 128,-1,73
 266 738 266 738 249 739 c 1,74,-1
 406 812 l 1,75,76
 457 809 457 809 539 809 c 2,77,-1
 550 809 l 1,78,79
 558.5 814.666666667 558.5 814.666666667 591 832 c 1,80,-1
 592 832 l 1,0,1
623 809 m 1,81,-1
 622.5 808.5 l 1,82,83
 625 809 625 809 623 809 c 1,81,-1
671 821 m 1,84,-1
 675 823 l 2,85,86
 671 821 671 821 671 821 c 1,84,-1
EndSplineSet
EndChar

StartChar: Q
Encoding: 52 52 24
Width: 1085
Flags: W
LayerCount: 2
Fore
SplineSet
783 2 m 0,0,1
 712 2 712 2 652 37 c 1,2,3
 548.970027248 1.16348773842 548.970027248 1.16348773842 487.985013624 2.58174386921 c 128,-1,4
 427 4 427 4 383 -2 c 1,5,-1
 505 70 l 1,6,7
 532 73 532 73 558.5 73 c 128,-1,8
 585 73 585 73 611 74 c 1,9,10
 620 94 620 94 617.5 116.5 c 128,-1,11
 615 139 615 139 615 160 c 2,12,-1
 615 394 l 1,13,-1
 110 394 l 2,14,15
 98 394 98 394 82.5 393.5 c 128,-1,16
 67 393 67 393 57.5 400 c 128,-1,17
 48 407 48 407 47.5 419 c 0,18,19
 46.425 444.8 46.425 444.8 55.5 469 c 2,20,-1
 63 489 l 2,21,22
 76 524 76 524 96 556 c 0,23,24
 136 620 136 620 205 736 c 2,25,-1
 295 888 l 2,26,27
 304 904 304 904 316 923.5 c 128,-1,28
 328 943 328 943 340.5 963.5 c 128,-1,29
 353 984 353 984 365 1004 c 128,-1,30
 377 1024 377 1024 388.5 1041.5 c 128,-1,31
 400 1059 400 1059 412 1081.5 c 128,-1,32
 424 1104 424 1104 440 1122 c 1,33,34
 464 1173 464 1173 507.5 1212.5 c 0,35,36
 547.159309021 1248.51247601 547.159309021 1248.51247601 614.5 1273 c 0,37,38
 620 1275 620 1275 625 1278 c 1,39,-1
 630 1300 l 1,40,-1
 808 1361 l 1,41,42
 785.844183565 1274.5923159 785.844183565 1274.5923159 789.422091782 1176.79615795 c 128,-1,43
 793 1079 793 1079 793 1039 c 2,44,-1
 793 468 l 1,45,-1
 1024 468 l 1,46,-1
 883 394 l 1,47,-1
 793 394 l 1,48,-1
 793 221 l 2,49,50
 793 202 793 202 795.5 183 c 0,51,52
 800 148.8 800 148.8 787 128 c 1,53,-1
 793 130 l 1,54,55
 844.237435009 86.8526863085 844.237435009 86.8526863085 906 79.5 c 0,56,57
 930.652173913 76.5652173913 930.652173913 76.5652173913 960.326086957 74.2826086957 c 128,-1,58
 990 72 990 72 1002 69 c 1,59,-1
 835 -1 l 1,60,61
 839 -1 839 -1 841 -3 c 256,62,63
 843 -5 843 -5 839 -4 c 128,-1,64
 835 -3 835 -3 831 -2 c 1,65,-1
 829 -2 l 1,66,67
 789 2 789 2 783 2 c 0,0,1
615 468 m 1,68,-1
 615 978 l 2,69,70
 615 1028 615 1028 613 1077.5 c 128,-1,71
 611 1127 611 1127 613 1177 c 1,72,73
 568.141509434 1108.21698113 568.141509434 1108.21698113 477.070754717 953.608490566 c 2,74,-1
 343 726 l 2,75,76
 320 688 320 688 293 648.5 c 128,-1,77
 266 609 266 609 255 582.5 c 128,-1,78
 244 556 244 556 241 545 c 0,79,80
 233.875 518.875 233.875 518.875 232.9375 516.4375 c 128,-1,81
 232 514 232 514 229.5 506 c 0,82,83
 221.285714286 479.714285714 221.285714286 479.714285714 228.642857143 473.357142857 c 128,-1,84
 236 467 236 467 241.5 467.5 c 128,-1,85
 247 468 247 468 251 468 c 2,86,-1
 615 468 l 1,68,-1
EndSplineSet
EndChar

StartChar: R
Encoding: 53 53 25
Width: 1085
Flags: W
LayerCount: 2
Fore
SplineSet
869 1369 m 1,0,1
 817 1340.77142857 817 1340.77142857 728 1295 c 1,2,3
 633 1295 633 1295 538.5 1293 c 128,-1,4
 444 1291 444 1291 350 1294 c 1,5,6
 344 1264 344 1264 343.5 1230.5 c 128,-1,7
 343 1197 343 1197 336.5 1140 c 0,8,9
 318.869606903 985.395014382 318.869606903 985.395014382 317 819 c 1,10,11
 512.489795918 916.744897959 512.489795918 916.744897959 680 892.5 c 0,12,13
 834.532617905 870.133436882 834.532617905 870.133436882 914 721.5 c 0,14,15
 995.383072407 569.28351272 995.383072407 569.28351272 962 379 c 0,16,17
 946.931057124 293.107025607 946.931057124 293.107025607 910.965528562 228.553512804 c 128,-1,18
 875 164 875 164 834 124 c 128,-1,19
 793 84 793 84 722.5 49 c 128,-1,20
 652 14 652 14 574 -3 c 0,21,22
 404.724976318 -39.8932743922 404.724976318 -39.8932743922 271 12 c 0,23,24
 199.664819945 39.0581717452 199.664819945 39.0581717452 133 133.5 c 0,25,26
 115 159 115 159 99 183 c 1,27,-1
 275 250 l 1,28,29
 331.657534247 167.374429224 331.657534247 167.374429224 363.328767123 138.187214612 c 0,30,31
 463.612372749 45.7689898199 463.612372749 45.7689898199 604 57 c 0,32,33
 624 57 624 57 642 60 c 1,34,35
 738.878934625 131.044552058 738.878934625 131.044552058 773 273.5 c 0,36,37
 822.838361138 481.575157749 822.838361138 481.575157749 740.5 644.5 c 0,38,39
 661.401998463 801.013066872 661.401998463 801.013066872 511.5 821 c 0,40,41
 459 828 459 828 399 813 c 1,42,-1
 374 798 l 1,43,44
 303 757 303 757 227 732 c 1,45,-1
 179 728 l 1,46,-1
 130 713 l 1,47,-1
 135 720 l 1,48,-1
 153 725 l 1,49,-1
 139 724 l 1,50,51
 139 938 139 938 152.5 1032.5 c 128,-1,52
 166 1127 166 1127 167.5 1157 c 128,-1,53
 169 1187 169 1187 170 1215 c 128,-1,54
 171 1243 171 1243 183.5 1271 c 128,-1,55
 196 1299 196 1299 225 1314 c 128,-1,56
 254 1329 254 1329 294.5 1347.5 c 0,57,58
 362.585976628 1378.60100167 362.585976628 1378.60100167 497 1369 c 1,59,-1
 869 1369 l 1,0,1
656 63 m 2,60,61
 657 63 657 63 658.5 63.5 c 2,62,-1
 656 63 l 2,60,61
652 62 m 2,63,64
 654 62 654 62 655 63 c 2,65,-1
 652 62 l 2,63,64
EndSplineSet
EndChar

StartChar: S
Encoding: 54 54 26
Width: 1085
Flags: W
LayerCount: 2
Fore
SplineSet
114 577 m 1,0,1
 103 615 103 615 107.5 654.5 c 128,-1,2
 112 694 112 694 114 750.5 c 128,-1,3
 116 807 116 807 125.5 887 c 128,-1,4
 135 967 135 967 158 1042.5 c 0,5,6
 209.323984931 1210.97655923 209.323984931 1210.97655923 323 1303 c 0,7,8
 432.44496124 1388.50387597 432.44496124 1388.50387597 589.5 1419 c 0,9,10
 765.18251928 1453.11311054 765.18251928 1453.11311054 868 1376 c 0,11,12
 921.568627451 1336.61130334 921.568627451 1336.61130334 963 1244 c 1,13,-1
 787 1177 l 1,14,15
 757 1240 757 1240 715 1286.5 c 128,-1,16
 673 1333 673 1333 611.5 1347.5 c 128,-1,17
 550 1362 550 1362 501 1352 c 1,18,19
 304.282984531 1222.9044586 304.282984531 1222.9044586 292 793 c 0,20,21
 291 773 291 773 289 752.5 c 128,-1,22
 287 732 287 732 286 712 c 1,23,24
 369.113402062 795.113402062 369.113402062 795.113402062 564.5 848 c 0,25,26
 803.689750127 912.74309026 803.689750127 912.74309026 926 754 c 0,27,28
 1049.69742429 592.655533541 1049.69742429 592.655533541 994.5 325.5 c 0,29,30
 965.336602589 184.349156532 965.336602589 184.349156532 874.5 111.5 c 0,31,32
 781.716924826 37.089810999 781.716924826 37.089810999 635 -6.5 c 0,33,34
 486.829115575 -50.521784503 486.829115575 -50.521784503 363.5 -7.5 c 0,35,36
 299 15 299 15 250.5 68.5 c 128,-1,37
 202 122 202 122 176 183.5 c 128,-1,38
 150 245 150 245 136.5 311 c 0,39,40
 116.684512428 407.875717017 116.684512428 407.875717017 114 577 c 1,0,1
675 48 m 1,41,-1
 678 48 l 1,42,-1
 679 49 l 1,43,44
 780.849157054 103.107364685 780.849157054 103.107364685 817.5 266 c 0,45,46
 844.842923795 387.524105754 844.842923795 387.524105754 828.921461897 479.262052877 c 128,-1,47
 813 571 813 571 788.5 622.5 c 0,48,49
 699.365028717 809.865347798 699.365028717 809.865347798 517 791 c 0,50,51
 496 791 496 791 496 789 c 128,-1,52
 496 787 496 787 492.5 785.5 c 0,53,54
 483 781.428571429 483 781.428571429 465 765.214285714 c 128,-1,55
 447 749 447 749 438.5 737.5 c 128,-1,56
 430 726 430 726 417.5 714.5 c 0,57,58
 393.414634146 692.341463415 393.414634146 692.341463415 374.207317073 682.170731707 c 0,59,60
 366.783042394 678.239401496 366.783042394 678.239401496 353.891521197 670.119700748 c 0,61,62
 331.473894349 656 331.473894349 656 330 656 c 2,63,-1
 292 632 l 1,64,65
 294.604863222 454.869300912 294.604863222 454.869300912 317.802431611 361.434650456 c 0,66,67
 363.994562795 175.383010964 363.994562795 175.383010964 462.967930213 101.41344163 c 128,-1,68
 561.941297631 27.4438722966 561.941297631 27.4438722966 675 48 c 1,41,-1
459 762 m 1,69,70
 457 761 457 761 459 762.5 c 1,71,-1
 459 762 l 1,69,70
EndSplineSet
EndChar

StartChar: T
Encoding: 55 55 27
Width: 1085
Flags: W
LayerCount: 2
Fore
SplineSet
18 1075 m 1,0,1
 33 1113 33 1113 46 1152 c 128,-1,2
 59 1191 59 1191 80 1220 c 128,-1,3
 101 1249 101 1249 127 1267.5 c 128,-1,4
 153 1286 153 1286 182.5 1299 c 0,5,6
 270.648344371 1337.84503311 270.648344371 1337.84503311 354.5 1331 c 0,7,8
 379 1329 379 1329 404 1327 c 1,9,-1
 916 1327 l 2,10,11
 989.722222222 1327 989.722222222 1327 997.5 1299 c 0,12,13
 1001.74418605 1283.72093023 1001.74418605 1283.72093023 998.372093023 1266.86046512 c 128,-1,14
 995 1250 995 1250 992 1233 c 128,-1,15
 989 1216 989 1216 978.5 1186.5 c 128,-1,16
 968 1157 968 1157 955.5 1128.5 c 0,17,18
 914.256281407 1034.46432161 914.256281407 1034.46432161 864.628140704 954.232160804 c 128,-1,19
 815 874 815 874 785 826 c 0,20,21
 672.584459459 646.135135135 672.584459459 646.135135135 624.5 503 c 0,22,23
 581.850958126 376.044712562 581.850958126 376.044712562 564.425479063 274.522356281 c 128,-1,24
 547 173 547 173 537 106 c 1,25,-1
 359 45 l 1,26,27
 413.983870968 438.568760611 413.983870968 438.568760611 551.5 675 c 0,28,29
 580 724 580 724 610 772 c 0,30,31
 814.540229885 1099.26436782 814.540229885 1099.26436782 821 1222 c 0,32,33
 822 1241 822 1241 801 1252 c 1,34,35
 747 1260 747 1260 693 1256.5 c 128,-1,36
 639 1253 639 1253 585 1253 c 2,37,-1
 243 1253 l 1,38,39
 226 1224 226 1224 216 1192 c 128,-1,40
 206 1160 206 1160 194 1129 c 1,41,-1
 18 1075 l 1,0,1
162 1254 m 2,42,-1
 164 1254.5 l 2,43,44
 163 1254 163 1254 162 1254 c 2,42,-1
EndSplineSet
EndChar

StartChar: U
Encoding: 56 56 28
Width: 1085
Flags: W
LayerCount: 2
Fore
SplineSet
820 842 m 128,-1,1
 804 830 804 830 797 824.5 c 128,-1,2
 790 819 790 819 781 812.25 c 128,-1,3
 772 805.5 772 805.5 772 794.75 c 128,-1,4
 772 784 772 784 773.5 775.5 c 128,-1,5
 775 767 775 767 788 756.5 c 128,-1,6
 801 746 801 746 817.5 735.5 c 128,-1,7
 834 725 834 725 850 715 c 0,8,9
 908.076335878 678.702290076 908.076335878 678.702290076 940.038167939 609.351145038 c 128,-1,10
 972 540 972 540 980.5 480 c 128,-1,11
 989 420 989 420 981.5 360 c 128,-1,12
 974 300 974 300 951 245.5 c 0,13,14
 900.86551265 126.703062583 900.86551265 126.703062583 797 69 c 0,15,16
 592.543035994 -44.1815336463 592.543035994 -44.1815336463 404 -22 c 0,17,18
 217.579545455 -0.0681818181818 217.579545455 -0.0681818181818 143.5 177 c 0,19,20
 102.886937021 274.075126145 102.886937021 274.075126145 112.5 390.5 c 0,21,22
 126.530451866 560.424361493 126.530451866 560.424361493 238.5 650 c 0,23,24
 271 676 271 676 309 699 c 0,25,26
 324 711 324 711 320.5 728.5 c 128,-1,27
 317 746 317 746 305.5 759 c 128,-1,28
 294 772 294 772 277 781.5 c 128,-1,29
 260 791 260 791 234 817 c 128,-1,30
 208 843 208 843 185.5 896.5 c 0,31,32
 136.452925596 1013.12304358 136.452925596 1013.12304358 163 1125 c 0,33,34
 204.79637378 1310.47140865 204.79637378 1310.47140865 412.5 1386 c 0,35,36
 473 1408 473 1408 537 1425 c 1,37,-1
 500 1393 l 1,38,-1
 560 1429 l 1,39,40
 712.556957876 1447.80839207 712.556957876 1447.80839207 815 1376.5 c 0,41,42
 924.412908345 1300.34003439 924.412908345 1300.34003439 938 1147 c 0,43,44
 946.479289941 1070.68639053 946.479289941 1070.68639053 925.23964497 1004.84319527 c 128,-1,45
 904 939 904 939 884.5 910.5 c 128,-1,46
 865 882 865 882 850.5 868 c 128,-1,0
 836 854 836 854 820 842 c 128,-1,1
789.5 482.5 m 128,-1,48
 772 540 772 540 734.047024952 589.321497121 c 128,-1,49
 696.094049904 638.642994242 696.094049904 638.642994242 666.547024952 655.821497121 c 128,-1,50
 637 673 637 673 618.5 683 c 128,-1,51
 600 693 600 693 595 716 c 1,52,-1
 437 716 l 1,53,-1
 415 703 l 1,54,55
 316.400862069 620.176724138 316.400862069 620.176724138 293.5 479.5 c 0,56,57
 271.341991342 343.386518244 271.341991342 343.386518244 328 224 c 0,58,59
 400.981836196 74.1951783355 400.981836196 74.1951783355 576 51 c 0,60,61
 627.555555556 44.5555555556 627.555555556 44.5555555556 671 54 c 1,62,63
 686 67 686 67 696 75.5 c 128,-1,64
 706 84 706 84 714 92 c 0,65,66
 727 105 727 105 752.5 146.5 c 128,-1,67
 778 188 778 188 793 246.5 c 128,-1,68
 808 305 808 305 807.5 365 c 128,-1,47
 807 425 807 425 789.5 482.5 c 128,-1,48
725 885 m 0,69,70
 780.508571429 1006.69186813 780.508571429 1006.69186813 754 1127 c 0,71,72
 728.791878173 1241.40609137 728.791878173 1241.40609137 644 1305 c 0,73,74
 559.893617021 1368.07978723 559.893617021 1368.07978723 447 1358 c 0,75,76
 446 1358 446 1358 446 1357.5 c 128,-1,77
 446 1357 446 1357 438.5 1352.5 c 128,-1,78
 431 1348 431 1348 414.5 1330 c 0,79,80
 316.91369606 1223.54221388 316.91369606 1223.54221388 335 1068 c 0,81,82
 349.342105263 944.657894737 349.342105263 944.657894737 423 871 c 0,83,84
 428 867 428 867 433.5 864 c 128,-1,85
 439 861 439 861 443 855 c 1,86,-1
 455 845 l 1,87,88
 500 818.75 500 818.75 500 790 c 1,89,-1
 642 790 l 1,90,91
 646 793 646 793 650.5 795.5 c 128,-1,92
 655 798 655 798 659 802 c 0,93,94
 702 836 702 836 725 885 c 0,69,70
434 861 m 2,95,96
 433 861 433 861 434.5 860.5 c 128,-1,97
 436 860 436 860 436 859 c 256,98,99
 436 858 436 858 438 858 c 1,100,-1
 434 861 l 2,95,96
657 799 m 1,101,-1
 656 798 l 1,102,-1
 657 799 l 1,101,-1
EndSplineSet
EndChar

StartChar: V
Encoding: 57 57 29
Width: 1085
Flags: W
LayerCount: 2
Fore
SplineSet
592 45 m 1,0,1
 664.36011396 90.2250712251 664.36011396 90.2250712251 727.433333333 247.333333333 c 0,2,3
 754.866666667 315.666666667 754.866666667 315.666666667 763.433333333 401.333333333 c 128,-1,4
 772 487 772 487 776 518.5 c 128,-1,5
 780 550 780 550 783.5 585 c 0,6,7
 791 660 791 660 789 722 c 1,8,9
 707.244186047 640.244186047 707.244186047 640.244186047 549.5 596.5 c 0,10,11
 411.248210024 558.161268326 411.248210024 558.161268326 337.624105012 580.580634163 c 128,-1,12
 264 603 264 603 217.5 641.5 c 128,-1,13
 171 680 171 680 142 731 c 0,14,15
 86.5674891147 828.484760522 86.5674891147 828.484760522 92.2837445573 941.742380261 c 0,16,17
 106.356328464 1220.56605649 106.356328464 1220.56605649 284.5 1325.5 c 0,18,19
 368.929292929 1375.23232323 368.929292929 1375.23232323 520 1413 c 1,20,-1
 495 1392 l 1,21,-1
 543 1417 l 1,22,23
 584 1418 584 1418 617 1419 c 128,-1,24
 650 1420 650 1420 696.5 1406 c 128,-1,25
 743 1392 743 1392 784.5 1358 c 128,-1,26
 826 1324 826 1324 856 1279 c 0,27,28
 930.967741935 1166.5483871 930.967741935 1166.5483871 938.5 1038.5 c 0,29,30
 940.102040816 1011.26530612 940.102040816 1011.26530612 946.551020408 980.632653061 c 128,-1,31
 953 950 953 950 955.5 931 c 0,32,33
 961.333333333 886.666666667 961.333333333 886.666666667 947 858 c 1,34,-1
 952 860 l 1,35,36
 974.603603604 813.054054054 974.603603604 813.054054054 971.301801802 763.527027027 c 128,-1,37
 968 714 968 714 963.5 684 c 128,-1,38
 959 654 959 654 955 603 c 128,-1,39
 951 552 951 552 941.5 474 c 128,-1,40
 932 396 932 396 909.5 322.5 c 0,41,42
 858.615566038 156.277515723 858.615566038 156.277515723 742 75 c 0,43,44
 553.301675978 -57.7877094972 553.301675978 -57.7877094972 351 -32.5 c 0,45,46
 222.275261324 -16.4094076655 222.275261324 -16.4094076655 157 72.5 c 0,47,48
 128 112 128 112 110 149 c 1,49,-1
 286 216 l 1,50,51
 371.332261177 48.0881312319 371.332261177 48.0881312319 531.5 36 c 0,52,53
 558 34 558 34 584 39 c 1,54,-1
 592 45 l 1,0,1
624.5 1276.5 m 128,-1,56
 581 1317 581 1317 536.5 1331 c 0,57,58
 481.390728477 1348.33774834 481.390728477 1348.33774834 425 1344 c 1,59,-1
 410 1338 l 1,60,61
 354.434782609 1299.79891304 354.434782609 1299.79891304 315 1216 c 0,62,63
 244.333333333 1074.66666667 244.333333333 1074.66666667 276 910 c 0,64,65
 299.120335821 789.774253731 299.120335821 789.774253731 387.5 713 c 0,66,67
 483.557622321 629.556004852 483.557622321 629.556004852 596 654 c 1,68,69
 605 662 605 662 613 669.5 c 128,-1,70
 621 677 621 677 630 685 c 1,71,72
 666.666666667 733.888888889 666.666666667 733.888888889 688.333333333 745.444444444 c 128,-1,73
 710 757 710 757 725 764.5 c 0,74,75
 762.5 783.25 762.5 783.25 770.75 803.625 c 128,-1,76
 779 824 779 824 779 842 c 128,-1,77
 779 860 779 860 776 879 c 128,-1,78
 773 898 773 898 768.5 916.5 c 128,-1,79
 764 935 764 935 761 972.5 c 128,-1,80
 758 1010 758 1010 742 1070 c 128,-1,81
 726 1130 726 1130 697 1183 c 128,-1,55
 668 1236 668 1236 624.5 1276.5 c 128,-1,56
570 32 m 1,82,83
 569.449489743 31.9494897428 569.449489743 31.9494897428 568.224744871 31.4747448714 c 128,-1,84
 567 31 567 31 570 32 c 1,82,83
633 662 m 257,85,-1
 633.5 662.5 l 1,86,-1
 633 662 l 257,85,-1
627 681 m 2,87,-1
 624.5 677.5 l 2,88,89
 626 679 626 679 627 681 c 2,87,-1
EndSplineSet
EndChar

StartChar: W
Encoding: 58 58 30
Width: 543
Flags: W
LayerCount: 2
Fore
SplineSet
369 201 m 0,0,1
 401 164 401 164 401 106.5 c 128,-1,2
 401 49 401 49 367.5 13 c 128,-1,3
 334 -23 334 -23 274.5 -23 c 128,-1,4
 215 -23 215 -23 179 13 c 128,-1,5
 143 49 143 49 143 106.5 c 128,-1,6
 143 164 143 164 179 200 c 128,-1,7
 215 236 215 236 274.5 236 c 128,-1,8
 334 236 334 236 369 201 c 0,0,1
272 1003 m 0,9,10
 401 998.838709677 401 998.838709677 401 872 c 0,11,12
 401 815 401 815 367.5 778 c 128,-1,13
 334 741 334 741 274.5 741 c 128,-1,14
 215 741 215 741 180 780 c 1,15,16
 143 815 143 815 143 872.5 c 128,-1,17
 143 930 143 930 179 965.5 c 128,-1,18
 215 1001 215 1001 272 1003 c 0,9,10
EndSplineSet
EndChar

StartChar: X
Encoding: 59 59 31
Width: 543
Flags: W
LayerCount: 2
Fore
SplineSet
359 221 m 1,0,1
 365 207 365 207 369.5 197 c 128,-1,2
 374 187 374 187 377 178 c 0,3,4
 411.801801802 73.5945945946 411.801801802 73.5945945946 346 -61 c 0,5,6
 307.844776119 -139.044776119 307.844776119 -139.044776119 232 -222 c 1,7,-1
 63 -267 l 1,8,9
 231.138504155 -82.5900277008 231.138504155 -82.5900277008 204.5 95 c 0,10,11
 202.20754717 110.283018868 202.20754717 110.283018868 195.603773585 125.141509434 c 128,-1,12
 189 140 189 140 183 154 c 1,13,-1
 359 221 l 1,0,1
272 1003 m 0,14,15
 401 998.838709677 401 998.838709677 401 872 c 0,16,17
 401 815 401 815 367.5 778 c 128,-1,18
 334 741 334 741 274.5 741 c 128,-1,19
 215 741 215 741 180 780 c 1,20,21
 143 815 143 815 143 872.5 c 128,-1,22
 143 930 143 930 179 965.5 c 128,-1,23
 215 1001 215 1001 272 1003 c 0,14,15
EndSplineSet
EndChar

StartChar: Y
Encoding: 60 60 32
Width: 1167
Flags: W
LayerCount: 2
Fore
SplineSet
937 46 m 1,0,1
 875 85 875 85 807.5 110.5 c 128,-1,2
 740 136 740 136 659.5 171.5 c 128,-1,3
 579 207 579 207 485.5 249 c 128,-1,4
 392 291 392 291 336 315 c 0,5,6
 252 351 252 351 232 361 c 2,7,-1
 151 399 l 2,8,9
 133 408 133 408 113 417 c 128,-1,10
 93 426 93 426 80 438.5 c 0,11,12
 49.9573889393 467.38712602 49.9573889393 467.38712602 76 516 c 0,13,14
 80 523 80 523 85.5 528.5 c 128,-1,15
 91 534 91 534 98 541 c 0,16,17
 148.315789474 591.315789474 148.315789474 591.315789474 304 645 c 1,18,19
 483 721 483 721 656.5 803 c 128,-1,20
 830 885 830 885 1010 960 c 1,21,-1
 1052 936 l 1,22,23
 783.232227488 821.900473934 783.232227488 821.900473934 677.116113744 770.450236967 c 128,-1,24
 571 719 571 719 561 714.5 c 128,-1,25
 551 710 551 710 544 707 c 128,-1,26
 537 704 537 704 528.5 700 c 0,27,28
 506.090909091 689.454545455 506.090909091 689.454545455 474.545454545 675.727272727 c 128,-1,29
 443 662 443 662 418 648.5 c 0,30,31
 368.974025974 622.025974026 368.974025974 622.025974026 363 628 c 1,32,-1
 362 628 l 1,33,-1
 331 615 l 2,34,35
 317 610 317 610 302.5 605 c 128,-1,36
 288 600 288 600 277.5 594.5 c 0,37,38
 244 576.952380952 244 576.952380952 244.5 548.976190476 c 128,-1,39
 245 521 245 521 254 509 c 128,-1,40
 263 497 263 497 276.5 488.5 c 128,-1,41
 290 480 290 480 306 474.5 c 128,-1,42
 322 469 322 469 335.5 463 c 0,43,44
 394 437 394 437 408 430 c 2,45,-1
 434 417 l 1,46,47
 864.617112299 224.685561497 864.617112299 224.685561497 957.30855615 189.342780749 c 128,-1,48
 1050 154 1050 154 1113 113 c 1,49,-1
 937 46 l 1,0,1
392 641 m 2,50,-1
 387 638.5 l 2,51,52
 390 639 390 639 392 641 c 2,50,-1
EndSplineSet
EndChar

StartChar: Z
Encoding: 61 61 33
Width: 1167
Flags: W
LayerCount: 2
Fore
SplineSet
1064 308 m 1,0,1
 1012 279.771428571 1012 279.771428571 923 234 c 1,2,-1
 52 234 l 1,3,-1
 193 308 l 1,4,-1
 1064 308 l 1,0,1
1064 771 m 1,5,6
 1012 742.771428571 1012 742.771428571 923 697 c 1,7,-1
 52 697 l 1,8,-1
 193 771 l 1,9,-1
 1064 771 l 1,5,6
EndSplineSet
EndChar

StartChar: bracketleft
Encoding: 62 62 34
Width: 1167
Flags: W
LayerCount: 2
Fore
SplineSet
234 981 m 1,0,1
 278 955 278 955 326 937 c 128,-1,2
 374 919 374 919 453.5 882 c 128,-1,3
 533 845 533 845 645.5 795.5 c 128,-1,4
 758 746 758 746 834 711.5 c 128,-1,5
 910 677 910 677 949 659.5 c 128,-1,6
 988 642 988 642 1017 629 c 128,-1,7
 1046 616 1046 616 1063.5 608.5 c 128,-1,8
 1081 601 1081 601 1095.5 579.5 c 128,-1,9
 1110 558 1110 558 1101 535.5 c 128,-1,10
 1092 513 1092 513 1071 493.5 c 0,11,12
 1033.45454545 458.636363636 1033.45454545 458.636363636 1003.22727273 445.318181818 c 0,13,14
 953.441176471 423.382352941 953.441176471 423.382352941 935 415 c 2,15,-1
 862 386 l 1,16,-1
 861 386 l 1,17,18
 860 385 860 385 858 385 c 2,19,-1
 814 365.5 l 2,20,21
 801 359 801 359 787 354 c 1,22,-1
 621 280 l 2,23,24
 579 261 579 261 538.5 242.5 c 128,-1,25
 498 224 498 224 456 206 c 1,26,-1
 430.5 194 l 2,27,28
 413.052631579 185.789473684 413.052631579 185.789473684 404.5 182.5 c 2,29,-1
 385 175 l 1,30,31
 359 159.4 359 159.4 359 163 c 1,32,-1
 321.5 144 l 1,33,34
 192.466135458 82.0637450199 192.466135458 82.0637450199 111 60 c 1,35,36
 122 74 122 74 133.5 87 c 128,-1,37
 145 100 145 100 157 114 c 1,38,39
 192 124 192 124 226 143.5 c 128,-1,40
 260 163 260 163 297.5 180 c 128,-1,41
 335 197 335 197 375.5 214.5 c 128,-1,42
 416 232 416 232 457 250 c 2,43,-1
 640 331 l 2,44,45
 641 332 641 332 649.5 335.5 c 128,-1,46
 658 339 658 339 662.5 341.5 c 128,-1,47
 667 344 667 344 669 344 c 1,48,-1
 670 345 l 1,49,-1
 672 345 l 1,50,51
 674 347 674 347 675.5 347 c 128,-1,52
 677 347 677 347 677 348 c 1,53,-1
 678 348 l 1,54,55
 719 367.294117647 719 367.294117647 733.5 373.147058824 c 128,-1,56
 748 379 748 379 754 382 c 128,-1,57
 760 385 760 385 765.5 387 c 0,58,59
 782 393 782 393 773 390 c 0,60,61
 748 378 748 378 742 375.5 c 129,-1,62
 736 373 736 373 742 375.5 c 129,-1,63
 748 378 748 378 762.5 384.5 c 128,-1,64
 777 391 777 391 792.5 398 c 128,-1,65
 808 405 808 405 821 411 c 128,-1,66
 834 417 834 417 836.5 417.5 c 0,67,68
 840.73365452 418.346730904 840.73365452 418.346730904 849 422 c 2,69,-1
 885 436 l 2,70,71
 923.813559322 451.525423729 923.813559322 451.525423729 925.5 492 c 0,72,73
 926 504 926 504 916 518 c 128,-1,74
 906 532 906 532 890.5 538.5 c 128,-1,75
 875 545 875 545 857 553 c 2,76,-1
 702 623 l 2,77,78
 589 674 589 674 476 723.5 c 128,-1,79
 363 773 363 773 283 811 c 128,-1,80
 203 849 203 849 153.5 867.5 c 128,-1,81
 104 886 104 886 58 914 c 1,82,-1
 234 981 l 1,0,1
869 389 m 1,83,-1
 865 387 l 1,84,-1
 869 389 l 1,83,-1
848 421 m 1,85,-1
 840 419 l 1,86,-1
 849 422 l 1,87,-1
 848 421 l 1,85,-1
EndSplineSet
EndChar

StartChar: backslash
Encoding: 63 63 35
Width: 797
Flags: W
LayerCount: 2
Fore
SplineSet
492 424 m 1,0,-1
 488 424 l 1,1,-1
 462 419 l 1,2,3
 390.981308411 402.289719626 390.981308411 402.289719626 358.990654206 409.144859813 c 128,-1,4
 327 416 327 416 309 422.5 c 0,5,6
 187.692134831 466.305617978 187.692134831 466.305617978 198 590 c 0,7,8
 206.139442231 687.673306773 206.139442231 687.673306773 292 781 c 0,9,10
 334.076470588 826.735294118 334.076470588 826.735294118 366.538235294 855.867647059 c 128,-1,11
 399 885 399 885 421.5 907.5 c 0,12,13
 564.580246914 1050.58024691 564.580246914 1050.58024691 532 1206.5 c 0,14,15
 518.043867502 1273.29006267 518.043867502 1273.29006267 484.521933751 1312.14503133 c 128,-1,16
 451 1351 451 1351 426.5 1365.5 c 0,17,18
 375.216624685 1395.85138539 375.216624685 1395.85138539 329 1392 c 1,19,20
 263.893977947 1342.31382528 263.893977947 1342.31382528 229 1252 c 1,21,-1
 53 1198 l 1,22,23
 61 1219 61 1219 64.5 1228.5 c 128,-1,24
 68 1238 68 1238 71.5 1245 c 128,-1,25
 75 1252 75 1252 81 1260.5 c 128,-1,26
 87 1269 87 1269 103.5 1294 c 128,-1,27
 120 1319 120 1319 153 1345 c 128,-1,28
 186 1371 186 1371 224.5 1391 c 0,29,30
 480.63567333 1524.05749264 480.63567333 1524.05749264 619.5 1422.5 c 0,31,32
 653 1398 653 1398 678.5 1353 c 128,-1,33
 704 1308 704 1308 711 1258 c 128,-1,34
 718 1208 718 1208 708 1159 c 0,35,36
 682.394310937 1033.53212359 682.394310937 1033.53212359 566.5 929 c 0,37,38
 457.629752066 830.803305785 457.629752066 830.803305785 427.814876033 785.401652893 c 128,-1,39
 398 740 398 740 385 694.5 c 128,-1,40
 372 649 372 649 378.5 607.5 c 0,41,42
 393.267531326 513.214992306 393.267531326 513.214992306 500 487 c 0,43,44
 524.539130435 481.226086957 524.539130435 481.226086957 553.269565217 486.613043478 c 0,45,46
 614 498 614 498 632 498 c 1,47,48
 562 460 562 460 492 424 c 1,0,-1
483 197 m 0,49,50
 516 160 516 160 516 103.5 c 128,-1,51
 516 47 516 47 482 12 c 128,-1,52
 448 -23 448 -23 391 -23 c 128,-1,53
 334 -23 334 -23 298 12 c 128,-1,54
 262 47 262 47 262 103.5 c 128,-1,55
 262 160 262 160 298 195.5 c 128,-1,56
 334 231 334 231 391 231 c 128,-1,57
 448 231 448 231 483 197 c 0,49,50
497 425 m 2,58,-1
 505 425.5 l 2,59,60
 501 425 501 425 497 425 c 2,58,-1
496 425 m 2,61,-1
 494.5 424.5 l 2,62,63
 495 425 495 425 496 425 c 2,61,-1
EndSplineSet
EndChar

StartChar: bracketright
Encoding: 64 64 36
Width: 1624
Flags: W
LayerCount: 2
Fore
SplineSet
1115 667 m 1,0,1
 1118.11111111 660.777777778 1118.11111111 660.777777778 1113 648 c 1,2,-1
 1113 644 l 1,3,4
 1112 635 1112 635 1111 625.5 c 128,-1,5
 1110 616 1110 616 1107.5 596.5 c 0,6,7
 1097.31947484 517.09190372 1097.31947484 517.09190372 1107.15973742 482.04595186 c 0,8,9
 1124.91600864 418.80725054 1124.91600864 418.80725054 1208 424 c 1,10,11
 1371.09027778 543.599537037 1371.09027778 543.599537037 1393 770 c 0,12,13
 1405 894 1405 894 1374.5 997.5 c 128,-1,14
 1344 1101 1344 1101 1292.5 1170 c 128,-1,15
 1241 1239 1241 1239 1172 1286 c 0,16,17
 1032.68475073 1380.89589443 1032.68475073 1380.89589443 848 1385 c 0,18,19
 679.473684211 1385 679.473684211 1385 596 1324 c 0,20,21
 505.274744027 1259.61433447 505.274744027 1259.61433447 469.137372014 1217.30716724 c 128,-1,22
 433 1175 433 1175 399 1126.5 c 128,-1,23
 365 1078 365 1078 331 1002 c 128,-1,24
 297 926 297 926 278.5 845 c 128,-1,25
 260 764 260 764 257 681 c 128,-1,26
 254 598 254 598 269 518 c 0,27,28
 300.693069307 348.97029703 300.693069307 348.97029703 399.846534653 238.485148515 c 0,29,30
 578.080799445 39.8815077137 578.080799445 39.8815077137 861 29 c 0,31,32
 968.642384106 23.8741721854 968.642384106 23.8741721854 1052.5 44 c 0,33,34
 1065 47 1065 47 1074.5 49 c 0,35,36
 1086.11111111 51.4444444444 1086.11111111 51.4444444444 1107.05555556 59.2222222222 c 0,37,38
 1156.65306122 77.6403940887 1156.65306122 77.6403940887 1212 91 c 1,39,-1
 1113 23 l 1,40,41
 1117 23 1117 23 1119 24 c 1,42,43
 1112.90282989 17.8708489656 1112.90282989 17.8708489656 1053.45141494 -1.06457551718 c 128,-1,44
 994 -20 994 -20 920 -31 c 128,-1,45
 846 -42 846 -42 780 -45 c 128,-1,46
 714 -48 714 -48 648.5 -41.5 c 0,47,48
 400.576078431 -16.8968627451 400.576078431 -16.8968627451 250.5 140.5 c 0,49,50
 71.2825768668 328.459736457 71.2825768668 328.459736457 79.5 621 c 0,51,52
 86.7783555411 880.109457264 86.7783555411 880.109457264 238 1093.5 c 0,53,54
 421.800173338 1352.86246682 421.800173338 1352.86246682 779.5 1433.5 c 0,55,56
 1064.69152999 1497.7917322 1064.69152999 1497.7917322 1277 1396 c 0,57,58
 1434.18018018 1320.63963964 1434.18018018 1320.63963964 1512 1165 c 0,59,60
 1622.5368704 946.996727825 1622.5368704 946.996727825 1547.5 715.5 c 0,61,62
 1499.35986294 566.982555876 1499.35986294 566.982555876 1380 470.5 c 0,63,64
 1320 422 1320 422 1268 403 c 128,-1,65
 1216 384 1216 384 1185 373 c 128,-1,66
 1154 362 1154 362 1121 355.5 c 0,67,68
 951.179661017 322.050539291 951.179661017 322.050539291 926.5 427.5 c 0,69,70
 919.583138173 457.053864169 919.583138173 457.053864169 928 530 c 1,71,72
 857.166666667 459.166666667 857.166666667 459.166666667 781.083333333 424.583333333 c 128,-1,73
 705 390 705 390 651.5 378 c 128,-1,74
 598 366 598 366 575.5 364.5 c 128,-1,75
 553 363 553 363 533 368 c 0,76,77
 488.48 379.13 488.48 379.13 473.74 428.565 c 0,78,79
 451.021770835 504.757378479 451.021770835 504.757378479 483 638 c 0,80,81
 527.82038835 826.88592233 527.82038835 826.88592233 664 955.5 c 0,82,83
 739.724137931 1027.01724138 739.724137931 1027.01724138 844 1065.5 c 0,84,85
 1023.39172514 1131.70408904 1023.39172514 1131.70408904 1147.5 1091.5 c 0,86,87
 1189.56302521 1077.87394958 1189.56302521 1077.87394958 1203 1051 c 1,88,-1
 1223 1057 l 1,89,-1
 1211 1039 l 1,90,-1
 1209 1038 l 1,91,92
 1219.7605178 1004.18122977 1219.7605178 1004.18122977 1194 943 c 1,93,94
 1180 883 1180 883 1159.5 826 c 128,-1,95
 1139 769 1139 769 1122 709 c 1,96,-1
 1113 706 l 1,97,98
 1122.47368421 689.421052632 1122.47368421 689.421052632 1115 667 c 1,0,1
953 681 m 1,99,100
 969 731 969 731 986 781 c 128,-1,101
 1003 831 1003 831 1010.5 861.5 c 128,-1,102
 1018 892 1018 892 1022.5 904 c 128,-1,103
 1027 916 1027 916 1030.5 928.5 c 0,104,105
 1049.1459854 995.092805005 1049.1459854 995.092805005 976.5 1020 c 0,106,107
 928.23255814 1036.54883721 928.23255814 1036.54883721 900.61627907 1034.7744186 c 128,-1,108
 873 1033 873 1033 865.5 1028.5 c 0,109,110
 850.5 1019.5 850.5 1019.5 817.25 986.25 c 0,111,112
 699.607476636 868.607476636 699.607476636 868.607476636 654 670.5 c 0,113,114
 617.228070175 510.771929825 617.228070175 510.771929825 676 452 c 0,115,116
 682 446 682 446 692.5 443 c 128,-1,117
 703 440 703 440 708 438 c 1,118,119
 743 464 743 464 767 496 c 2,120,-1
 826 574 l 1,121,122
 857.546666667 639.52 857.546666667 639.52 917 665 c 2,123,-1
 953 681 l 1,99,100
1058 40 m 1,124,-1
 1062 42 l 2,125,126
 1058 40 1058 40 1058 40 c 1,124,-1
1103 21 m 1,127,128
 1105 21 1105 21 1106.5 21.5 c 128,-1,129
 1108 22 1108 22 1110 22 c 1,130,131
 1108 22 1108 22 1106.5 21.5 c 128,-1,132
 1105 21 1105 21 1103 21 c 1,127,128
1098 19 m 2,133,-1
 1100 20 l 2,134,135
 1099 20 1099 20 1098 19 c 2,133,-1
1097 19 m 2,136,137
 1095.86037961 18.8798734633 1095.86037961 18.8798734633 1095.5 18.5 c 2,138,-1
 1097 19 l 2,136,137
1263 436.5 m 2,139,-1
 1262 436 l 2,140,141
 1263 436 1263 436 1263 436.5 c 2,139,-1
EndSplineSet
EndChar

StartChar: asciicircum
Encoding: 65 65 37
Width: 1421
Flags: W
LayerCount: 2
Fore
SplineSet
406 -2 m 1,0,1
 381 1 381 1 320.5 1 c 128,-1,2
 260 1 260 1 214 24 c 1,3,4
 203 21 203 21 192.5 18.5 c 128,-1,5
 182 16 182 16 157 10 c 0,6,7
 107 -2 107 -2 8 -2 c 1,8,-1
 149 72 l 1,9,10
 162 72 162 72 174.5 71.5 c 128,-1,11
 187 71 187 71 200 72 c 1,12,13
 207 94 207 94 206 118.5 c 0,14,15
 203.465101523 180.60501269 203.465101523 180.60501269 314 476 c 0,16,17
 320 492 320 492 324.5 508 c 128,-1,18
 329 524 329 524 334.5 539 c 0,19,20
 346.488479263 571.695852535 346.488479263 571.695852535 368 595 c 1,21,-1
 370 595 l 1,22,23
 371 606 371 606 370.5 617 c 128,-1,24
 370 628 370 628 374.5 646 c 128,-1,25
 379 664 379 664 392 709.5 c 128,-1,26
 405 755 405 755 420.5 809.5 c 128,-1,27
 436 864 436 864 453.5 921 c 128,-1,28
 471 978 471 978 485.5 1026.5 c 0,29,30
 517.694915254 1134.18644068 517.694915254 1134.18644068 528.347457627 1164.59322034 c 128,-1,31
 539 1195 539 1195 547.5 1222 c 128,-1,32
 556 1249 556 1249 562 1266.5 c 128,-1,33
 568 1284 568 1284 574 1294 c 128,-1,34
 580 1304 580 1304 592 1313.5 c 128,-1,35
 604 1323 604 1323 623 1336 c 128,-1,36
 642 1349 642 1349 674 1371 c 1,37,38
 668 1387 668 1387 668 1405 c 1,39,-1
 846 1466 l 1,40,41
 846 1441.30769231 846 1441.30769231 863.5 1407.65384615 c 128,-1,42
 881 1374 881 1374 896.5 1329 c 128,-1,43
 912 1284 912 1284 937.5 1208.5 c 128,-1,44
 963 1133 963 1133 981.5 1080 c 128,-1,45
 1000 1027 1000 1027 1010.5 989 c 128,-1,46
 1021 951 1021 951 1031 911.5 c 128,-1,47
 1041 872 1041 872 1050.5 834 c 128,-1,48
 1060 796 1060 796 1067 772.5 c 128,-1,49
 1074 749 1074 749 1074.5 733 c 128,-1,50
 1075 717 1075 717 1083 692.5 c 128,-1,51
 1091 668 1091 668 1105.5 636 c 128,-1,52
 1120 604 1120 604 1132.5 568.5 c 128,-1,53
 1145 533 1145 533 1158.5 494 c 128,-1,54
 1172 455 1172 455 1187 413 c 128,-1,55
 1202 371 1202 371 1221 325 c 128,-1,56
 1240 279 1240 279 1245 249 c 128,-1,57
 1250 219 1250 219 1250 206 c 128,-1,58
 1250 193 1250 193 1251 180.5 c 0,59,60
 1253.55555556 148.555555556 1253.55555556 148.555555556 1263.77777778 136.277777778 c 128,-1,61
 1274 124 1274 124 1290 116 c 128,-1,62
 1306 108 1306 108 1323.5 101.5 c 0,63,64
 1384.32247557 78.9087947883 1384.32247557 78.9087947883 1427.16123779 75.9543973941 c 2,65,-1
 1499 71 l 1,66,-1
 1342 -2 l 1,67,68
 1200.93617021 3.53191489362 1200.93617021 3.53191489362 1132 38 c 1,69,70
 1024.3255814 -7.46253229974 1024.3255814 -7.46253229974 908 -1 c 0,71,72
 890 0 890 0 872 -2 c 1,73,74
 961 43.7714285714 961 43.7714285714 1013 72 c 1,75,76
 1030 74 1030 74 1046 73.5 c 128,-1,77
 1062 73 1062 73 1079 73 c 1,78,-1
 1082 76 l 1,79,80
 1071 94.3333333333 1071 94.3333333333 1071 126.666666667 c 128,-1,81
 1071 159 1071 159 1068 180.5 c 128,-1,82
 1065 202 1065 202 1052.5 232.5 c 128,-1,83
 1040 263 1040 263 1025.5 305.5 c 0,84,85
 958.8 501 958.8 501 921 585 c 1,86,87
 882.428571429 570 882.428571429 570 812.5 570 c 0,88,89
 656.75 570 656.75 570 501 570 c 1,90,-1
 490 530 l 1,91,92
 388.959785523 259.356568365 388.959785523 259.356568365 385 196 c 0,93,94
 384 180 384 180 383 163.5 c 0,95,96
 380.559210526 123.226973684 380.559210526 123.226973684 365 103 c 1,97,-1
 369 105 l 1,98,99
 409.6875 74 409.6875 74 513.5 74 c 0,100,101
 539 74 539 74 563 71 c 1,102,-1
 406 -2 l 1,0,1
574 644 m 2,103,-1
 900 644 l 1,104,105
 897 657 897 657 896.5 670 c 128,-1,106
 896 683 896 683 887.5 715 c 0,107,108
 873.6 767.329411765 873.6 767.329411765 844.8 850.164705882 c 128,-1,109
 816 933 816 933 801.5 980.5 c 128,-1,110
 787 1028 787 1028 773 1076.5 c 128,-1,111
 759 1125 759 1125 745 1173.5 c 128,-1,112
 731 1222 731 1222 718 1266 c 1,113,114
 714 1252 714 1252 710 1237 c 128,-1,115
 706 1222 706 1222 696.5 1195.5 c 128,-1,116
 687 1169 687 1169 674 1122.5 c 128,-1,117
 661 1076 661 1076 647.5 1028 c 128,-1,118
 634 980 634 980 621 933 c 128,-1,119
 608 886 608 886 595.5 848.5 c 0,120,121
 537.615384615 674.846153846 537.615384615 674.846153846 548 652 c 0,122,123
 552 644 552 644 574 644 c 2,103,-1
EndSplineSet
EndChar

StartChar: underscore
Encoding: 66 66 38
Width: 1273
Flags: W
LayerCount: 2
Fore
SplineSet
877 831 m 1,0,1
 903.896551724 794.017241379 903.896551724 794.017241379 916.948275862 792.50862069 c 128,-1,2
 930 791 930 791 945 785.5 c 128,-1,3
 960 780 960 780 976.5 772 c 0,4,5
 1062.0572712 730.517686693 1062.0572712 730.517686693 1101.0286356 678.758843346 c 128,-1,6
 1140 627 1140 627 1158 577.5 c 0,7,8
 1202.05541562 456.347607053 1202.05541562 456.347607053 1165.5 315 c 0,9,10
 1145.47399703 237.566121842 1145.47399703 237.566121842 1080 168 c 0,11,12
 1032.35211268 114.746478873 1032.35211268 114.746478873 913.676056338 68.3732394366 c 0,13,14
 668.369156305 -27.4816108314 668.369156305 -27.4816108314 461 9 c 1,15,16
 333.142857143 21.7857142857 333.142857143 21.7857142857 296 45 c 1,17,18
 220.502439024 12.9707317073 220.502439024 12.9707317073 152.751219512 8.98536585366 c 128,-1,19
 85 5 85 5 37 0 c 1,20,-1
 159 72 l 1,21,22
 172 73 172 73 186 73 c 128,-1,23
 200 73 200 73 213.5 74 c 0,24,25
 247.532934132 76.5209580838 247.532934132 76.5209580838 264 87 c 1,26,27
 250.867549669 124.208609272 250.867549669 124.208609272 255.933774834 173.604304636 c 128,-1,28
 261 223 261 223 261 241 c 2,29,-1
 261 714 l 2,30,31
 261 723 261 723 260 732.5 c 0,32,33
 257.590163934 755.393442623 257.590163934 755.393442623 278 769 c 1,34,-1
 261 763 l 1,35,-1
 261 1324 l 1,36,37
 211.199819982 1368.46444644 211.199819982 1368.46444644 164.599909991 1378.73222322 c 0,38,39
 104.384615385 1392 104.384615385 1392 18 1392 c 1,40,-1
 159 1466 l 1,41,42
 211 1466 211 1466 263 1463.5 c 0,43,44
 333.421900161 1460.11433172 333.421900161 1460.11433172 403 1419 c 1,45,46
 501.744360902 1453.34586466 501.744360902 1453.34586466 556.872180451 1456.17293233 c 128,-1,47
 612 1459 612 1459 656.5 1459 c 128,-1,48
 701 1459 701 1459 755.5 1457.5 c 128,-1,49
 810 1456 810 1456 862.5 1446.5 c 0,50,51
 1048.75679557 1412.79638937 1048.75679557 1412.79638937 1099 1266.5 c 0,52,53
 1133.37513316 1166.4077005 1133.37513316 1166.4077005 1101.5 1060.5 c 0,54,55
 1073.16856629 966.366526695 1073.16856629 966.366526695 1000.5 911 c 0,56,57
 949.909090909 872.454545455 949.909090909 872.454545455 887 841 c 1,58,-1
 877 831 l 1,0,1
710 756 m 1,59,60
 656.410646388 748.060836502 656.410646388 748.060836502 483 751 c 1,61,-1
 439 751 l 1,62,-1
 439 302 l 2,63,64
 439 267 439 267 435 234.5 c 128,-1,65
 431 202 431 202 435.5 174.5 c 0,66,67
 445.773584906 111.716981132 445.773584906 111.716981132 521 95 c 0,68,69
 554 88.4 554 88.4 586 86.2 c 128,-1,70
 618 84 618 84 640.5 81 c 0,71,72
 733.868263473 68.5508982036 733.868263473 68.5508982036 787.434131737 77.2754491018 c 128,-1,73
 841 86 841 86 848.5 86.5 c 128,-1,74
 856 87 856 87 863 90 c 0,75,76
 983.573033708 153.157303371 983.573033708 153.157303371 1002 319 c 0,77,78
 1024.45886654 521.129798903 1024.45886654 521.129798903 894.5 644 c 0,79,80
 856.366666667 680.053333333 856.366666667 680.053333333 764 717 c 0,81,82
 762 718 762 718 756.5 718.5 c 128,-1,83
 751 719 751 719 752 720 c 1,84,85
 735.333333333 723.333333333 735.333333333 723.333333333 726.666666667 734.166666667 c 128,-1,86
 718 745 718 745 710 756 c 1,59,60
575 826 m 1,87,-1
 693 824 l 1,88,89
 725 822 725 822 758 824 c 1,90,91
 775 834 775 834 794 843 c 128,-1,92
 813 852 813 852 836 868 c 0,93,94
 883.873106061 901.303030303 883.873106061 901.303030303 907.43655303 961.151515152 c 128,-1,95
 931 1021 931 1021 934.5 1059 c 0,96,97
 953.948972009 1270.16026753 953.948972009 1270.16026753 788 1345 c 0,98,99
 703.61179173 1383.05742726 703.61179173 1383.05742726 500.5 1386.5 c 0,100,101
 439 1387.54237288 439 1387.54237288 439 1383 c 2,102,-1
 439 826 l 1,103,104
 474 832 474 832 499.5 829.5 c 128,-1,105
 525 827 525 827 537 826 c 1,106,-1
 575 826 l 1,87,-1
839 829 m 0,107,108
 838 828 838 828 836 828 c 1,109,110
 838 828 838 828 839.5 828.5 c 128,-1,111
 841 829 841 829 839 829 c 0,107,108
EndSplineSet
EndChar

StartChar: grave
Encoding: 67 67 39
Width: 1420
Flags: W
LayerCount: 2
Fore
SplineSet
1377 414 m 1,0,1
 1377 416 1377 416 1379 420 c 0,2,3
 1380 422 1380 422 1379 419 c 128,-1,4
 1378 416 1378 416 1378 414 c 2,5,-1
 1378 413 l 2,6,7
 1378 412 1378 412 1377 408 c 128,-1,8
 1376 404 1376 404 1375 399.5 c 2,9,-1
 1376 401 l 1,10,11
 1364.46733668 304.125628141 1364.46733668 304.125628141 1350.73366834 267.06281407 c 128,-1,12
 1337 230 1337 230 1337 226.5 c 128,-1,13
 1337 223 1337 223 1333.5 207.5 c 128,-1,14
 1330 192 1330 192 1315.5 170 c 128,-1,15
 1301 148 1301 148 1281 131 c 0,16,17
 1211.89285714 72.2589285714 1211.89285714 72.2589285714 1104.44642857 35.6294642857 c 128,-1,18
 997 -1 997 -1 928 -13.5 c 0,19,20
 781.078559738 -40.116202946 781.078559738 -40.116202946 684.539279869 -26.058101473 c 0,21,22
 509.555289561 -0.576839387416 509.555289561 -0.576839387416 416.277644781 55.2115803063 c 128,-1,23
 323 111 323 111 266 190 c 128,-1,24
 209 269 209 269 175.5 362 c 0,25,26
 87.4396826429 606.465955648 87.4396826429 606.465955648 143.5 894.5 c 0,27,28
 214.949075415 1261.60042196 214.949075415 1261.60042196 507 1394.5 c 0,29,30
 841.539279046 1546.73416631 841.539279046 1546.73416631 1174.5 1452.5 c 0,31,32
 1268.57808858 1425.87412587 1268.57808858 1425.87412587 1313 1371 c 0,33,34
 1323 1359 1323 1359 1324.5 1343 c 128,-1,35
 1326 1327 1326 1327 1337.5 1277 c 128,-1,36
 1349 1227 1349 1227 1349 1144 c 1,37,-1
 1171 1083 l 1,38,39
 1171 1157.66666667 1171 1157.66666667 1159.5 1211.33333333 c 128,-1,40
 1148 1265 1148 1265 1147 1279 c 128,-1,41
 1146 1293 1146 1293 1131.5 1311 c 128,-1,42
 1117 1329 1117 1329 1090.5 1345.5 c 128,-1,43
 1064 1362 1064 1362 1034 1373 c 0,44,45
 916.727272727 1416 916.727272727 1416 753 1416 c 0,46,47
 643.642857143 1416 643.642857143 1416 599 1391 c 2,48,-1
 574.5 1377 l 2,49,50
 492.055555556 1329.88888889 492.055555556 1329.88888889 427.027777778 1225.94444444 c 128,-1,51
 362 1122 362 1122 330.5 996 c 128,-1,52
 299 870 299 870 299.5 738.5 c 0,53,54
 300.584842945 453.186305468 300.584842945 453.186305468 438 262 c 0,55,56
 584.454882571 62.9715698393 584.454882571 62.9715698393 872 45 c 0,57,58
 956.243386243 40.5661375661 956.243386243 40.5661375661 993.621693122 48.7830687831 c 0,59,60
 1085.45707497 68.9713833157 1085.45707497 68.9713833157 1100.22853749 78.9856916579 c 0,61,62
 1118.10510486 91.1051048551 1118.10510486 91.1051048551 1140 113 c 1,63,64
 1162.31506849 145.232876712 1162.31506849 145.232876712 1191 303 c 1,65,66
 1191 338 1191 338 1202 360 c 1,67,-1
 1377 414 l 1,0,1
EndSplineSet
EndChar

StartChar: a
Encoding: 68 68 40
Width: 1527
Flags: W
LayerCount: 2
Fore
SplineSet
157 1462 m 1,0,1
 209 1462 209 1462 261 1459.5 c 128,-1,2
 313 1457 313 1457 342 1444 c 0,3,4
 392.452054795 1421.38356164 392.452054795 1421.38356164 403 1414 c 1,5,6
 487 1448 487 1448 553.5 1452 c 128,-1,7
 620 1456 620 1456 662.5 1455.5 c 128,-1,8
 705 1455 705 1455 762 1455 c 128,-1,9
 819 1455 819 1455 894 1448 c 128,-1,10
 969 1441 969 1441 1040.5 1422.5 c 0,11,12
 1199.8652181 1381.26564287 1199.8652181 1381.26564287 1286.93260905 1286.63282143 c 0,13,14
 1490.35362183 1065.53621834 1490.35362183 1065.53621834 1450 662 c 0,15,16
 1430.6684492 468.684491979 1430.6684492 468.684491979 1345 324 c 0,17,18
 1231.58158834 132.448904757 1231.58158834 132.448904757 927.5 48.5 c 0,19,20
 705.653176019 -12.7460557004 705.653176019 -12.7460557004 460.5 2 c 0,21,22
 365.882132834 7.69130028064 365.882132834 7.69130028064 296 47 c 1,23,24
 195.55 5.385 195.55 5.385 94 2 c 0,25,26
 64 1 64 1 35 -4 c 1,27,28
 60 13 60 13 84.5 30 c 128,-1,29
 109 47 109 47 134 64 c 1,30,31
 164 69 164 69 194.5 71.5 c 128,-1,32
 225 74 225 74 256 77 c 1,33,-1
 259 80 l 1,34,-1
 259 1320 l 1,35,36
 209.199819982 1364.46444644 209.199819982 1364.46444644 162.599909991 1374.73222322 c 0,37,38
 102.384615385 1388 102.384615385 1388 16 1388 c 1,39,-1
 157 1462 l 1,0,1
1272.5 601.5 m 0,40,41
 1315.48054047 1059.11634269 1315.48054047 1059.11634269 1067 1257.5 c 0,42,43
 909.808080808 1383 909.808080808 1383 599.5 1383 c 0,44,45
 515 1383 515 1383 437 1380 c 1,46,-1
 437 138 l 1,47,48
 545.221562809 64.7912957468 545.221562809 64.7912957468 734 74 c 0,49,50
 894.67636787 78.1199068685 894.67636787 78.1199068685 953.838183935 96.5599534342 c 0,51,52
 1159.28098765 160.594074074 1159.28098765 160.594074074 1238 424 c 0,53,54
 1264 511 1264 511 1272.5 601.5 c 0,40,41
EndSplineSet
EndChar

StartChar: b
Encoding: 69 69 41
Width: 1216
Flags: W
LayerCount: 2
Fore
SplineSet
879 1458 m 1,0,-1
 993 1451 l 1,1,2
 1075.53333333 1451 1075.53333333 1451 1105 1417 c 0,3,4
 1116 1406 1116 1406 1117.5 1388.5 c 128,-1,5
 1119 1371 1119 1371 1122.5 1341 c 128,-1,6
 1126 1311 1126 1311 1131.5 1267 c 128,-1,7
 1137 1223 1137 1223 1141 1178 c 1,8,-1
 963 1117 l 1,9,10
 959 1162 959 1162 953.5 1206 c 128,-1,11
 948 1250 948 1250 944.5 1279 c 128,-1,12
 941 1308 941 1308 939.5 1323.5 c 128,-1,13
 938 1339 938 1339 927 1351.5 c 128,-1,14
 916 1364 916 1364 898 1369.5 c 128,-1,15
 880 1375 880 1375 859.5 1376 c 128,-1,16
 839 1377 839 1377 818.5 1376.5 c 128,-1,17
 798 1376 798 1376 755.5 1380 c 0,18,19
 704.650563607 1384.78582931 704.650563607 1384.78582931 599.825281804 1382.89291465 c 128,-1,20
 495 1381 495 1381 472.5 1382 c 128,-1,21
 450 1383 450 1383 438 1383.5 c 128,-1,22
 426 1384 426 1384 426 1383.5 c 128,-1,23
 426 1383 426 1383 425 1383 c 2,24,-1
 421 1381 l 1,25,-1
 421 796 l 1,26,-1
 848 796 l 1,27,28
 852 825 852 825 854.5 855.5 c 128,-1,29
 857 886 857 886 861 916 c 1,30,-1
 1039 977 l 1,31,32
 1036 946 1036 946 1033 915 c 128,-1,33
 1030 884 1030 884 1026.5 860.5 c 128,-1,34
 1023 837 1023 837 1016.5 822 c 128,-1,35
 1010 807 1010 807 1010 791.5 c 128,-1,36
 1010 776 1010 776 1017 761.5 c 128,-1,37
 1024 747 1024 747 1027.5 723 c 128,-1,38
 1031 699 1031 699 1033.5 666.5 c 128,-1,39
 1036 634 1036 634 1039 602 c 1,40,-1
 861 541 l 1,41,42
 858 573 858 573 855.5 605.5 c 128,-1,43
 853 638 853 638 849.5 660.5 c 128,-1,44
 846 683 846 683 840 695.5 c 128,-1,45
 834 708 834 708 832 722 c 1,46,-1
 421 722 l 1,47,-1
 421 231 l 2,48,49
 421 221 421 221 419.5 208 c 128,-1,50
 418 195 418 195 417 182 c 0,51,52
 411.070175439 104.912280702 411.070175439 104.912280702 527.5 87 c 0,53,54
 694 61.3846153846 694 61.3846153846 936 80 c 0,55,56
 962 82 962 82 988 84 c 1,57,-1
 1001 127 l 2,58,59
 1031 228.538461538 1031 228.538461538 1031 306 c 1,60,-1
 1209 367 l 1,61,62
 1209 283.5 1209 283.5 1195.5 240.75 c 0,63,64
 1173.42857143 170.857142857 1173.42857143 170.857142857 1172.71428571 166.928571429 c 2,65,-1
 1161 128 l 1,66,67
 1137.57142857 57.7142857143 1137.57142857 57.7142857143 959 22 c 0,68,69
 904 11 904 11 836 11 c 1,70,71
 644.929133858 -6.37007874016 644.929133858 -6.37007874016 568.464566929 -2.68503937008 c 128,-1,72
 492 1 492 1 463 3.5 c 128,-1,73
 434 6 434 6 412 8 c 128,-1,74
 390 10 390 10 366 13.5 c 0,75,76
 311.671641791 21.4228855721 311.671641791 21.4228855721 278 42 c 1,77,78
 202.502439024 9.97073170732 202.502439024 9.97073170732 134.751219512 5.98536585366 c 128,-1,79
 67 2 67 2 19 -3 c 1,80,-1
 141 69 l 1,81,82
 167 72 167 72 194.5 71 c 128,-1,83
 222 70 222 70 244 83 c 1,84,85
 238 104 238 104 240.5 126 c 128,-1,86
 243 148 243 148 243 170 c 2,87,-1
 243 1320 l 1,88,89
 170.324596774 1382.65120968 170.324596774 1382.65120968 68.5 1387.5 c 0,90,91
 37 1389 37 1389 0 1389 c 1,92,-1
 141 1463 l 1,93,94
 192 1463 192 1463 244 1460.5 c 128,-1,95
 296 1458 296 1458 324 1446 c 0,96,97
 364.090909091 1428.81818182 364.090909091 1428.81818182 375 1422 c 1,98,99
 468.42961165 1459.81674757 468.42961165 1459.81674757 551.214805825 1457.90837379 c 128,-1,100
 634 1456 634 1456 715.5 1458.5 c 128,-1,101
 797 1461 797 1461 879 1458 c 1,0,-1
EndSplineSet
EndChar

StartChar: c
Encoding: 70 70 42
Width: 1188
Flags: W
LayerCount: 2
Fore
SplineSet
505 1386 m 2,0,1
 494 1386 494 1386 474.5 1386.5 c 128,-1,2
 455 1387 455 1387 453 1387 c 2,3,-1
 449 1385 l 1,4,-1
 449 774 l 1,5,-1
 876 774 l 1,6,7
 881 804 881 804 883 835 c 128,-1,8
 885 866 885 866 889 897 c 1,9,-1
 1067 958 l 1,10,11
 1064 926 1064 926 1061 894 c 128,-1,12
 1058 862 1058 862 1054.5 838.5 c 128,-1,13
 1051 815 1051 815 1044 800.5 c 128,-1,14
 1037 786 1037 786 1037 769.5 c 128,-1,15
 1037 753 1037 753 1044 737.5 c 128,-1,16
 1051 722 1051 722 1054.5 698 c 0,17,18
 1058.2625 672.2 1058.2625 672.2 1067 579 c 1,19,-1
 889 518 l 1,20,21
 885 550 885 550 882.5 581 c 128,-1,22
 880 612 880 612 876 635 c 128,-1,23
 872 658 872 658 866.5 672 c 128,-1,24
 861 686 861 686 859 700 c 1,25,-1
 449 700 l 1,26,-1
 449 238 l 2,27,28
 449 208 449 208 448 184.5 c 128,-1,29
 447 161 447 161 453.5 143 c 0,30,31
 470.871205152 94.895124195 470.871205152 94.895124195 563 80.5 c 0,32,33
 611 73 611 73 652.5 73 c 2,34,-1
 714 73 l 1,35,36
 662 44.7714285714 662 44.7714285714 573 -1 c 1,37,38
 538 -1 538 -1 503.5 -1.5 c 128,-1,39
 469 -2 469 -2 443 1.5 c 0,40,41
 332.644444444 16.3555555556 332.644444444 16.3555555556 307 42 c 0,42,43
 304 45 304 45 301 47 c 0,44,45
 181 -1 181 -1 28 -1 c 1,46,47
 117 44.7714285714 117 44.7714285714 169 73 c 1,48,49
 221.5 73 221.5 73 253 76 c 1,50,-1
 261 76 l 1,51,-1
 273 87 l 1,52,53
 268 106 268 106 269.5 128.5 c 128,-1,54
 271 151 271 151 271 177 c 2,55,-1
 271 1324 l 1,56,57
 198.383064516 1386.60080645 198.383064516 1386.60080645 95.5 1391.5 c 0,58,59
 64 1393 64 1393 28 1393 c 1,60,-1
 169 1467 l 1,61,62
 220 1467 220 1467 272 1464.5 c 0,63,64
 339.286089239 1461.26509186 339.286089239 1461.26509186 401 1426 c 1,65,66
 489.535211268 1463.94366197 489.535211268 1463.94366197 577 1462 c 0,67,68
 604 1462 604 1462 630.5 1460.5 c 128,-1,69
 657 1459 657 1459 696.5 1460 c 128,-1,70
 736 1461 736 1461 787.5 1463 c 128,-1,71
 839 1465 839 1465 877.5 1463.5 c 128,-1,72
 916 1462 916 1462 940.5 1460 c 128,-1,73
 965 1458 965 1458 986 1456 c 128,-1,74
 1007 1454 1007 1454 1028 1454 c 128,-1,75
 1049 1454 1049 1454 1069.5 1452 c 0,76,77
 1117.1634103 1447.34991119 1117.1634103 1447.34991119 1133.08170515 1428.6749556 c 128,-1,78
 1149 1410 1149 1410 1151 1395 c 128,-1,79
 1153 1380 1153 1380 1157.5 1350.5 c 0,80,81
 1169.82840237 1269.68047337 1169.82840237 1269.68047337 1177 1189 c 1,82,-1
 999 1128 l 1,83,84
 988.311111111 1245.57777778 988.311111111 1245.57777778 981.155555556 1279.28888889 c 128,-1,85
 974 1313 974 1313 973.5 1326 c 128,-1,86
 973 1339 973 1339 967.5 1349 c 128,-1,87
 962 1359 962 1359 952 1365 c 128,-1,88
 942 1371 942 1371 930 1374 c 0,89,90
 906 1380 906 1380 885 1380 c 2,91,-1
 834 1382 l 1,92,-1
 823.5 1382 l 1,93,-1
 668 1390 l 1,94,-1
 505 1386 l 2,0,1
EndSplineSet
EndChar

StartChar: d
Encoding: 71 71 43
Width: 1503
Flags: W
LayerCount: 2
Fore
SplineSet
1151 228.5 m 1,0,-1
 1145 416 l 2,1,2
 1145 429 1145 429 1147.5 445.5 c 128,-1,3
 1150 462 1150 462 1150.5 478.5 c 0,4,5
 1153.36179388 572.93919793 1153.36179388 572.93919793 1009 591.5 c 0,6,7
 974 596 974 596 938 595 c 128,-1,8
 902 594 902 594 868 594 c 1,9,-1
 1009 668 l 1,10,11
 1043 668 1043 668 1080 669 c 128,-1,12
 1117 670 1117 670 1153 666.5 c 0,13,14
 1237.23834989 658.310160428 1237.23834989 658.310160428 1286 623 c 1,15,16
 1393.60869565 668 1393.60869565 668 1516 668 c 1,17,18
 1464 639.771428571 1464 639.771428571 1375 594 c 1,19,20
 1361 594 1361 594 1326 589 c 1,21,-1
 1321 584 l 1,22,23
 1333.11764706 559.764705882 1333.11764706 559.764705882 1327.55882353 516.882352941 c 128,-1,24
 1322 474 1322 474 1323.5 440.5 c 128,-1,25
 1325 407 1325 407 1328 369 c 128,-1,26
 1331 331 1331 331 1329.5 300 c 0,27,28
 1324.85425101 203.987854251 1324.85425101 203.987854251 1305.92712551 166.993927126 c 128,-1,29
 1287 130 1287 130 1267 107.5 c 128,-1,30
 1247 85 1247 85 1213.5 66 c 128,-1,31
 1180 47 1180 47 1143 33 c 0,32,33
 990.376740685 -24.7493413624 990.376740685 -24.7493413624 797.5 -29.5 c 0,34,35
 582.754273404 -34.7893036107 582.754273404 -34.7893036107 419 62.5 c 0,36,37
 272.63476164 149.458171026 272.63476164 149.458171026 197.5 319.5 c 0,38,39
 188 341 188 341 180.5 364.5 c 128,-1,40
 173 388 173 388 166.5 407.5 c 128,-1,41
 160 427 160 427 155 445 c 0,42,43
 119.581980519 572.50487013 119.581980519 572.50487013 125.29099026 708.252435065 c 128,-1,44
 131 844 131 844 157.5 947 c 0,45,46
 216.647933626 1176.89574202 216.647933626 1176.89574202 364 1300 c 0,47,48
 497.438356164 1411.85273973 497.438356164 1411.85273973 705 1460.5 c 0,49,50
 925.790742527 1512.24783028 925.790742527 1512.24783028 1150 1461 c 0,51,52
 1275.1226158 1432.40054496 1275.1226158 1432.40054496 1333 1364 c 0,53,54
 1352.26582278 1344.73417722 1352.26582278 1344.73417722 1359.13291139 1260.36708861 c 128,-1,55
 1366 1176 1366 1176 1376 1133 c 1,56,-1
 1198 1072 l 1,57,58
 1188 1114 1188 1114 1184 1157 c 128,-1,59
 1180 1200 1180 1200 1175.5 1228 c 0,60,61
 1166.22222222 1285.72839506 1166.22222222 1285.72839506 1157 1297 c 0,62,63
 1089.32966457 1376.61215933 1089.32966457 1376.61215933 875.5 1408 c 0,64,65
 759.291005291 1425.05820106 759.291005291 1425.05820106 681.645502646 1409.52910053 c 128,-1,66
 604 1394 604 1394 563 1367 c 0,67,68
 424.080694771 1275.51655509 424.080694771 1275.51655509 353 1063.5 c 0,69,70
 260.341921893 787.123318749 260.341921893 787.123318749 333.5 508.5 c 0,71,72
 384.674954955 313.59963964 384.674954955 313.59963964 503 201 c 0,73,74
 655.657574724 57.2178656666 655.657574724 57.2178656666 909 44 c 0,75,76
 995.443298969 39.5670103093 995.443298969 39.5670103093 1064 54 c 2,77,-1
 1093 60 l 1,78,79
 1151 115.47826087 1151 115.47826087 1151 228.5 c 1,0,-1
1072 47 m 1,80,81
 1070 45 1070 45 1072.5 46 c 128,-1,82
 1075 47 1075 47 1077 49 c 1,83,-1
 1072 47 l 1,80,81
EndSplineSet
EndChar

StartChar: e
Encoding: 72 72 44
Width: 1634
Flags: W
LayerCount: 2
Fore
SplineSet
452 1388 m 1,0,1
 453.2 1385.6 453.2 1385.6 446 1382 c 1,2,-1
 446 797 l 1,3,-1
 1185 797 l 1,4,-1
 1185 1321 l 1,5,6
 1109.69779507 1385.9156939 1109.69779507 1385.9156939 1011 1389 c 0,7,8
 979 1390 979 1390 941 1390 c 1,9,-1
 1082 1464 l 1,10,11
 1133 1464 1133 1464 1185.5 1462 c 0,12,13
 1265.04545455 1458.96969697 1265.04545455 1458.96969697 1328 1417 c 1,14,15
 1445.5 1464 1445.5 1464 1597 1464 c 1,16,17
 1545 1435.77142857 1545 1435.77142857 1456 1390 c 1,18,-1
 1412.5 1390 l 2,19,20
 1372 1390 1372 1390 1363 1381 c 1,21,-1
 1363 235 l 2,22,23
 1363 207 1363 207 1362 184 c 128,-1,24
 1361 161 1361 161 1367 142.5 c 0,25,26
 1381.94797688 96.4104046243 1381.94797688 96.4104046243 1451.5 82.5 c 0,27,28
 1459 81 1459 81 1467 79 c 0,29,30
 1503 70 1503 70 1597 70 c 1,31,32
 1545 41.7714285714 1545 41.7714285714 1456 -4 c 1,33,34
 1270.75 -4 1270.75 -4 1212 43 c 1,35,36
 1096.30769231 -4 1096.30769231 -4 941 -4 c 1,37,38
 1030 41.7714285714 1030 41.7714285714 1082 70 c 1,39,40
 1135.5 70 1135.5 70 1167 73 c 1,41,-1
 1175 73 l 1,42,-1
 1188 84 l 1,43,44
 1185 94.8 1185 94.8 1185 174 c 2,45,-1
 1185 723 l 1,46,-1
 446 723 l 1,47,-1
 446 235 l 2,48,49
 446 207 446 207 445 184.5 c 128,-1,50
 444 162 444 162 449.5 143.5 c 0,51,52
 463.471264368 96.5057471264 463.471264368 96.5057471264 533.5 82.5 c 0,53,54
 541 81 541 81 549 79 c 0,55,56
 585 70 585 70 677 70 c 1,57,58
 625 41.7714285714 625 41.7714285714 536 -4 c 1,59,60
 349.833333333 -4 349.833333333 -4 295 43 c 1,61,62
 179.307692308 -4 179.307692308 -4 24 -4 c 1,63,64
 113 41.7714285714 113 41.7714285714 165 70 c 1,65,66
 218.5 70 218.5 70 250 73 c 1,67,-1
 256 73 l 1,68,69
 265 79 265 79 270 84 c 1,70,71
 268 93 268 93 268 174 c 2,72,-1
 268 1321 l 1,73,74
 195.260409782 1383.70654329 195.260409782 1383.70654329 93 1388.5 c 0,75,76
 61 1390 61 1390 24 1390 c 1,77,-1
 165 1464 l 1,78,79
 217 1464 217 1464 269 1461.5 c 0,80,81
 350.604719764 1457.57669617 350.604719764 1457.57669617 410 1416 c 1,82,-1
 411 1417 l 1,83,84
 518.428571429 1464 518.428571429 1464 677 1464 c 1,85,86
 625 1435.77142857 625 1435.77142857 536 1390 c 1,87,88
 515 1390 515 1390 494 1390 c 128,-1,89
 473 1390 473 1390 452 1388 c 1,0,1
EndSplineSet
EndChar

StartChar: f
Encoding: 73 73 45
Width: 715
Flags: W
LayerCount: 2
Fore
SplineSet
272 88 m 1,0,1
 269 98.8 269 98.8 269 178 c 2,2,-1
 269 1326 l 1,3,4
 217.712871287 1371.79207921 217.712871287 1371.79207921 171.856435644 1381.8960396 c 0,5,6
 116.923076923 1394 116.923076923 1394 26 1394 c 1,7,-1
 167 1468 l 1,8,9
 218 1468 218 1468 270.5 1466 c 128,-1,10
 323 1464 323 1464 352.5 1451.5 c 0,11,12
 389.239263804 1435.93251534 389.239263804 1435.93251534 412 1420 c 1,13,14
 533.846153846 1468 533.846153846 1468 682 1468 c 1,15,16
 630 1439.77142857 630 1439.77142857 541 1394 c 1,17,18
 486 1394 486 1394 453 1391 c 1,19,-1
 447 1385 l 1,20,-1
 447 239 l 2,21,22
 447 211 447 211 446 188 c 128,-1,23
 445 165 445 165 451 146.5 c 0,24,25
 465.947976879 100.410404624 465.947976879 100.410404624 535.5 86.5 c 0,26,27
 543 85 543 85 551 83 c 0,28,29
 587 74 587 74 682 74 c 1,30,31
 630 45.7714285714 630 45.7714285714 541 0 c 1,32,33
 354.75 0 354.75 0 296 47 c 1,34,35
 180.307692308 7.1054273576e-15 180.307692308 7.1054273576e-15 26 0 c 1,36,37
 115 45.7714285714 115 45.7714285714 167 74 c 1,38,39
 220.5 74 220.5 74 252 77 c 1,40,-1
 259 77 l 1,41,-1
 272 88 l 1,0,1
EndSplineSet
EndChar

StartChar: g
Encoding: 74 74 46
Width: 717
Flags: W
LayerCount: 2
Fore
SplineSet
471 1378 m 1,0,-1
 465 1372 l 1,1,2
 465 1180 465 1180 463 989.5 c 128,-1,3
 461 799 461 799 464 652 c 0,4,5
 470.152573529 350.523897059 470.152573529 350.523897059 461.076286765 243.261948529 c 128,-1,6
 452 136 452 136 434.5 69.5 c 128,-1,7
 417 3 417 3 378 -46.5 c 0,8,9
 270.294298921 -183.203389831 270.294298921 -183.203389831 5 -244 c 1,10,-1
 78 -182 l 1,11,-1
 114 -173 l 1,12,13
 121 -170 121 -170 127.5 -166 c 128,-1,14
 134 -162 134 -162 149 -151.5 c 0,15,16
 267.773584906 -68.358490566 267.773584906 -68.358490566 281.5 159.5 c 0,17,18
 291.197159566 320.472848789 291.197159566 320.472848789 289.098579783 411.236424394 c 128,-1,19
 287 502 287 502 287 590 c 2,20,-1
 287 1312 l 1,21,22
 234.840103717 1358.76404494 234.840103717 1358.76404494 188.920051858 1368.88202247 c 0,23,24
 133.923076923 1381 133.923076923 1381 43 1381 c 1,25,-1
 184 1455 l 1,26,27
 236 1455 236 1455 288.5 1453 c 128,-1,28
 341 1451 341 1451 370.5 1438.5 c 0,29,30
 407.239263804 1422.93251534 407.239263804 1422.93251534 430 1407 c 1,31,32
 551.846153846 1455 551.846153846 1455 700 1455 c 1,33,34
 648 1426.77142857 648 1426.77142857 559 1381 c 1,35,36
 504 1381 504 1381 471 1378 c 1,0,-1
EndSplineSet
EndChar

StartChar: h
Encoding: 75 75 47
Width: 1347
Flags: W
LayerCount: 2
Fore
SplineSet
489 801 m 1,0,-1
 497 800 l 1,1,-1
 504 800 l 1,2,3
 518 849 518 849 551.5 887.5 c 128,-1,4
 585 926 585 926 626 965 c 128,-1,5
 667 1004 667 1004 708 1050.5 c 0,6,7
 791.447058824 1145.14117647 791.447058824 1145.14117647 838.223529412 1186.07058824 c 128,-1,8
 885 1227 885 1227 902.5 1250 c 0,9,10
 942.151898734 1302.11392405 942.151898734 1302.11392405 948.575949367 1325.05696203 c 128,-1,11
 955 1348 955 1348 963 1359 c 1,12,-1
 972 1362 l 1,13,14
 959 1367 959 1367 949 1376 c 128,-1,15
 939 1385 939 1385 920.5 1388.5 c 128,-1,16
 902 1392 902 1392 877.5 1391.5 c 128,-1,17
 853 1391 853 1391 829 1393 c 1,18,-1
 986 1466 l 1,19,20
 1013 1464 1013 1464 1039.5 1464.5 c 128,-1,21
 1066 1465 1066 1465 1082 1462 c 128,-1,22
 1098 1459 1098 1459 1103.5 1455.5 c 128,-1,23
 1109 1452 1109 1452 1114 1448 c 0,24,25
 1131.87610619 1433.69911504 1131.87610619 1433.69911504 1147.9380531 1437.34955752 c 128,-1,26
 1164 1441 1164 1441 1176.5 1444 c 0,27,28
 1224.24590164 1455.45901639 1224.24590164 1455.45901639 1293.62295082 1459.2295082 c 128,-1,29
 1363 1463 1363 1463 1409 1467 c 1,30,31
 1357 1438.77142857 1357 1438.77142857 1268 1393 c 1,32,33
 1232 1390 1232 1390 1196.5 1388.5 c 128,-1,34
 1161 1387 1161 1387 1125 1384 c 1,35,36
 1106.48571429 1325.37142857 1106.48571429 1325.37142857 1046.5 1270 c 0,37,38
 949.452173913 1180.4173913 949.452173913 1180.4173913 900.226086957 1123.20869565 c 128,-1,39
 851 1066 851 1066 837 1052.5 c 128,-1,40
 823 1039 823 1039 816.5 1032 c 0,41,42
 804.3125 1018.875 804.3125 1018.875 804.15625 1018.4375 c 128,-1,43
 804 1018 804 1018 796.5 1011.5 c 0,44,45
 707.90625 934.71875 707.90625 934.71875 690.453125 882.359375 c 128,-1,46
 673 830 673 830 667 784 c 1,47,-1
 666 783 l 1,48,-1
 670 780 l 1,49,-1
 671 780 l 1,50,51
 720 696 720 696 780 620.5 c 128,-1,52
 840 545 840 545 886 482 c 128,-1,53
 932 419 932 419 973.5 365 c 128,-1,54
 1015 311 1015 311 1062 260 c 0,55,56
 1202.42809735 107.620575221 1202.42809735 107.620575221 1332.5 78.5 c 0,57,58
 1366 71 1366 71 1389.5 66.5 c 128,-1,59
 1413 62 1413 62 1425 57 c 1,60,-1
 1256 -14 l 1,61,-1
 1243 -11 l 1,62,63
 1220.42857143 -11 1220.42857143 -11 1164.71428571 7 c 128,-1,64
 1109 25 1109 25 1080 39.5 c 0,65,66
 957 101 957 101 833.5 253 c 0,67,68
 775 325 775 325 719.5 401 c 128,-1,69
 664 477 664 477 604 553 c 128,-1,70
 544 629 544 629 495 713 c 1,71,-1
 500 715 l 1,72,73
 472 715 472 715 447 718 c 1,74,-1
 447 254 l 2,75,76
 447 225 447 225 445 200 c 128,-1,77
 443 175 443 175 448.5 154 c 0,78,79
 462.67839196 99.864321608 462.67839196 99.864321608 534.5 85.5 c 0,80,81
 542 84 542 84 550 82 c 0,82,83
 586 73 586 73 678 73 c 1,84,85
 626 44.7714285714 626 44.7714285714 537 -1 c 1,86,87
 350.833333333 -1 350.833333333 -1 296 46 c 1,88,89
 180.307692308 -1 180.307692308 -1 25 -1 c 1,90,91
 114 44.7714285714 114 44.7714285714 166 73 c 1,92,93
 219.5 73 219.5 73 251 76 c 1,94,-1
 257 76 l 1,95,-1
 271 87 l 1,96,97
 266 109 266 109 267.5 135 c 128,-1,98
 269 161 269 161 269 193 c 2,99,-1
 269 666 l 1,100,-1
 267 706 l 1,101,102
 267 730 267 730 288 744 c 1,103,-1
 269 738 l 1,104,-1
 269 1324 l 1,105,106
 196.317911434 1386.6569729 196.317911434 1386.6569729 93 1391.5 c 0,107,108
 61 1393 61 1393 25 1393 c 1,109,-1
 166 1467 l 1,110,111
 217 1467 217 1467 269.5 1464.5 c 0,112,113
 351.583941606 1460.59124088 351.583941606 1460.59124088 411 1419 c 1,114,-1
 412 1420 l 1,115,116
 519.428571429 1467 519.428571429 1467 678 1467 c 1,117,118
 626 1438.77142857 626 1438.77142857 537 1393 c 1,119,120
 516 1393 516 1393 495 1393 c 128,-1,121
 474 1393 474 1393 453 1391 c 1,122,123
 454.2 1388.6 454.2 1388.6 447 1385 c 1,124,-1
 447 802 l 1,125,-1
 462 802 l 1,126,-1
 489 801 l 1,0,-1
528 725 m 1,127,-1
 527 725 l 1,128,-1
 528 725 l 1,127,-1
EndSplineSet
EndChar

StartChar: i
Encoding: 76 76 48
Width: 1163
Flags: W
LayerCount: 2
Fore
SplineSet
433 7 m 1,0,1
 337.705882353 16.5294117647 337.705882353 16.5294117647 301 41 c 1,2,3
 208.193277311 4.43977591036 208.193277311 4.43977591036 105 1 c 0,4,5
 75 0 75 0 45 -5 c 1,6,7
 70 12 70 12 94.5 29 c 128,-1,8
 119 46 119 46 144 63 c 1,9,10
 211.6 76 211.6 76 237.3 76 c 128,-1,11
 263 76 263 76 268 77 c 1,12,-1
 273 81 l 1,13,14
 267 101 267 101 268.5 125.5 c 128,-1,15
 270 150 270 150 270 179 c 2,16,-1
 270 1318 l 1,17,18
 197.317911434 1380.6569729 197.317911434 1380.6569729 94 1385.5 c 0,19,20
 62 1387 62 1387 26 1387 c 1,21,-1
 167 1461 l 1,22,23
 218 1461 218 1461 270.5 1458.5 c 128,-1,24
 323 1456 323 1456 352 1443.5 c 0,25,26
 390.469387755 1426.91836735 390.469387755 1426.91836735 401.734693878 1420.45918367 c 128,-1,27
 413 1414 413 1414 417 1416 c 0,28,29
 520.965517241 1461 520.965517241 1461 694 1461 c 1,30,31
 642 1432.77142857 642 1432.77142857 553 1387 c 1,32,33
 458 1387 458 1387 456 1384 c 128,-1,34
 454 1381 454 1381 452 1381 c 1,35,-1
 449 1379 l 2,36,37
 448 1379 448 1379 448 1378 c 2,38,-1
 448 240 l 2,39,40
 448 213 448 213 446.5 189.5 c 128,-1,41
 445 166 445 166 449.5 147 c 0,42,43
 461.270935961 97.3004926108 461.270935961 97.3004926108 554.5 86 c 0,44,45
 571 84 571 84 604 82 c 128,-1,46
 637 80 637 80 685 74.5 c 128,-1,47
 733 69 733 69 784.5 70 c 128,-1,48
 836 71 836 71 888 76.5 c 128,-1,49
 940 82 940 82 967 82 c 128,-1,50
 994 82 994 82 995 83 c 0,51,52
 1011.85393258 144.797752809 1011.85393258 144.797752809 1018.42696629 207.898876404 c 128,-1,53
 1025 271 1025 271 1039 319 c 1,54,-1
 1217 380 l 1,55,56
 1207.1369863 347.945205479 1207.1369863 347.945205479 1201.56849315 295.97260274 c 0,57,58
 1191.65517241 203.448275862 1191.65517241 203.448275862 1182.82758621 176.224137931 c 128,-1,59
 1174 149 1174 149 1169.5 132 c 128,-1,60
 1165 115 1165 115 1148 97 c 128,-1,61
 1131 79 1131 79 1093 61.5 c 128,-1,62
 1055 44 1055 44 1012.5 32 c 0,63,64
 931.041666667 9 931.041666667 9 855 9 c 1,65,66
 826 0 826 0 790.5 0.5 c 128,-1,67
 755 1 755 1 703.5 -2.5 c 128,-1,68
 652 -6 652 -6 578 -6 c 128,-1,69
 504 -6 504 -6 433 7 c 1,0,1
EndSplineSet
EndChar

StartChar: j
Encoding: 77 77 49
Width: 1933
Flags: W
LayerCount: 2
Fore
SplineSet
1490 88 m 1,0,1
 1488 97 1488 97 1488 178 c 2,2,-1
 1488 1244 l 1,3,-1
 1474 1210 l 1,4,5
 1460 1179 1460 1179 1446.5 1149.5 c 128,-1,6
 1433 1120 1433 1120 1401 1040.5 c 128,-1,7
 1369 961 1369 961 1312 836.5 c 128,-1,8
 1255 712 1255 712 1218.5 626.5 c 128,-1,9
 1182 541 1182 541 1163.5 498.5 c 128,-1,10
 1145 456 1145 456 1131.5 424 c 128,-1,11
 1118 392 1118 392 1110.5 371.5 c 128,-1,12
 1103 351 1103 351 1087 332.5 c 0,13,14
 1061.22687609 302.69982548 1061.22687609 302.69982548 996 274 c 1,15,-1
 996 103 l 1,16,-1
 818 42 l 1,17,-1
 818 220 l 1,18,19
 800 238 800 238 791 260 c 128,-1,20
 782 282 782 282 762.5 323 c 128,-1,21
 743 364 743 364 719.5 423.5 c 128,-1,22
 696 483 696 483 657.5 573 c 128,-1,23
 619 663 619 663 568.5 781.5 c 128,-1,24
 518 900 518 900 482.5 981 c 128,-1,25
 447 1062 447 1062 427.5 1104 c 128,-1,26
 408 1146 408 1146 390 1190 c 1,27,-1
 390 1019 l 1,28,-1
 384 583 l 1,29,30
 385 531 385 531 388 479 c 128,-1,31
 391 427 391 427 393 377 c 0,32,33
 398.367346939 242.816326531 398.367346939 242.816326531 392.183673469 195.408163265 c 128,-1,34
 386 148 386 148 387 136 c 0,35,36
 389.338582677 107.937007874 389.338582677 107.937007874 402.169291339 102.468503937 c 128,-1,37
 415 97 415 97 421 95.5 c 128,-1,38
 427 94 427 94 433 92 c 1,39,-1
 437.5 92 l 2,40,41
 440 92 440 92 439 91 c 1,42,-1
 441 91 l 2,43,44
 448.5 91 448.5 91 462.75 87.5 c 0,45,46
 477.341317365 83.9161676647 477.341317365 83.9161676647 511.670658683 82.4580838323 c 0,47,48
 583.000445831 79.4284652782 583.000445831 79.4284652782 610 73 c 1,49,-1
 441 2 l 1,50,51
 412 8 412 8 356.75 8 c 128,-1,52
 301.5 8 301.5 8 274 19 c 1,53,-1
 273 19 l 2,54,55
 259.666666667 19 259.666666667 19 234 30 c 1,56,57
 136 0 136 0 29 0 c 1,58,59
 118 45.7714285714 118 45.7714285714 170 74 c 1,60,-1
 208 74 l 1,61,-1
 208 85.5 l 2,62,63
 208 104.4 208 104.4 211.5 156.2 c 128,-1,64
 215 208 215 208 216 255.5 c 128,-1,65
 217 303 217 303 213 359.5 c 128,-1,66
 209 416 209 416 206.5 491 c 0,67,68
 202.524590164 610.262295082 202.524590164 610.262295082 207.262295082 752.131147541 c 128,-1,69
 212 894 212 894 212 946 c 2,70,-1
 212 1209 l 2,71,72
 212 1227 212 1227 209 1248 c 128,-1,73
 206 1269 206 1269 215.5 1285 c 0,74,75
 227.497142857 1305.20571429 227.497142857 1305.20571429 260 1335 c 1,76,77
 242 1343 242 1343 227.5 1357.5 c 128,-1,78
 213 1372 213 1372 184.5 1384.5 c 128,-1,79
 156 1397 156 1397 111 1395.5 c 128,-1,80
 66 1394 66 1394 25 1394 c 1,81,-1
 166 1468 l 1,82,83
 211 1468 211 1468 258.5 1469 c 128,-1,84
 306 1470 306 1470 335.5 1460.5 c 128,-1,85
 365 1451 365 1451 378 1442.5 c 128,-1,86
 391 1434 391 1434 404 1425.5 c 0,87,88
 439.617886179 1402.21138211 439.617886179 1402.21138211 459.808943089 1401.60569106 c 128,-1,89
 480 1401 480 1401 494 1392.5 c 128,-1,90
 508 1384 508 1384 517.5 1370.5 c 128,-1,91
 527 1357 527 1357 533.5 1340.5 c 128,-1,92
 540 1324 540 1324 547 1308 c 2,93,-1
 616 1145 l 1,94,95
 628 1121 628 1121 664 1036.5 c 128,-1,96
 700 952 700 952 757.5 819 c 128,-1,97
 815 686 815 686 871 550 c 2,98,-1
 922 428 l 2,99,100
 929 413 929 413 937 396.5 c 128,-1,101
 945 380 945 380 947.5 370 c 128,-1,102
 950 360 950 360 951 358 c 1,103,-1
 1025 531 l 2,104,105
 1076 651 1076 651 1129 768.5 c 128,-1,106
 1182 886 1182 886 1218 970.5 c 128,-1,107
 1254 1055 1254 1055 1275.5 1103.5 c 128,-1,108
 1297 1152 1297 1152 1310 1185 c 128,-1,109
 1323 1218 1323 1218 1327.5 1234 c 128,-1,110
 1332 1250 1332 1250 1342.5 1267 c 128,-1,111
 1353 1284 1353 1284 1372 1299.5 c 128,-1,112
 1391 1315 1391 1315 1412.5 1327.5 c 0,113,114
 1464.90625 1357.96875 1464.90625 1357.96875 1506.953125 1371.984375 c 128,-1,115
 1549 1386 1549 1386 1550 1386 c 0,116,117
 1655.04347826 1438.52173913 1655.04347826 1438.52173913 1708.52173913 1450.26086957 c 0,118,119
 1789.33333333 1468 1789.33333333 1468 1897 1468 c 1,120,121
 1845 1439.77142857 1845 1439.77142857 1756 1394 c 1,122,123
 1736 1394 1736 1394 1716 1394 c 128,-1,124
 1696 1394 1696 1394 1676 1393 c 1,125,-1
 1666 1387 l 1,126,-1
 1666 239 l 2,127,128
 1666 211 1666 211 1665 188.5 c 128,-1,129
 1664 166 1664 166 1669.5 147.5 c 0,130,131
 1683.47126437 100.505747126 1683.47126437 100.505747126 1753.5 86.5 c 0,132,133
 1761 85 1761 85 1769 83 c 0,134,135
 1805 74 1805 74 1897 74 c 1,136,137
 1845 45.7714285714 1845 45.7714285714 1756 0 c 1,138,139
 1569.83333333 0 1569.83333333 0 1515 47 c 1,140,141
 1399.30769231 2.84217094304e-14 1399.30769231 2.84217094304e-14 1245 0 c 1,142,143
 1334 45.7714285714 1334 45.7714285714 1386 74 c 1,144,145
 1439.5 74 1439.5 74 1471 77 c 1,146,-1
 1478 77 l 1,147,-1
 1490 88 l 1,0,1
1552 1386 m 1,148,149
 1540 1381 1540 1381 1527.5 1376.5 c 0,150,151
 1506.66666667 1369 1506.66666667 1369 1495 1364 c 1,152,153
 1496 1364 1496 1364 1502.5 1366.5 c 128,-1,154
 1509 1369 1509 1369 1520.5 1372.5 c 128,-1,155
 1532 1376 1532 1376 1545 1381 c 1,156,-1
 1552 1386 l 1,148,149
1629.5 1367 m 1,157,-1
 1634 1369 l 1,158,-1
 1629.5 1367 l 1,157,-1
1711 1422 m 2,159,-1
 1709 1421 l 2,160,161
 1710 1421 1710 1421 1711 1422 c 2,159,-1
1516 1356 m 2,162,-1
 1517 1357 l 2,163,164
 1516 1357 1516 1357 1516 1356 c 2,162,-1
EndSplineSet
EndChar

StartChar: k
Encoding: 78 78 50
Width: 1597
Flags: W
LayerCount: 2
Fore
SplineSet
1218 523 m 1,0,-1
 1219 589 l 2,1,2
 1221.75714286 782 1221.75714286 782 1216.87857143 990 c 128,-1,3
 1212 1198 1212 1198 1215.5 1250 c 128,-1,4
 1219 1302 1219 1302 1214 1356 c 1,5,-1
 1223 1359 l 1,6,-1
 1216 1359 l 1,7,8
 1199 1360 1199 1360 1184.5 1369 c 128,-1,9
 1170 1378 1170 1378 1143 1382 c 128,-1,10
 1116 1386 1116 1386 1079 1387 c 128,-1,11
 1042 1388 1042 1388 1005 1390 c 1,12,-1
 1162 1463 l 1,13,14
 1201 1461 1201 1461 1240.5 1459.5 c 128,-1,15
 1280 1458 1280 1458 1306 1454.5 c 128,-1,16
 1332 1451 1332 1451 1344 1444.5 c 128,-1,17
 1356 1438 1356 1438 1365 1436.5 c 128,-1,18
 1374 1435 1374 1435 1377 1437 c 128,-1,19
 1380 1439 1380 1439 1388 1441 c 128,-1,20
 1396 1443 1396 1443 1408.5 1446.5 c 128,-1,21
 1421 1450 1421 1450 1445 1453 c 128,-1,22
 1469 1456 1469 1456 1503 1458.5 c 128,-1,23
 1537 1461 1537 1461 1571 1464 c 1,24,25
 1519 1435.77142857 1519 1435.77142857 1430 1390 c 1,26,-1
 1394 1387 l 1,27,28
 1396 1341 1396 1341 1393.5 1296.5 c 128,-1,29
 1391 1252 1391 1252 1392.5 1194 c 128,-1,30
 1394 1136 1394 1136 1396 1067 c 128,-1,31
 1398 998 1398 998 1399 920 c 128,-1,32
 1400 842 1400 842 1398.5 756.5 c 128,-1,33
 1397 671 1397 671 1396 584 c 1,34,-1
 1396 429 l 2,35,36
 1396 403 1396 403 1399 378 c 128,-1,37
 1402 353 1402 353 1401 329.5 c 0,38,39
 1398.72291467 275.988494727 1398.72291467 275.988494727 1360 244 c 1,40,41
 1322.4 206.4 1322.4 206.4 1370 118 c 1,42,-1
 1194 51 l 1,43,44
 1158.24390244 122.512195122 1158.24390244 122.512195122 1169 164 c 1,45,-1
 1160 160 l 1,46,47
 1072.53727945 208.334661355 1072.53727945 208.334661355 993.5 337 c 0,48,49
 931.365422397 438.149312377 931.365422397 438.149312377 864.182711198 532.074656189 c 128,-1,50
 797 626 797 626 755.5 686 c 128,-1,51
 714 746 714 746 689 782.5 c 128,-1,52
 664 819 664 819 640.5 852.5 c 0,53,54
 556.314705882 972.508823529 556.314705882 972.508823529 491.657352941 1070.75441176 c 128,-1,55
 427 1169 427 1169 385 1226 c 1,56,-1
 385 398 l 2,57,58
 385 346 385 346 384.5 294.5 c 128,-1,59
 384 243 384 243 385 206.5 c 128,-1,60
 386 170 386 170 383 148.5 c 0,61,62
 376.367713004 100.968609865 376.367713004 100.968609865 410 92 c 0,63,64
 458.805970149 78.9850746269 458.805970149 78.9850746269 509.902985075 76.4925373134 c 128,-1,65
 561 74 561 74 602 69 c 1,66,-1
 445 -4 l 1,67,68
 390 1 390 1 361 2.5 c 128,-1,69
 332 4 332 4 313 5.5 c 0,70,71
 281.395121951 7.99512195122 281.395121951 7.99512195122 234 30 c 1,72,73
 121.375 -4 121.375 -4 20 -4 c 1,74,-1
 161 70 l 1,75,76
 173 70 173 70 185 70 c 128,-1,77
 197 70 197 70 209 72 c 1,78,79
 207 138 207 138 207 204 c 2,80,-1
 207 1050 l 2,81,82
 207 1109 207 1109 204.5 1167.5 c 128,-1,83
 202 1226 202 1226 205.5 1257 c 128,-1,84
 209 1288 209 1288 211.5 1290 c 128,-1,85
 214 1292 214 1292 216 1294 c 2,86,-1
 250 1332 l 1,87,88
 186.672868217 1385.58449612 186.672868217 1385.58449612 82.5 1389 c 0,89,90
 52 1390 52 1390 20 1390 c 1,91,-1
 161 1464 l 1,92,93
 262.583333333 1464 262.583333333 1464 297.791666667 1457.5 c 0,94,95
 371.023715415 1443.98023715 371.023715415 1443.98023715 425 1399 c 1,96,97
 484.030640669 1394.08077994 484.030640669 1394.08077994 525.5 1341 c 0,98,99
 571.055555556 1282.68888889 571.055555556 1282.68888889 683.527777778 1115.84444444 c 128,-1,100
 796 949 796 949 901.5 798 c 128,-1,101
 1007 647 1007 647 1073.5 549.5 c 128,-1,102
 1140 452 1140 452 1165 410 c 128,-1,103
 1190 368 1190 368 1220 330 c 1,104,105
 1218 350 1218 350 1218 368 c 2,106,-1
 1218 523 l 1,0,-1
EndSplineSet
EndChar

StartChar: l
Encoding: 79 79 51
Width: 1487
Flags: W
LayerCount: 2
Fore
SplineSet
100 561.5 m 0,0,1
 64.5499013807 853.963313609 64.5499013807 853.963313609 163.5 1100.5 c 0,2,3
 193 1174 193 1174 252.5 1244.5 c 128,-1,4
 312 1315 312 1315 387.5 1364.5 c 0,5,6
 528.993453985 1457.26723142 528.993453985 1457.26723142 737 1483 c 0,7,8
 961.943396226 1509.08039377 961.943396226 1509.08039377 1131.5 1398.5 c 0,9,10
 1298.69876003 1289.45733042 1298.69876003 1289.45733042 1364 1042 c 0,11,12
 1419.62669731 831.204094422 1419.62669731 831.204094422 1383 585.5 c 0,13,14
 1343.84671533 322.846715328 1343.84671533 322.846715328 1178 157 c 0,15,16
 1133.22222222 112.222222222 1133.22222222 112.222222222 1055.61111111 71.1111111111 c 0,17,18
 829.376685096 -48.7267380308 829.376685096 -48.7267380308 592 -24 c 256,19,20
 320.707964602 4.25958702065 320.707964602 4.25958702065 192.5 247 c 0,21,22
 121.924488726 380.622968013 121.924488726 380.622968013 100 561.5 c 0,0,1
753.307692308 1408.83031674 m 128,-1,24
 706.615384615 1421.66063348 706.615384615 1421.66063348 652.807692308 1415.33031674 c 0,25,26
 587.368421053 1407.63157895 587.368421053 1407.63157895 552 1401 c 1,27,28
 538 1393 538 1393 524 1385.5 c 128,-1,29
 510 1378 510 1378 478.5 1353.5 c 128,-1,30
 447 1329 447 1329 410.5 1279 c 128,-1,31
 374 1229 374 1229 347.5 1173 c 0,32,33
 270.902274642 1011.13310868 270.902274642 1011.13310868 268 777.5 c 0,34,35
 264.747978437 515.712264151 264.747978437 515.712264151 369 313 c 0,36,37
 507.755905512 46 507.755905512 46 824 46 c 0,38,39
 912.666666667 46 912.666666667 46 951.333333333 68 c 128,-1,40
 990 90 990 90 1032 134.5 c 128,-1,41
 1074 179 1074 179 1106 232 c 0,42,43
 1167.26517572 333.470447284 1167.26517572 333.470447284 1187.13258786 431.235223642 c 128,-1,44
 1207 529 1207 529 1213.5 606.5 c 128,-1,45
 1220 684 1220 684 1217 763.5 c 128,-1,46
 1214 843 1214 843 1199.5 921.5 c 128,-1,47
 1185 1000 1185 1000 1156.5 1072.5 c 0,48,49
 1081.78203184 1262.57202426 1081.78203184 1262.57202426 923.5 1353.5 c 0,50,51
 885.239669421 1375.47933884 885.239669421 1375.47933884 842.619834711 1385.73966942 c 128,-1,23
 800 1396 800 1396 753.307692308 1408.83031674 c 128,-1,24
EndSplineSet
EndChar

StartChar: m
Encoding: 80 80 52
Width: 1209
Flags: W
LayerCount: 2
Fore
SplineSet
272 86 m 1,0,1
 269 98.75 269 98.75 269 172 c 2,2,-1
 269 610.5 l 2,3,4
 269 629 269 629 283 643 c 1,5,-1
 269 638 l 1,6,-1
 269 1322 l 1,7,8
 196.317911434 1384.6569729 196.317911434 1384.6569729 93 1389.5 c 0,9,10
 61 1391 61 1391 25 1391 c 1,11,-1
 166 1465 l 1,12,13
 217 1465 217 1465 269.5 1462.5 c 0,14,15
 351.583941606 1458.59124088 351.583941606 1458.59124088 411 1417 c 1,16,17
 497.970515971 1454.81326781 497.970515971 1454.81326781 566.485257985 1456.40663391 c 128,-1,18
 635 1458 635 1458 684 1458 c 128,-1,19
 733 1458 733 1458 788.5 1453.5 c 128,-1,20
 844 1449 844 1449 896 1434 c 0,21,22
 1092.68972746 1377.26257862 1092.68972746 1377.26257862 1135 1171 c 0,23,24
 1163.7424072 1030.8807649 1163.7424072 1030.8807649 1110.5 896 c 0,25,26
 1050.55373593 744.136131013 1050.55373593 744.136131013 834.5 662 c 0,27,28
 638.354466859 587.432276657 638.354466859 587.432276657 447 597 c 1,29,-1
 447 233 l 2,30,31
 447 214 447 214 444 194.5 c 128,-1,32
 441 175 441 175 448 148 c 128,-1,33
 455 121 455 121 487.5 103 c 0,34,35
 545.277777778 71 545.277777778 71 643.5 71 c 2,36,-1
 712 71 l 1,37,38
 660 42.7714285714 660 42.7714285714 571 -3 c 1,39,40
 536 -3 536 -3 501.5 -3.5 c 128,-1,41
 467 -4 467 -4 441 -0.5 c 0,42,43
 331.760456274 14.2053231939 331.760456274 14.2053231939 297 44 c 1,44,45
 181.307692308 -3 181.307692308 -3 25 -3 c 1,46,47
 114 42.7714285714 114 42.7714285714 166 71 c 1,48,49
 219.5 71 219.5 71 251 74 c 1,50,-1
 257 74 l 1,51,-1
 272 86 l 1,0,1
447 702 m 1,52,53
 472.052631579 703.789473684 472.052631579 703.789473684 488.026315789 695.894736842 c 128,-1,54
 504 688 504 688 513.5 686 c 128,-1,55
 523 684 523 684 534 681.5 c 128,-1,56
 545 679 545 679 555 677 c 128,-1,57
 565 675 565 675 578 673 c 128,-1,58
 591 671 591 671 625.5 670.5 c 128,-1,59
 660 670 660 670 695.5 672.5 c 0,60,61
 781.861070912 678.581765557 781.861070912 678.581765557 822.930535456 703.290882779 c 128,-1,62
 864 728 864 728 898 776.5 c 128,-1,63
 932 825 932 825 950 883 c 128,-1,64
 968 941 968 941 968.5 1004 c 128,-1,65
 969 1067 969 1067 953 1126 c 0,66,67
 880.660148348 1392.75320297 880.660148348 1392.75320297 543 1386 c 0,68,69
 493 1385 493 1385 447 1383 c 1,70,-1
 447 702 l 1,52,53
EndSplineSet
EndChar

StartChar: n
Encoding: 81 81 53
Width: 1487
Flags: W
LayerCount: 2
Fore
SplineSet
1159.5 -390 m 0,0,1
 961.051088271 -385.990931076 961.051088271 -385.990931076 813.5 -213 c 0,2,3
 799 -196 799 -196 784 -179.5 c 128,-1,4
 769 -163 769 -163 756.5 -146 c 0,5,6
 727.665511265 -106.785095321 727.665511265 -106.785095321 733 -73 c 1,7,-1
 725 -77 l 1,8,9
 694 -65 694 -65 665 -48.5 c 128,-1,10
 636 -32 636 -32 607.5 -25 c 128,-1,11
 579 -18 579 -18 554.5 -13.5 c 128,-1,12
 530 -9 530 -9 505.5 -4 c 0,13,14
 311.963687151 35.4972067039 311.963687151 35.4972067039 199 237 c 0,15,16
 90 430.777777778 90 430.777777778 90 708 c 0,17,18
 90 1020.86206897 90 1020.86206897 230.5 1219.5 c 0,19,20
 262.799401198 1265.16467066 262.799401198 1265.16467066 316.899700599 1314.58233533 c 128,-1,21
 371 1364 371 1364 427 1392.5 c 128,-1,22
 483 1421 483 1421 545.5 1442.5 c 0,23,24
 677.301186178 1487.83960805 677.301186178 1487.83960805 750.150593089 1488.91980402 c 128,-1,25
 823 1490 823 1490 856.5 1488 c 128,-1,26
 890 1486 890 1486 921.5 1481 c 0,27,28
 1052.55633101 1460.19740778 1052.55633101 1460.19740778 1126 1412 c 0,29,30
 1216.39175258 1352.68041237 1216.39175258 1352.68041237 1271.69587629 1261.34020619 c 128,-1,31
 1327 1170 1327 1170 1353 1085.5 c 128,-1,32
 1379 1001 1379 1001 1389 912.5 c 0,33,34
 1407.65783554 747.378155461 1407.65783554 747.378155461 1379 560 c 0,35,36
 1349.28874388 361.924959217 1349.28874388 361.924959217 1240 221 c 0,37,38
 1181.81114903 145.967007964 1181.81114903 145.967007964 1088 87 c 0,39,40
 1053 65 1053 65 1015 51 c 2,41,-1
 942 23 l 1,42,43
 940 20 940 20 932 15.5 c 128,-1,44
 924 11 924 11 918.5 3 c 0,45,46
 887.333333333 -42.3333333333 887.333333333 -42.3333333333 966 -121 c 0,47,48
 978 -133 978 -133 1003 -162.5 c 128,-1,49
 1028 -192 1028 -192 1072 -227 c 128,-1,50
 1116 -262 1116 -262 1165 -283.5 c 0,51,52
 1265.41449275 -327.55942029 1265.41449275 -327.55942029 1386 -312 c 1,53,-1
 1264 -384 l 1,54,55
 1209 -391 1209 -391 1159.5 -390 c 0,0,1
837 21 m 1,56,57
 850 27.5 850 27.5 934 59 c 1,58,59
 1081.14498141 127.12267658 1081.14498141 127.12267658 1157 334 c 0,60,61
 1214.1681736 489.913200723 1214.1681736 489.913200723 1218 693 c 0,62,63
 1221.49681529 873.085987261 1221.49681529 873.085987261 1167 1042.5 c 0,64,65
 1106.87030315 1229.42492715 1106.87030315 1229.42492715 959.5 1333.5 c 0,66,67
 854.09406657 1407.93921852 854.09406657 1407.93921852 691 1417 c 0,68,69
 649.24 1419.32 649.24 1419.32 627.12 1416.16 c 128,-1,70
 605 1413 605 1413 602.5 1413 c 128,-1,71
 600 1413 600 1413 596.5 1412 c 128,-1,72
 593 1411 593 1411 585 1410 c 2,73,-1
 554 1405 l 1,74,75
 493.333333333 1370.33333333 493.333333333 1370.33333333 470.666666667 1347.66666667 c 128,-1,76
 448 1325 448 1325 420 1291.5 c 128,-1,77
 392 1258 392 1258 362.5 1201.5 c 128,-1,78
 333 1145 333 1145 314 1084.5 c 0,79,80
 250.835699413 883.371569184 250.835699413 883.371569184 277 636 c 0,81,82
 300.657108239 412.33279483 300.657108239 412.33279483 408.5 252 c 0,83,84
 465 168 465 168 551 114 c 0,85,86
 606.721428571 79.4142857143 606.721428571 79.4142857143 673.860714286 67.2071428571 c 0,87,88
 785 47 785 47 837 21 c 1,56,57
547 1403 m 1,89,90
 539 1401 539 1401 549 1403 c 1,91,-1
 547 1403 l 1,89,90
EndSplineSet
EndChar

StartChar: o
Encoding: 82 82 54
Width: 1319
Flags: W
LayerCount: 2
Fore
SplineSet
272 86 m 1,0,1
 269 97.4 269 97.4 269 177 c 2,2,-1
 269 1323 l 1,3,4
 196.324596774 1385.65120968 196.324596774 1385.65120968 94.5 1390.5 c 0,5,6
 63 1392 63 1392 26 1392 c 1,7,-1
 167 1466 l 1,8,9
 218 1466 218 1466 270 1463.5 c 0,10,11
 351.604719764 1459.57669617 351.604719764 1459.57669617 411 1418 c 1,12,13
 505.661721068 1455.04154303 505.661721068 1455.04154303 564.830860534 1456.52077151 c 128,-1,14
 624 1458 624 1458 669.5 1458 c 128,-1,15
 715 1458 715 1458 768.5 1456 c 128,-1,16
 822 1454 822 1454 873.5 1443 c 0,17,18
 1055.43444659 1404.14021529 1055.43444659 1404.14021529 1105.5 1242.5 c 0,19,20
 1140.22105523 1130.40059311 1140.22105523 1130.40059311 1103 1011.5 c 0,21,22
 1054.79226069 857.50305499 1054.79226069 857.50305499 893 782 c 0,23,24
 878 775 878 775 870 771 c 128,-1,25
 862 767 862 767 861 767 c 0,26,27
 848.053140097 745.961352657 848.053140097 745.961352657 875.026570048 727.480676329 c 128,-1,28
 902 709 902 709 920.5 697 c 128,-1,29
 939 685 939 685 955 671.5 c 0,30,31
 1012.13864579 623.289267619 1012.13864579 623.289267619 1049.5 510 c 0,32,33
 1065.69587256 460.88993483 1065.69587256 460.88993483 1079.84793628 372.944967415 c 128,-1,34
 1094 285 1094 285 1107 244.5 c 0,35,36
 1136.60732984 152.261780105 1136.60732984 152.261780105 1203 108 c 0,37,38
 1232 88 1232 88 1268 83 c 128,-1,39
 1304 78 1304 78 1337 74 c 1,40,-1
 1338 74 l 2,41,42
 1337 74 1337 74 1338.5 73.5 c 128,-1,43
 1340 73 1340 73 1342 73 c 2,44,-1
 1346 73 l 1,45,46
 1295 45.3142857143 1295 45.3142857143 1203 -2 c 1,47,48
 1179.6 -2 1179.6 -2 1130.8 6 c 128,-1,49
 1082 14 1082 14 1048 28.5 c 128,-1,50
 1014 43 1014 43 988.5 70.5 c 128,-1,51
 963 98 963 98 946.5 132.5 c 128,-1,52
 930 167 930 167 920.5 206.5 c 128,-1,53
 911 246 911 246 904.5 286.5 c 0,54,55
 885.636971047 404.031180401 885.636971047 404.031180401 871.318485523 447.5155902 c 0,56,57
 835.353858685 556.738075301 835.353858685 556.738075301 769 615 c 0,58,59
 760 623 760 623 746 630 c 128,-1,60
 732 637 732 637 718 645.5 c 0,61,62
 684.785923754 665.66568915 684.785923754 665.66568915 680 688 c 1,63,-1
 447 690 l 1,64,-1
 447 238 l 2,65,66
 447 210 447 210 446 187 c 128,-1,67
 445 164 445 164 451 145.5 c 0,68,69
 466.062240664 99.0580912863 466.062240664 99.0580912863 534 84.5 c 0,70,71
 541 83 541 83 549 81 c 0,72,73
 585 72 585 72 678 72 c 1,74,75
 626 43.7714285714 626 43.7714285714 537 -2 c 1,76,77
 354.75 -2 354.75 -2 296 45 c 1,78,79
 180.307692308 -2 180.307692308 -2 26 -2 c 1,80,81
 115 43.7714285714 115 43.7714285714 167 72 c 1,82,83
 219.5 72 219.5 72 251 75 c 1,84,-1
 257 75 l 1,85,-1
 272 86 l 1,0,1
778.5 1345.5 m 128,-1,87
 724 1370 724 1370 666.7 1377 c 128,-1,88
 609.4 1384 609.4 1384 528.7 1384 c 2,89,-1
 448 1384 l 2,90,91
 447 1384 447 1384 447 1383 c 2,92,-1
 447 765 l 1,93,-1
 754 762 l 1,94,95
 764.818181818 768.363636364 764.818181818 768.363636364 768.870652102 769.806818182 c 0,96,97
 781.878323849 774.439161925 781.878323849 774.439161925 793 780 c 1,98,-1
 794 780 l 2,99,100
 795 780 795 780 795 780.5 c 128,-1,101
 795 781 795 781 796 781 c 2,102,-1
 813 791 l 2,103,104
 814 791 814 791 814.5 792 c 128,-1,105
 815 793 815 793 817 794 c 2,106,-1
 837 810 l 1,107,108
 896.500810373 862.063209076 896.500810373 862.063209076 918.750405186 933.531604538 c 128,-1,109
 941 1005 941 1005 943 1067 c 128,-1,110
 945 1129 945 1129 926 1184.5 c 128,-1,111
 907 1240 907 1240 870 1280.5 c 128,-1,86
 833 1321 833 1321 778.5 1345.5 c 128,-1,87
EndSplineSet
EndChar

StartChar: p
Encoding: 83 83 55
Width: 1118
Flags: W
LayerCount: 2
Fore
SplineSet
252 433 m 1,0,1
 256 387 256 387 268 343 c 128,-1,2
 280 299 280 299 284 268 c 0,3,4
 292.373702422 203.103806228 292.373702422 203.103806228 306 187 c 0,5,6
 376.243705036 108.241906475 376.243705036 108.241906475 439.121852518 83.1209532374 c 0,7,8
 554.239040822 37.1295616329 554.239040822 37.1295616329 651 41 c 0,9,10
 680.333333333 41 680.333333333 41 723 49 c 1,11,12
 731 53 731 53 737.5 58 c 128,-1,13
 744 63 744 63 758.5 74 c 128,-1,14
 773 85 773 85 789.5 108.5 c 128,-1,15
 806 132 806 132 818.5 158 c 0,16,17
 882.048951049 290.181818182 882.048951049 290.181818182 861 427 c 0,18,19
 838.123822606 566.798861852 838.123822606 566.798861852 658.5 657.5 c 0,20,21
 594.1 690.018811881 594.1 690.018811881 498.05 729.009405941 c 128,-1,22
 402 768 402 768 351.5 795.5 c 128,-1,23
 301 823 301 823 257.5 862.5 c 128,-1,24
 214 902 214 902 189.5 950 c 0,25,26
 138.839299315 1049.25361767 138.839299315 1049.25361767 177 1179 c 0,27,28
 183 1200 183 1200 186 1211.5 c 128,-1,29
 189 1223 189 1223 193 1232.5 c 0,30,31
 224.336643496 1306.9245283 224.336643496 1306.9245283 271.668321748 1341.96226415 c 128,-1,32
 319 1377 319 1377 358.5 1397.5 c 128,-1,33
 398 1418 398 1418 441 1434.5 c 128,-1,34
 484 1451 484 1451 529 1462.5 c 0,35,36
 624.296296296 1486.85349794 624.296296296 1486.85349794 685.648148148 1483.92674897 c 128,-1,37
 747 1481 747 1481 785.5 1476 c 128,-1,38
 824 1471 824 1471 860 1460 c 0,39,40
 981.572783045 1422.85276074 981.572783045 1422.85276074 1009.5 1332.5 c 0,41,42
 1025 1282.35294118 1025 1282.35294118 1025 1214 c 2,43,-1
 1025 1160 l 1,44,-1
 847 1099 l 1,45,-1
 847 1147.5 l 2,46,47
 847 1252 847 1252 822 1294 c 128,-1,48
 797 1336 797 1336 753.5 1361 c 128,-1,49
 710 1386 710 1386 658.5 1398.5 c 0,50,51
 552.083790524 1424.32917706 552.083790524 1424.32917706 465 1402 c 1,52,53
 369.788437884 1350.06642066 369.788437884 1350.06642066 344.5 1192.5 c 0,54,55
 330.093508501 1102.73647604 330.093508501 1102.73647604 345.54675425 1059.86823802 c 0,56,57
 389.36834589 938.304493336 389.36834589 938.304493336 519 869.5 c 0,58,59
 584 835 584 835 654 805 c 128,-1,60
 724 775 724 775 793 745 c 128,-1,61
 862 715 862 715 917 673.5 c 0,62,63
 1093.3170846 540.460745254 1093.3170846 540.460745254 1024 294 c 0,64,65
 979.120191032 133.180684532 979.120191032 133.180684532 850.5 64.5 c 0,66,67
 648.766859345 -43.2215799615 648.766859345 -43.2215799615 449.5 -31.5 c 0,68,69
 245.587628866 -19.5051546392 245.587628866 -19.5051546392 138.5 109 c 0,70,71
 116.158371041 135.809954751 116.158371041 135.809954751 110.57918552 169.904977376 c 128,-1,72
 105 204 105 204 98.5 234.5 c 0,73,74
 77.0842105263 334.989473684 77.0842105263 334.989473684 74 372 c 1,75,-1
 252 433 l 1,0,1
EndSplineSet
EndChar

StartChar: q
Encoding: 84 84 56
Width: 1333
Flags: W
LayerCount: 2
Fore
SplineSet
219 1383 m 1,0,-1
 199 1382 l 1,1,-1
 197 1360 l 1,2,3
 191 1315 191 1315 184.5 1270 c 128,-1,4
 178 1225 178 1225 178 1178 c 1,5,-1
 0 1117 l 1,6,7
 0 1213.14285714 0 1213.14285714 25.5 1337 c 0,8,9
 33.2268518519 1374.53042328 33.2268518519 1374.53042328 85.5 1398 c 0,10,11
 184.609433962 1442.49811321 184.609433962 1442.49811321 263 1452 c 1,12,-1
 306 1455 l 1,13,-1
 319 1455 l 1,14,-1
 331 1456 l 1,15,16
 343 1456 l 1,17,18
 405 1458 l 2,19,20
 450 1459 450 1459 494 1458 c 128,-1,21
 538 1457 538 1457 572 1458.5 c 128,-1,22
 606 1460 606 1460 631.5 1463 c 128,-1,23
 657 1466 657 1466 673.5 1458.5 c 0,24,25
 701 1446 701 1446 715 1432 c 1,26,27
 797.6875 1467.4375 797.6875 1467.4375 837.34375 1463.21875 c 128,-1,28
 877 1459 877 1459 901 1459 c 2,29,-1
 1022.5 1459 l 2,30,31
 1083 1459 1083 1459 1121 1457.5 c 128,-1,32
 1159 1456 1159 1456 1178.5 1455.5 c 128,-1,33
 1198 1455 1198 1455 1217.5 1452.5 c 0,34,35
 1263.325 1446.625 1263.325 1446.625 1281.6625 1433.3125 c 128,-1,36
 1300 1420 1300 1420 1307 1397 c 128,-1,37
 1314 1374 1314 1374 1318.5 1348 c 128,-1,38
 1323 1322 1323 1322 1325 1298 c 128,-1,39
 1327 1274 1327 1274 1328.5 1259 c 0,40,41
 1333 1214 1333 1214 1333 1178 c 1,42,-1
 1155 1117 l 1,43,-1
 1155 1126.5 l 2,44,45
 1155 1145.5 1155 1145.5 1152 1180.25 c 128,-1,46
 1149 1215 1149 1215 1147.5 1234 c 128,-1,47
 1146 1253 1146 1253 1143 1274 c 0,48,49
 1132.42105263 1348.05263158 1132.42105263 1348.05263158 1110 1363 c 0,50,51
 1083.16216216 1380.89189189 1083.16216216 1380.89189189 1050.08108108 1378.94594595 c 128,-1,52
 1017 1377 1017 1377 992 1382 c 1,53,-1
 760 1385 l 1,54,-1
 753 1385 l 1,55,-1
 753 239 l 2,56,57
 753 226.5 753 226.5 751.5 195.75 c 128,-1,58
 750 165 750 165 756.5 146.5 c 0,59,60
 783.725259189 69.0127238454 783.725259189 69.0127238454 982.5 72.5 c 0,61,62
 1011 73 1011 73 1038 73 c 1,63,64
 986 44.7714285714 986 44.7714285714 897 -1 c 1,65,66
 867 -1 867 -1 837 -1.5 c 128,-1,67
 807 -2 807 -2 779.5 0 c 0,68,69
 643.087912088 9.92087912088 643.087912088 9.92087912088 603 46 c 1,70,71
 481.448275862 -1 481.448275862 -1 283 -1 c 1,72,73
 372 44.7714285714 372 44.7714285714 424 73 c 1,74,-1
 480.5 73 l 2,75,76
 508 73 508 73 523 74 c 128,-1,77
 538 75 538 75 546 75.5 c 128,-1,78
 554 76 554 76 561 77.5 c 128,-1,79
 568 79 568 79 571.5 82 c 128,-1,80
 575 85 575 85 579 88 c 1,81,82
 575 102.4 575 102.4 575 178 c 2,83,-1
 575 1325 l 1,84,85
 561 1339 561 1339 551 1351 c 128,-1,86
 541 1363 541 1363 530 1371.5 c 0,87,88
 506.444444444 1389.7020202 506.444444444 1389.7020202 462.222222222 1385.8510101 c 128,-1,89
 418 1382 418 1382 366.5 1383.5 c 128,-1,90
 315 1385 315 1385 264 1384 c 2,91,-1
 219 1383 l 1,0,-1
123 1377 m 2,92,-1
 123.5 1377.5 l 2,93,94
 122 1377 122 1377 123 1377 c 2,92,-1
EndSplineSet
EndChar

StartChar: r
Encoding: 85 85 57
Width: 1620
Flags: W
LayerCount: 2
Fore
SplineSet
486.5 1385 m 2,0,1
 446 1385 446 1385 444 1382 c 0,2,3
 441.333333333 1378 441.333333333 1378 437 1378 c 1,4,-1
 436 1376 l 1,5,6
 436 1277 436 1277 433.5 1177 c 128,-1,7
 431 1077 431 1077 430.5 977.5 c 0,8,9
 429.257142857 730.171428571 429.257142857 730.171428571 438.128571429 634.585714286 c 128,-1,10
 447 539 447 539 450 493.5 c 128,-1,11
 453 448 453 448 459.5 402 c 0,12,13
 474.219660194 297.830097087 474.219660194 297.830097087 515 234 c 0,14,15
 562.056856187 164.983277592 562.056856187 164.983277592 587.528428094 143.491638796 c 128,-1,16
 613 122 613 122 643 102.5 c 0,17,18
 704.844660194 62.3009708738 704.844660194 62.3009708738 800 45 c 256,19,20
 864.985815603 33.1843971631 864.985815603 33.1843971631 923.992907801 40.0921985816 c 128,-1,21
 983 47 983 47 1005.5 60 c 128,-1,22
 1028 73 1028 73 1047 90.5 c 0,23,24
 1129.3185918 166.319755601 1129.3185918 166.319755601 1157.5 274.5 c 0,25,26
 1185.37707948 381.512014787 1185.37707948 381.512014787 1186.18853974 483.756007394 c 128,-1,27
 1187 586 1187 586 1187 639 c 2,28,-1
 1187 1317 l 1,29,30
 1134.0608365 1362.37642586 1134.0608365 1362.37642586 1089.53041825 1372.18821293 c 0,31,32
 1031.38461538 1385 1031.38461538 1385 947 1385 c 1,33,-1
 1088 1459 l 1,34,35
 1139 1459 1139 1459 1190 1456.5 c 128,-1,36
 1241 1454 1241 1454 1269.5 1441.5 c 0,37,38
 1311.63043478 1423.02173913 1311.63043478 1423.02173913 1330 1412 c 1,39,40
 1447.5 1459 1447.5 1459 1599 1459 c 1,41,42
 1547 1430.77142857 1547 1430.77142857 1458 1385 c 1,43,-1
 1414.5 1385 l 2,44,45
 1374 1385 1374 1385 1365 1376 c 1,46,-1
 1365 700 l 2,47,48
 1365 470 1365 470 1348 393.5 c 128,-1,49
 1331 317 1331 317 1310.5 270 c 128,-1,50
 1290 223 1290 223 1262.5 188.5 c 128,-1,51
 1235 154 1235 154 1201.5 126 c 0,52,53
 1085.46376812 29.0144927536 1085.46376812 29.0144927536 883 -17 c 0,54,55
 694.869158879 -59.7570093458 694.869158879 -59.7570093458 537 -2 c 0,56,57
 418.312186978 41.4223706177 418.312186978 41.4223706177 339 167 c 0,58,59
 283.628304821 251.261275272 283.628304821 251.261275272 272 431.5 c 0,60,61
 269 478 269 478 262.5 547.5 c 128,-1,62
 256 617 256 617 254 717 c 128,-1,63
 252 817 252 817 252.5 917 c 128,-1,64
 253 1017 253 1017 255.5 1117 c 128,-1,65
 258 1217 258 1217 258 1317 c 1,66,67
 205.060836502 1362.37642586 205.060836502 1362.37642586 160.530418251 1372.18821293 c 0,68,69
 102.384615385 1385 102.384615385 1385 18 1385 c 1,70,-1
 159 1459 l 1,71,72
 210 1459 210 1459 261 1456.5 c 128,-1,73
 312 1454 312 1454 340.5 1441.5 c 0,74,75
 385.832214765 1421.61744966 385.832214765 1421.61744966 401 1411 c 1,76,77
 518.333333333 1459 518.333333333 1459 671 1459 c 1,78,79
 619 1430.77142857 619 1430.77142857 530 1385 c 1,80,-1
 486.5 1385 l 2,0,1
EndSplineSet
EndChar

StartChar: s
Encoding: 86 86 58
Width: 1298
Flags: W
LayerCount: 2
Fore
SplineSet
384 1385 m 1,0,1
 369 1385 369 1385 327 1388 c 1,2,-1
 322 1383 l 1,3,-1
 321 1383 l 1,4,5
 334 1361 334 1361 335 1332 c 128,-1,6
 336 1303 336 1303 345.5 1268 c 128,-1,7
 355 1233 355 1233 372 1190.5 c 128,-1,8
 389 1148 389 1148 410.5 1088.5 c 128,-1,9
 432 1029 432 1029 459.5 941.5 c 128,-1,10
 487 854 487 854 514 763.5 c 128,-1,11
 541 673 541 673 567 585 c 128,-1,12
 593 497 593 497 614.5 432 c 128,-1,13
 636 367 636 367 655.5 314.5 c 128,-1,14
 675 262 675 262 692 207 c 1,15,-1
 699 179 l 1,16,-1
 741 297.5 l 1,17,18
 794.710067114 443.082550336 794.710067114 443.082550336 828.855033557 559.541275168 c 128,-1,19
 863 676 863 676 892 774 c 0,20,21
 968.060356653 1031.03155007 968.060356653 1031.03155007 996.530178326 1104.01577503 c 0,22,23
 1047.32573749 1234.2334687 1047.32573749 1234.2334687 1053.16286875 1265.61673435 c 128,-1,24
 1059 1297 1059 1297 1061 1315 c 128,-1,25
 1063 1333 1063 1333 1071 1350 c 1,26,27
 1033.90697674 1379.6744186 1033.90697674 1379.6744186 995.953488372 1382.8372093 c 128,-1,28
 958 1386 958 1386 933 1385.5 c 128,-1,29
 908 1385 908 1385 884 1385 c 1,30,-1
 1025 1459 l 1,31,32
 1050 1459 1050 1459 1076 1459.5 c 128,-1,33
 1102 1460 1102 1460 1127.5 1458 c 0,34,35
 1188.03478261 1453.25217391 1188.03478261 1453.25217391 1224 1432 c 1,36,-1
 1243 1438 l 1,37,-1
 1275 1446 l 1,38,-1
 1280 1446 l 1,39,-1
 1293 1449 l 1,40,-1
 1295 1449 l 2,41,42
 1296.4520788 1449.4281182 1296.4520788 1449.4281182 1298 1450 c 2,43,-1
 1301 1450 l 1,44,45
 1350.5 1461 1350.5 1461 1383 1461 c 2,46,-1
 1424 1461 l 1,47,48
 1372 1432.77142857 1372 1432.77142857 1283 1387 c 1,49,50
 1272 1387 1272 1387 1261 1387 c 128,-1,51
 1250 1387 1250 1387 1239 1386 c 1,52,-1
 1234 1347 l 2,53,54
 1228.42132416 1303.76526225 1228.42132416 1303.76526225 1170.71066208 1150.88263113 c 128,-1,55
 1113 998 1113 998 1086 921 c 2,56,-1
 994 665 l 2,57,58
 975.123287671 611.273972603 975.123287671 611.273972603 953.561643836 519.636986301 c 0,59,60
 914.071428571 351.803571429 914.071428571 351.803571429 901.535714286 313.901785714 c 128,-1,61
 889 276 889 276 884 256 c 128,-1,62
 879 236 879 236 873 216 c 0,63,64
 858 166 858 166 843.5 145.5 c 0,65,66
 817.153846154 108.25198939 817.153846154 108.25198939 749 73 c 1,67,-1
 749 35 l 1,68,-1
 571 -26 l 1,69,-1
 571 26 l 1,70,71
 545.780487805 32.8780487805 545.780487805 32.8780487805 534 80 c 0,72,73
 514.9 156.4 514.9 156.4 487.95 225.7 c 128,-1,74
 461 295 461 295 438.5 365 c 128,-1,75
 416 435 416 435 390 522 c 128,-1,76
 364 609 364 609 337 698.5 c 0,77,78
 245.054571226 1003.28206945 245.054571226 1003.28206945 216.527285613 1072.14103473 c 128,-1,79
 188 1141 188 1141 180 1167 c 0,80,81
 160.71641791 1229.67164179 160.71641791 1229.67164179 154.858208955 1268.3358209 c 128,-1,82
 149 1307 149 1307 141.5 1320 c 0,83,84
 104 1385 104 1385 -90 1385 c 1,85,-1
 51 1459 l 1,86,87
 206.428571429 1459 206.428571429 1459 277 1421 c 1,88,-1
 278 1422 l 1,89,90
 338 1450 338 1450 399.5 1454.5 c 128,-1,91
 461 1459 461 1459 525 1459 c 1,92,93
 473 1430.77142857 473 1430.77142857 384 1385 c 1,0,1
1302 1450 m 2,94,-1
 1306 1450.5 l 2,95,96
 1304 1450 1304 1450 1302 1450 c 2,94,-1
EndSplineSet
EndChar

StartChar: t
Encoding: 87 87 59
Width: 1925
Flags: W
LayerCount: 2
Fore
SplineSet
1287 -16 m 1,0,1
 1283 8 1283 8 1283 22.5 c 0,2,3
 1283 46 1283 46 1286 52 c 1,4,5
 1246.32827832 90.0187332739 1246.32827832 90.0187332739 1232.16413916 142.509366637 c 128,-1,6
 1218 195 1218 195 1212 227.5 c 128,-1,7
 1206 260 1206 260 1191 311 c 128,-1,8
 1176 362 1176 362 1154 444.5 c 128,-1,9
 1132 527 1132 527 1110 612 c 0,10,11
 1045.31343284 861.925373134 1045.31343284 861.925373134 1027.65671642 921.962686567 c 128,-1,12
 1010 982 1010 982 997.5 1028 c 128,-1,13
 985 1074 985 1074 970 1120 c 1,14,15
 969 1115 969 1115 968 1109.5 c 128,-1,16
 967 1104 967 1104 956 1066 c 128,-1,17
 945 1028 945 1028 926 945.5 c 128,-1,18
 907 863 907 863 888.5 778.5 c 0,19,20
 847.881170018 592.970749543 847.881170018 592.970749543 829.440585009 524.485374771 c 128,-1,21
 811 456 811 456 806.5 438 c 128,-1,22
 802 420 802 420 795 393.5 c 128,-1,23
 788 367 788 367 779.5 335.5 c 128,-1,24
 771 304 771 304 763 274.5 c 0,25,26
 739 186 739 186 733.5 180.5 c 128,-1,27
 728 175 728 175 715.5 165 c 128,-1,28
 703 155 703 155 682.5 140 c 128,-1,29
 662 125 662 125 642 110 c 1,30,-1
 642 45 l 1,31,-1
 464 -16 l 1,32,-1
 464 51 l 1,33,34
 440.25 74.75 440.25 74.75 429 122 c 1,35,36
 414 163 414 163 404.5 205 c 128,-1,37
 395 247 395 247 377 307.5 c 128,-1,38
 359 368 359 368 337 458.5 c 128,-1,39
 315 549 315 549 293.5 642 c 128,-1,40
 272 735 272 735 251.5 826.5 c 128,-1,41
 231 918 231 918 214 984 c 128,-1,42
 197 1050 197 1050 182.5 1102.5 c 128,-1,43
 168 1155 168 1155 161 1187.5 c 128,-1,44
 154 1220 154 1220 153.5 1235.5 c 128,-1,45
 153 1251 153 1251 151.5 1267.5 c 0,46,47
 147.705882353 1309.23529412 147.705882353 1309.23529412 135.852941176 1325.11764706 c 128,-1,48
 124 1341 124 1341 100.5 1353.5 c 128,-1,49
 77 1366 77 1366 50 1373.5 c 0,50,51
 -2.2 1388 -2.2 1388 -52 1388 c 1,52,-1
 89 1462 l 1,53,54
 202.090909091 1462 202.090909091 1462 273 1423 c 1,55,56
 358.643283582 1456.15223881 358.643283582 1456.15223881 417.321641791 1458.0761194 c 128,-1,57
 476 1460 476 1460 512 1460 c 1,58,59
 460 1431.77142857 460 1431.77142857 371 1386 c 1,60,-1
 320 1387 l 1,61,-1
 317 1384 l 1,62,63
 329.319526627 1361.41420118 329.319526627 1361.41420118 330.659763314 1321.20710059 c 128,-1,64
 332 1281 332 1281 339 1248.5 c 128,-1,65
 346 1216 346 1216 361 1164 c 128,-1,66
 376 1112 376 1112 408.5 981 c 128,-1,67
 441 850 441 850 474.5 725 c 128,-1,68
 508 600 508 600 520.5 548 c 128,-1,69
 533 496 533 496 545 441.5 c 0,70,71
 575.471204188 303.109947644 575.471204188 303.109947644 592 240 c 1,72,-1
 592 238 l 1,73,-1
 634 396 l 2,74,75
 661.769230769 501.230769231 661.769230769 501.230769231 695.384615385 651.615384615 c 0,76,77
 776.446327684 1014.25988701 776.446327684 1014.25988701 826 1170 c 0,78,79
 831.163120567 1186.78014184 831.163120567 1186.78014184 854.581560284 1199.39007092 c 0,80,81
 902.478723404 1225.18085106 902.478723404 1225.18085106 910.739361702 1238.09042553 c 128,-1,82
 919 1251 919 1251 916 1268.5 c 128,-1,83
 913 1286 913 1286 914 1303 c 1,84,-1
 1092 1364 l 1,85,86
 1091 1347 1091 1347 1090.5 1329.5 c 128,-1,87
 1090 1312 1090 1312 1088 1295 c 1,88,-1
 1084 1290 l 1,89,-1
 1088 1292 l 1,90,91
 1125.09677419 1269.74193548 1125.09677419 1269.74193548 1136.5 1222.5 c 0,92,93
 1140 1208 1140 1208 1150.5 1176 c 128,-1,94
 1161 1144 1161 1144 1174.5 1095 c 128,-1,95
 1188 1046 1188 1046 1205.5 985 c 128,-1,96
 1223 924 1223 924 1244.5 841.5 c 128,-1,97
 1266 759 1266 759 1288 674 c 0,98,99
 1344.80597015 454.52238806 1344.80597015 454.52238806 1364.40298507 386.76119403 c 128,-1,100
 1384 319 1384 319 1390 285.5 c 128,-1,101
 1396 252 1396 252 1406 220 c 1,102,103
 1408 231 1408 231 1410 241 c 128,-1,104
 1412 251 1412 251 1418.5 280.5 c 128,-1,105
 1425 310 1425 310 1439 358.5 c 128,-1,106
 1453 407 1453 407 1466 457 c 128,-1,107
 1479 507 1479 507 1492 570.5 c 128,-1,108
 1505 634 1505 634 1518 699.5 c 0,109,110
 1556.34656085 892.707671958 1556.34656085 892.707671958 1607.17328042 1072.35383598 c 128,-1,111
 1658 1252 1658 1252 1668 1359 c 1,112,113
 1658.47565461 1362.09738154 1658.47565461 1362.09738154 1648.23782731 1367.04869077 c 0,114,115
 1609.05218526 1386 1609.05218526 1386 1466 1386 c 1,116,-1
 1607 1460 l 1,117,118
 1713.33333333 1460 1713.33333333 1460 1790 1450 c 0,119,120
 1800.73913043 1445.86956522 1800.73913043 1445.86956522 1828 1431 c 1,121,122
 1927 1464 1927 1464 2060 1464 c 1,123,124
 2008 1435.77142857 2008 1435.77142857 1919 1390 c 1,125,126
 1881 1390 1881 1390 1842 1387 c 1,127,128
 1830 1288 1830 1288 1803 1195 c 128,-1,129
 1776 1102 1776 1102 1756 1027.5 c 128,-1,130
 1736 953 1736 953 1723 890 c 128,-1,131
 1710 827 1710 827 1697 761.5 c 0,132,133
 1651.67459708 533.129700691 1651.67459708 533.129700691 1627.33729854 452.564850345 c 128,-1,134
 1603 372 1603 372 1593 327.5 c 128,-1,135
 1583 283 1583 283 1578 253 c 128,-1,136
 1573 223 1573 223 1562.5 199.5 c 0,137,138
 1541.19513842 151.817690749 1541.19513842 151.817690749 1470 118 c 1,139,140
 1459 107 1459 107 1462 84.5 c 128,-1,141
 1465 62 1465 62 1465 45 c 1,142,-1
 1289 -15 l 1,143,-1
 1289 -17 l 2,144,145
 1289 -18 1289 -18 1288.5 -17 c 128,-1,146
 1288 -16 1288 -16 1288 -15 c 2,147,-1
 1287 -16 l 1,0,1
1767 1410 m 257,148,-1
 1775 1412 l 2,149,150
 1767 1410 1767 1410 1767 1410 c 257,148,-1
357 1421 m 1,151,152
 356 1421 356 1421 356 1420 c 2,153,154
 356 1420 356 1420 357 1421 c 1,151,152
EndSplineSet
EndChar

StartChar: u
Encoding: 88 88 60
Width: 1278
Flags: W
LayerCount: 2
Fore
SplineSet
350 -3 m 1,0,-1
 252 -3 l 2,1,2
 238 -3 238 -3 225 -0.5 c 128,-1,3
 212 2 212 2 197 4 c 0,4,5
 157.234375 9.30208333333 157.234375 9.30208333333 142 33 c 1,6,-1
 -67 -1 l 1,7,-1
 55 71 l 1,8,9
 76 74 76 74 97 77 c 128,-1,10
 118 80 118 80 139 84 c 1,11,12
 143 95 143 95 147.5 106 c 128,-1,13
 152 117 152 117 160 138 c 128,-1,14
 168 159 168 159 188.5 191 c 128,-1,15
 209 223 209 223 228 255 c 2,16,-1
 264 314 l 2,17,18
 299 372 299 372 336.5 428.5 c 128,-1,19
 374 485 374 485 400 528.5 c 0,20,21
 456.163701068 622.466192171 456.163701068 622.466192171 476.081850534 645.733096085 c 128,-1,22
 496 669 496 669 513.5 681.5 c 128,-1,23
 531 694 531 694 546 709 c 1,24,25
 541 726 541 726 544.5 742.5 c 128,-1,26
 548 759 548 759 543 774.5 c 128,-1,27
 538 790 538 790 522.5 797.5 c 128,-1,28
 507 805 507 805 485.5 837.5 c 0,29,30
 448.719008264 893.099173554 448.719008264 893.099173554 392.859504132 987.549586777 c 128,-1,31
 337 1082 337 1082 304 1130.5 c 128,-1,32
 271 1179 271 1179 256 1211 c 128,-1,33
 241 1243 241 1243 238.5 1258 c 128,-1,34
 236 1273 236 1273 233 1288 c 0,35,36
 225.418604651 1325.90697674 225.418604651 1325.90697674 209.709302326 1336.95348837 c 128,-1,37
 194 1348 194 1348 181.5 1352 c 128,-1,38
 169 1356 169 1356 163.5 1358 c 2,39,40
 137 1366 l 2,41,42
 126 1369 126 1369 115 1373 c 128,-1,43
 104 1377 104 1377 82.5 1382.5 c 0,44,45
 43.53125 1392.46875 43.53125 1392.46875 -40 1395 c 1,46,-1
 117 1468 l 1,47,48
 217.465116279 1464.86046512 217.465116279 1464.86046512 242.23255814 1457.43023256 c 128,-1,49
 267 1450 267 1450 277.5 1447 c 128,-1,50
 288 1444 288 1444 294 1441.5 c 128,-1,51
 300 1439 300 1439 305 1438.5 c 128,-1,52
 310 1438 310 1438 308 1437 c 1,53,-1
 341 1427 l 1,54,55
 427.434782609 1459.41304348 427.434782609 1459.41304348 477.717391304 1462.20652174 c 128,-1,56
 528 1465 528 1465 563 1465 c 1,57,58
 511 1436.77142857 511 1436.77142857 422 1391 c 1,59,-1
 399 1391 l 1,60,61
 406.831325301 1376.90361446 406.831325301 1376.90361446 409.415662651 1357.95180723 c 0,62,63
 418.896907216 1288.42268041 418.896907216 1288.42268041 454.448453608 1236.71134021 c 128,-1,64
 490 1185 490 1185 519.5 1137.5 c 128,-1,65
 549 1090 549 1090 580.5 1035 c 0,66,67
 618.096774194 969.35483871 618.096774194 969.35483871 657 911 c 1,68,69
 679 943 679 943 699 975 c 128,-1,70
 719 1007 719 1007 749.5 1052.5 c 128,-1,71
 780 1098 780 1098 821 1155 c 128,-1,72
 862 1212 862 1212 885.5 1252 c 128,-1,73
 909 1292 909 1292 914 1314 c 128,-1,74
 919 1336 919 1336 927 1357 c 1,75,-1
 935 1359 l 1,76,77
 923 1359 923 1359 911.5 1370.5 c 128,-1,78
 900 1382 900 1382 879 1386 c 128,-1,79
 858 1390 858 1390 828.5 1389.5 c 128,-1,80
 799 1389 799 1389 770 1391 c 1,81,-1
 927 1464 l 1,82,83
 959 1462 959 1462 990.5 1462.5 c 128,-1,84
 1022 1463 1022 1463 1043 1459 c 128,-1,85
 1064 1455 1064 1455 1073 1447 c 128,-1,86
 1082 1439 1082 1439 1090 1437 c 128,-1,87
 1098 1435 1098 1435 1102.5 1437.5 c 128,-1,88
 1107 1440 1107 1440 1116 1442 c 128,-1,89
 1125 1444 1125 1444 1137 1447.5 c 128,-1,90
 1149 1451 1149 1451 1173.5 1454 c 128,-1,91
 1198 1457 1198 1457 1234 1459.5 c 128,-1,92
 1270 1462 1270 1462 1306 1465 c 1,93,94
 1254 1436.77142857 1254 1436.77142857 1165 1391 c 1,95,-1
 1094 1386 l 1,96,97
 1066.22591362 1305.20265781 1066.22591362 1305.20265781 1052.11295681 1285.6013289 c 128,-1,98
 1038 1266 1038 1266 1022 1244 c 0,99,100
 925.927927928 1111.9009009 925.927927928 1111.9009009 875.963963964 1031.45045045 c 128,-1,101
 826 951 826 951 800.5 919 c 128,-1,102
 775 887 775 887 755.5 873 c 128,-1,103
 736 859 736 859 719 844 c 1,104,-1
 723 824.5 l 1,105,-1
 721 789 l 1,106,107
 721 764 721 764 738 755.5 c 128,-1,108
 755 747 755 747 764.5 735 c 128,-1,109
 774 723 774 723 783 708 c 128,-1,110
 792 693 792 693 819 652.5 c 128,-1,111
 846 612 846 612 886.5 545 c 128,-1,112
 927 478 927 478 962.5 422 c 128,-1,113
 998 366 998 366 1029 322.5 c 128,-1,114
 1060 279 1060 279 1071.5 248 c 128,-1,115
 1083 217 1083 217 1084.5 203.5 c 128,-1,116
 1086 190 1086 190 1088.5 176.5 c 0,117,118
 1094.9787234 141.514893617 1094.9787234 141.514893617 1110 131 c 0,119,120
 1178.65289256 81.4173553719 1178.65289256 81.4173553719 1337 73.5 c 0,121,122
 1367 72 1367 72 1397 70 c 1,123,-1
 1240 -3 l 1,124,125
 1176 -1 1176 -1 1107.5 5 c 128,-1,126
 1039 11 1039 11 979 38 c 1,127,128
 969 34 969 34 953.5 29.5 c 128,-1,129
 938 25 938 25 911.5 15.5 c 128,-1,130
 885 6 885 6 853 2 c 128,-1,131
 821 -2 821 -2 785.5 -1.5 c 128,-1,132
 750 -1 750 -1 714 -3 c 1,133,134
 803 42.7714285714 803 42.7714285714 855 71 c 1,135,136
 871 72 871 72 887 71.5 c 128,-1,137
 903 71 903 71 919 71 c 1,138,-1
 923 76 l 1,139,140
 914.351351351 88.972972973 914.351351351 88.972972973 911.675675676 109.486486486 c 0,141,142
 901.802101576 185.183887916 901.802101576 185.183887916 861.901050788 242.091943958 c 128,-1,143
 822 299 822 299 786 354.5 c 128,-1,144
 750 410 750 410 710 477.5 c 128,-1,145
 670 545 670 545 626 611 c 1,146,-1
 608 639 l 1,147,148
 593 616 593 616 579 592 c 128,-1,149
 565 568 565 568 535.5 522 c 0,150,151
 351.576530612 235.204081633 351.576530612 235.204081633 320 151 c 1,152,153
 320 139 320 139 314.5 129.5 c 128,-1,154
 309 120 309 120 315 104.5 c 128,-1,155
 321 89 321 89 345 81 c 128,-1,156
 369 73 369 73 397 71 c 128,-1,157
 425 69 425 69 451.5 70 c 128,-1,158
 478 71 478 71 491 71 c 1,159,160
 439 42.7714285714 439 42.7714285714 350 -3 c 1,0,-1
EndSplineSet
EndChar

StartChar: v
Encoding: 89 89 61
Width: 1204
Flags: W
LayerCount: 2
Fore
SplineSet
537 1461 m 1,0,1
 485 1432.77142857 485 1432.77142857 396 1387 c 1,2,3
 368 1387 368 1387 340 1385 c 1,4,5
 346 1362 346 1362 349.5 1338 c 128,-1,6
 353 1314 353 1314 384.5 1247 c 128,-1,7
 416 1180 416 1180 474 1072 c 128,-1,8
 532 964 532 964 588 853 c 2,9,-1
 665 700 l 1,10,11
 723.912751678 805.422818792 723.912751678 805.422818792 782.956375839 931.211409396 c 128,-1,12
 842 1057 842 1057 867.5 1107.5 c 128,-1,13
 893 1158 893 1158 908 1185.5 c 128,-1,14
 923 1213 923 1213 936 1241 c 0,15,16
 963.742753623 1300.75362319 963.742753623 1300.75362319 973 1360 c 1,17,-1
 952 1371 l 1,18,19
 930 1385 930 1385 881 1385 c 128,-1,20
 832 1385 832 1385 800 1387 c 1,21,-1
 957 1460 l 1,22,23
 992 1458 992 1458 1026 1458 c 128,-1,24
 1060 1458 1060 1458 1083.5 1454.5 c 128,-1,25
 1107 1451 1107 1451 1117.5 1444 c 128,-1,26
 1128 1437 1128 1437 1137 1435 c 128,-1,27
 1146 1433 1146 1433 1151 1436 c 128,-1,28
 1156 1439 1156 1439 1165 1441 c 128,-1,29
 1174 1443 1174 1443 1186 1446.5 c 128,-1,30
 1198 1450 1198 1450 1222 1453 c 128,-1,31
 1246 1456 1246 1456 1279.5 1457.5 c 128,-1,32
 1313 1459 1313 1459 1347 1461 c 1,33,34
 1295 1432.77142857 1295 1432.77142857 1206 1387 c 1,35,36
 1190 1385 1190 1385 1174.5 1385 c 128,-1,37
 1159 1385 1159 1385 1144 1384 c 1,38,39
 1129 1324 1129 1324 1099.5 1270 c 128,-1,40
 1070 1216 1070 1216 1042 1158.5 c 0,41,42
 976.666666667 1024.33333333 976.666666667 1024.33333333 938.333333333 943.666666667 c 0,43,44
 817.795226131 690.012562814 817.795226131 690.012562814 777.5 661 c 0,45,46
 765 652 765 652 752.5 644 c 0,47,48
 697.026768642 608.497131931 697.026768642 608.497131931 706.5 548.5 c 0,49,50
 711 520 711 520 711 494 c 2,51,-1
 711 240 l 2,52,53
 711 217 711 217 709.5 196 c 128,-1,54
 708 175 708 175 711.5 157 c 0,55,56
 721.088888889 107.685714286 721.088888889 107.685714286 787 86.5 c 0,57,58
 828.096774194 73.2903225806 828.096774194 73.2903225806 839.548387097 72.1451612903 c 128,-1,59
 851 71 851 71 876 69 c 128,-1,60
 901 67 901 67 932 67 c 128,-1,61
 963 67 963 67 994 67 c 1,62,63
 942 38.7714285714 942 38.7714285714 853 -7 c 1,64,65
 818 -7 818 -7 780 -7.5 c 128,-1,66
 742 -8 742 -8 704 -4.5 c 0,67,68
 617.55129959 3.46238030096 617.55129959 3.46238030096 565 42 c 1,69,70
 440.866666667 -7 440.866666667 -7 240 -7 c 1,71,72
 329 38.7714285714 329 38.7714285714 381 67 c 1,73,-1
 437 67 l 2,74,75
 464 67 464 67 492 69 c 1,76,-1
 507 69 l 2,77,78
 524.833333333 69 524.833333333 69 534 80 c 1,79,80
 526 103 526 103 529.5 130 c 128,-1,81
 533 157 533 157 533 179 c 2,82,-1
 533 433 l 2,83,84
 533 471 533 471 531 498.5 c 128,-1,85
 529 526 529 526 537 548 c 1,86,-1
 535 547 l 1,87,88
 503 607 503 607 473 666.5 c 128,-1,89
 443 726 443 726 406 798 c 0,90,91
 330.724137931 944.482758621 330.724137931 944.482758621 285 1024.5 c 2,92,-1
 225 1129.5 l 2,93,94
 200.777777778 1171.88888889 200.777777778 1171.88888889 181.5 1249 c 2,95,-1
 162 1327 l 1,96,97
 142.708188299 1327.30879782 142.708188299 1327.30879782 113.35409415 1344.65439891 c 128,-1,98
 84 1362 84 1362 59.5 1371.5 c 0,99,100
 19.5263157895 1387 19.5263157895 1387 -90 1387 c 1,101,-1
 51 1461 l 1,102,103
 205.4 1461 205.4 1461 261.5 1428 c 0,104,105
 270 1423 270 1423 279 1418 c 1,106,107
 292 1423 292 1423 308 1427.5 c 128,-1,108
 324 1432 324 1432 353 1443 c 1,109,110
 342.105263158 1439.36842105 342.105263158 1439.36842105 332 1438 c 1,111,112
 339 1440 339 1440 345.5 1442 c 128,-1,113
 352 1444 352 1444 358 1445.5 c 128,-1,114
 364 1447 364 1447 369.5 1448.5 c 128,-1,115
 375 1450 375 1450 381 1451 c 128,-1,116
 387 1452 387 1452 408.5 1456 c 0,117,118
 435.375 1461 435.375 1461 537 1461 c 1,0,1
EndSplineSet
EndChar

StartChar: w
Encoding: 90 90 62
Width: 1249
Flags: W
LayerCount: 2
Fore
SplineSet
397 1379 m 2,0,1
 319 1379 319 1379 289 1374 c 1,2,3
 287 1367 287 1367 287 1360.5 c 128,-1,4
 287 1354 287 1354 283 1326.5 c 128,-1,5
 279 1299 279 1299 275 1251.5 c 128,-1,6
 271 1204 271 1204 265 1156 c 1,7,-1
 87 1095 l 1,8,9
 93 1143 93 1143 97 1190.5 c 128,-1,10
 101 1238 101 1238 105.5 1269 c 128,-1,11
 110 1300 110 1300 111 1314.5 c 0,12,13
 114.098630137 1359.43013699 114.098630137 1359.43013699 159.049315068 1380.71506849 c 0,14,15
 275.486895127 1435.85028879 275.486895127 1435.85028879 357.5 1442.5 c 0,16,17
 376 1444 376 1444 384 1445 c 1,18,-1
 390 1445 l 1,19,20
 438 1453 438 1453 559 1453 c 2,21,-1
 933 1453 l 2,22,23
 953 1453 953 1453 973.5 1454.5 c 128,-1,24
 994 1456 994 1456 1013.5 1454.5 c 0,25,26
 1060.22352941 1450.90588235 1060.22352941 1450.90588235 1097 1408 c 0,27,28
 1125.62650602 1374.60240964 1125.62650602 1374.60240964 1086.5 1312 c 0,29,30
 1038.83870968 1235.74193548 1038.83870968 1235.74193548 932.919354839 1085.87096774 c 128,-1,31
 827 936 827 936 710 763.5 c 128,-1,32
 593 591 593 591 514.5 478.5 c 128,-1,33
 436 366 436 366 401.5 313 c 128,-1,34
 367 260 367 260 345.5 230 c 128,-1,35
 324 200 324 200 316.5 189.5 c 128,-1,36
 309 179 309 179 303.5 168 c 0,37,38
 281.686567164 124.373134328 281.686567164 124.373134328 315.5 93.5 c 0,39,40
 337.0625 73.8125 337.0625 73.8125 363.53125 71.40625 c 128,-1,41
 390 69 390 69 417.5 67.5 c 128,-1,42
 445 66 445 66 483 68.5 c 128,-1,43
 521 71 521 71 557.5 73 c 128,-1,44
 594 75 594 75 629 74.5 c 128,-1,45
 664 74 664 74 699 74 c 2,46,-1
 804 74 l 2,47,48
 908.5 74 908.5 74 961.75 78.5 c 128,-1,49
 1015 83 1015 83 1050 85 c 1,50,51
 1083.38888889 218.555555556 1083.38888889 218.555555556 1092 315 c 1,52,-1
 1270 376 l 1,53,54
 1263.51724138 262.551724138 1263.51724138 262.551724138 1249.75862069 221.275862069 c 128,-1,55
 1236 180 1236 180 1232.5 163.5 c 0,56,57
 1222.60215054 116.838709677 1222.60215054 116.838709677 1208.30107527 101.419354839 c 128,-1,58
 1194 86 1194 86 1174 74 c 128,-1,59
 1154 62 1154 62 1131.5 53 c 0,60,61
 1061.55813953 25.023255814 1061.55813953 25.023255814 1008.27906977 19.511627907 c 128,-1,62
 955 14 955 14 924 12 c 1,63,-1
 915 12 l 1,64,65
 795 0 795 0 620.5 0 c 2,66,-1
 410 0 l 1,67,-1
 389 -3 l 1,68,69
 240.952941176 -14.3882352941 240.952941176 -14.3882352941 192.476470588 0.805882352941 c 128,-1,70
 144 16 144 16 129.5 39 c 128,-1,71
 115 62 115 62 119.5 84.5 c 128,-1,72
 124 107 124 107 136 129.5 c 128,-1,73
 148 152 148 152 164 173 c 128,-1,74
 180 194 180 194 221.5 256.5 c 128,-1,75
 263 319 263 319 338 424.5 c 128,-1,76
 413 530 413 530 459 598.5 c 128,-1,77
 505 667 505 667 518.5 686.5 c 128,-1,78
 532 706 532 706 542 721 c 128,-1,79
 552 736 552 736 560.5 748.5 c 128,-1,80
 569 761 569 761 578.5 774.5 c 128,-1,81
 588 788 588 788 599.5 805 c 0,82,83
 689.64516129 938.258064516 689.64516129 938.258064516 772 1054 c 1,84,-1
 886 1221 l 2,85,86
 898 1239 898 1239 909.5 1255 c 128,-1,87
 921 1271 921 1271 926 1287 c 0,88,89
 940.430379747 1333.17721519 940.430379747 1333.17721519 894 1368 c 0,90,91
 873.494736842 1383.37894737 873.494736842 1383.37894737 856.247368421 1382.18947368 c 128,-1,92
 839 1381 839 1381 821.5 1379.5 c 128,-1,93
 804 1378 804 1378 771 1377 c 128,-1,94
 738 1376 738 1376 706 1376.5 c 128,-1,95
 674 1377 674 1377 645.5 1378 c 128,-1,96
 617 1379 617 1379 598 1379 c 2,97,-1
 397 1379 l 2,0,1
368 1441 m 1,98,99
 366 1440 366 1440 367.5 1440 c 128,-1,100
 369 1440 369 1440 371 1441 c 1,101,-1
 368 1441 l 1,98,99
943 14 m 1,102,103
 942.732050808 13.7679491924 942.732050808 13.7679491924 942.5 13.5 c 1,104,105
 942.666666667 13.7777777778 942.666666667 13.7777777778 943 14 c 1,102,103
245 1377 m 1,106,-1
 246 1378 l 1,107,-1
 245 1377 l 1,106,-1
1140 92 m 2,108,109
 1141 92 1141 92 1141.5 92.5 c 128,-1,110
 1142 93 1142 93 1141 93 c 2,111,-1
 1140 92 l 2,108,109
EndSplineSet
EndChar

StartChar: x
Encoding: 91 91 63
Width: 676
Flags: W
LayerCount: 2
Fore
SplineSet
639 1454 m 1,0,1
 587 1425.77142857 587 1425.77142857 498 1380 c 1,2,3
 478 1380 478 1380 459 1380.5 c 128,-1,4
 440 1381 440 1381 420 1379 c 1,5,6
 418 1359 418 1359 420.5 1340 c 128,-1,7
 423 1321 423 1321 423 1301 c 2,8,-1
 423 -78 l 2,9,10
 423 -89 423 -89 421 -101.5 c 128,-1,11
 419 -114 419 -114 418 -127.5 c 0,12,13
 415.681318681 -158.802197802 415.681318681 -158.802197802 426 -176 c 0,14,15
 453.308075773 -215.720837488 453.308075773 -215.720837488 591 -213.5 c 0,16,17
 622 -213 622 -213 639 -213 c 1,18,-1
 498 -287 l 1,19,20
 472 -287 472 -287 446.5 -287.5 c 0,21,22
 387.241992883 -288.661921708 387.241992883 -288.661921708 337 -279 c 1,23,-1
 295 -270 l 1,24,25
 233.647110333 -254.093695271 233.647110333 -254.093695271 242.5 -181.5 c 0,26,27
 245 -161 245 -161 245 -139 c 2,28,-1
 245 1240 l 2,29,30
 245 1266 245 1266 240.5 1293 c 128,-1,31
 236 1320 236 1320 245.5 1339.5 c 128,-1,32
 255 1359 255 1359 269 1370.5 c 128,-1,33
 283 1382 283 1382 299.5 1390.5 c 128,-1,34
 316 1399 316 1399 333.5 1405 c 128,-1,35
 351 1411 351 1411 369 1417 c 0,36,37
 480 1454 480 1454 639 1454 c 1,0,1
EndSplineSet
EndChar

StartChar: y
Encoding: 92 92 64
Width: 942
Flags: W
LayerCount: 2
Fore
SplineSet
578 -24 m 1,0,1
 478.283286119 328 478.283286119 328 177 1381 c 1,2,-1
 355 1442 l 1,3,4
 678.466960352 311.466960352 678.466960352 311.466960352 756 37 c 1,5,-1
 578 -24 l 1,0,1
EndSplineSet
EndChar

StartChar: z
Encoding: 93 93 65
Width: 676
Flags: W
LayerCount: 2
Fore
SplineSet
23 -298 m 1,0,1
 112 -252.228571429 112 -252.228571429 164 -224 c 1,2,3
 186 -224 186 -224 207 -224.5 c 128,-1,4
 228 -225 228 -225 250 -224 c 1,5,6
 253 -204 253 -204 250 -183.5 c 128,-1,7
 247 -163 247 -163 247 -146 c 2,8,-1
 247 1226 l 2,9,10
 247 1251 247 1251 249.5 1271.5 c 128,-1,11
 252 1292 252 1292 249 1308.5 c 0,12,13
 242.826923077 1342.45192308 242.826923077 1342.45192308 191 1358 c 1,14,15
 133.25 1369 133.25 1369 23 1369 c 1,16,-1
 164 1443 l 1,17,18
 337.842105263 1443 337.842105263 1443 392 1418.5 c 0,19,20
 433.390784983 1399.77559727 433.390784983 1399.77559727 429 1340.5 c 0,21,22
 428 1327 428 1327 426.5 1313.5 c 128,-1,23
 425 1300 425 1300 425 1287 c 2,24,-1
 425 -85 l 2,25,26
 425 -108 425 -108 426.5 -127.5 c 128,-1,27
 428 -147 428 -147 425.5 -164.5 c 0,28,29
 419.446666667 -206.873333333 419.446666667 -206.873333333 357.5 -236.5 c 0,30,31
 346 -242 346 -242 332.5 -249 c 0,32,33
 289.532258065 -271.279569892 289.532258065 -271.279569892 217.766129032 -285.139784946 c 128,-1,34
 146 -299 146 -299 105 -298.5 c 128,-1,35
 64 -298 64 -298 23 -298 c 1,0,1
319 -215 m 1,36,-1
 320 -214.5 l 1,37,-1
 319 -215 l 1,36,-1
237 -250 m 1,38,39
 236 -250 236 -250 237 -249.5 c 1,40,-1
 237 -250 l 1,38,39
EndSplineSet
EndChar

StartChar: braceleft
Encoding: 94 94 66
Width: 1167
Flags: W
LayerCount: 2
Fore
SplineSet
118 482 m 1,0,-1
 324 969 l 2,1,2
 338 1001 338 1001 352.5 1033.5 c 128,-1,3
 367 1066 367 1066 378.5 1093.5 c 128,-1,4
 390 1121 390 1121 397 1143.5 c 128,-1,5
 404 1166 404 1166 413.5 1188.5 c 0,6,7
 438.377816291 1247.42114385 438.377816291 1247.42114385 470.188908146 1273.21057192 c 128,-1,8
 502 1299 502 1299 540.5 1312 c 128,-1,9
 579 1325 579 1325 602 1333.5 c 0,10,11
 706.331092437 1372.05714286 706.331092437 1372.05714286 746.5 1267 c 0,12,13
 753 1250 753 1250 771 1201.5 c 128,-1,14
 789 1153 789 1153 824 1075 c 128,-1,15
 859 997 859 997 884 940 c 0,16,17
 989.555555556 699.333333333 989.555555556 699.333333333 1040 548 c 1,18,-1
 862 487 l 1,19,20
 788.130099228 697.5292172 788.130099228 697.5292172 700.065049614 892.2646086 c 128,-1,21
 612 1087 612 1087 583 1168 c 1,22,-1
 572 1196 l 1,23,24
 568 1185 568 1185 565 1174.5 c 128,-1,25
 562 1164 562 1164 553.5 1144 c 128,-1,26
 545 1124 545 1124 532 1096 c 128,-1,27
 519 1068 519 1068 485 990.5 c 0,28,29
 411.451388889 822.852430556 411.451388889 822.852430556 294 536 c 1,30,-1
 118 482 l 1,0,-1
EndSplineSet
EndChar

StartChar: bar
Encoding: 95 95 67
Width: 1024
Flags: W
LayerCount: 2
Fore
SplineSet
1043 -169 m 1,0,1
 991 -197.228571429 991 -197.228571429 902 -243 c 1,2,-1
 -18 -243 l 1,3,-1
 123 -169 l 1,4,-1
 1043 -169 l 1,0,1
EndSplineSet
EndChar

StartChar: Uacute
Encoding: 8216 8216 68
Width: 569
Flags: W
LayerCount: 2
Fore
SplineSet
463 1505 m 1,0,1
 266.245125348 1282.01114206 266.245125348 1282.01114206 331 1134 c 0,2,3
 336 1124 336 1124 342.5 1114.5 c 128,-1,4
 349 1105 349 1105 355 1095 c 1,5,-1
 179 1028 l 1,6,-1
 155 1067 l 1,7,8
 138 1097 138 1097 138 1136 c 128,-1,9
 138 1175 138 1175 150.5 1228 c 0,10,11
 174.114649682 1328.12611465 174.114649682 1328.12611465 294 1460 c 1,12,-1
 463 1505 l 1,0,1
EndSplineSet
EndChar

StartChar: asciitilde
Encoding: 97 97 69
Width: 1014
Flags: W
LayerCount: 2
Fore
SplineSet
653 97 m 1,0,1
 446.5 -21 446.5 -21 290.5 -21 c 0,2,3
 133.811320755 -21 133.811320755 -21 86.5 126.5 c 0,4,5
 71 174.823529412 71 174.823529412 71 209.411764706 c 128,-1,6
 71 244 71 244 74.5 278.5 c 128,-1,7
 78 313 78 313 95 347.5 c 128,-1,8
 112 382 112 382 138.5 407.5 c 0,9,10
 204.949081803 471.441569282 204.949081803 471.441569282 420 547 c 1,11,-1
 541 587 l 1,12,13
 600.428571429 612.142857143 600.428571429 612.142857143 648 628 c 1,14,15
 647 645 647 645 647 662 c 128,-1,16
 647 679 647 679 646 690.5 c 128,-1,17
 645 702 645 702 645 711.5 c 2,18,-1
 645 726 l 1,19,20
 639.5234375 802.671875 639.5234375 802.671875 623.76171875 840.8359375 c 128,-1,21
 608 879 608 879 580 906.5 c 128,-1,22
 552 934 552 934 516.5 948 c 0,23,24
 449.09965035 974.58041958 449.09965035 974.58041958 359 957 c 1,25,26
 301.273567468 920.11922366 301.273567468 920.11922366 270 833 c 1,27,-1
 94 779 l 1,28,29
 100 795 100 795 102.5 803 c 128,-1,30
 105 811 105 811 107.5 817 c 0,31,32
 162.461024499 948.906458797 162.461024499 948.906458797 411 1014 c 0,33,34
 646.504322767 1075.67970358 646.504322767 1075.67970358 754.5 976.5 c 0,35,36
 797.323438192 937.172352681 797.323438192 937.172352681 808.661719096 886.58617634 c 128,-1,37
 820 836 820 836 823 806 c 128,-1,38
 826 776 826 776 826.5 745.5 c 128,-1,39
 827 715 827 715 829 653.5 c 128,-1,40
 831 592 831 592 830 499.5 c 128,-1,41
 829 407 829 407 829 338 c 128,-1,42
 829 269 829 269 826.5 224 c 128,-1,43
 824 179 824 179 831.5 153.5 c 0,44,45
 855.255230126 72.7322175732 855.255230126 72.7322175732 895 61.5 c 0,46,47
 930.736156352 51.4006514658 930.736156352 51.4006514658 975.368078176 61.7003257329 c 128,-1,48
 1020 72 1020 72 1044 72 c 1,49,50
 992 43.7714285714 992 43.7714285714 903 -2 c 1,51,-1
 877 -7 l 1,52,-1
 840 -13 l 2,53,54
 750.352941176 -27.9411764706 750.352941176 -27.9411764706 717.176470588 -6.47058823529 c 0,55,56
 665.020163788 27.283050031 665.020163788 27.283050031 653 97 c 1,0,1
527 81 m 1,57,58
 575.961538462 109.346153846 575.961538462 109.346153846 596.480769231 118.673076923 c 0,59,60
 632.666666667 135.121212121 632.666666667 135.121212121 649 147 c 1,61,62
 646 219 646 219 649 291 c 128,-1,63
 652 363 652 363 653 435 c 1,64,-1
 653 530 l 1,65,-1
 651 584 l 1,66,67
 622.8 580.866666667 622.8 580.866666667 602.4 572.933333333 c 128,-1,68
 582 565 582 565 557 555.5 c 0,69,70
 486.255319149 528.617021277 486.255319149 528.617021277 460.127659574 520.308510638 c 128,-1,71
 434 512 434 512 401 501.5 c 128,-1,72
 368 491 368 491 339.5 475 c 0,73,74
 249 424.192982456 249 424.192982456 249 281 c 1,75,76
 257.307639367 81.6166551961 257.307639367 81.6166551961 416 53 c 0,77,78
 444.97260274 49.1369863014 444.97260274 49.1369863014 477 56 c 1,79,-1
 478 57 l 1,80,-1
 480 57 l 1,81,-1
 481 58 l 1,82,83
 485 60 485 60 488.5 61.5 c 128,-1,84
 492 63 492 63 496 65 c 2,85,-1
 527 81 l 1,57,58
468 53 m 0,86,87
 466 52 466 52 467.5 52 c 128,-1,88
 469 52 469 52 471 54 c 1,89,90
 470 53 470 53 468 53 c 0,86,87
EndSplineSet
EndChar

StartChar: Adieresis
Encoding: 98 98 70
Width: 1164
Flags: W
LayerCount: 2
Fore
SplineSet
122 1510 m 1,0,1
 255.076580588 1529.71504898 255.076580588 1529.71504898 324 1490.5 c 0,2,3
 375.197530864 1461.37037037 375.197530864 1461.37037037 367.5 1369 c 0,4,5
 366 1351 366 1351 364 1333 c 128,-1,6
 362 1315 362 1315 362 1297 c 2,7,-1
 362 989 l 2,8,9
 362 963 362 963 360 938.5 c 128,-1,10
 358 914 358 914 360 888 c 1,11,12
 532.114139693 1010.93867121 532.114139693 1010.93867121 728 1024.5 c 0,13,14
 872.16496945 1034.48065173 872.16496945 1034.48065173 963 955 c 0,15,16
 1070.56338028 862.802816901 1070.56338028 862.802816901 1090 649 c 0,17,18
 1102.00253165 516.972151899 1102.00253165 516.972151899 1083.50126582 415.986075949 c 128,-1,19
 1065 315 1065 315 1046 270.5 c 0,20,21
 1008.90215827 183.61294964 1008.90215827 183.61294964 959.451079137 132.30647482 c 128,-1,22
 910 81 910 81 838 43.5 c 128,-1,23
 766 6 766 6 686 -13 c 0,24,25
 463.10324699 -65.9379788398 463.10324699 -65.9379788398 295.5 41.5 c 0,26,27
 196.05 105.25 196.05 105.25 187.525 120.625 c 128,-1,28
 179 136 179 136 181.5 154.5 c 128,-1,29
 184 173 184 173 184 193 c 2,30,-1
 184 777 l 1,31,-1
 270 806 l 1,32,-1
 187 781 l 1,33,34
 179 819 179 819 181.5 854.5 c 128,-1,35
 184 890 184 890 184 928 c 2,36,-1
 184 1236 l 2,37,38
 184 1264 184 1264 188 1293 c 128,-1,39
 192 1322 192 1322 189.5 1348.5 c 0,40,41
 183.69239905 1410.06057007 183.69239905 1410.06057007 128 1432 c 0,42,43
 88.4347826087 1447.82608696 88.4347826087 1447.82608696 0 1438 c 1,44,-1
 122 1510 l 1,0,1
362 834 m 1,45,-1
 362 254 l 2,46,47
 362 240 362 240 359 223 c 0,48,49
 351.596982759 181.049568966 351.596982759 181.049568966 394 159 c 1,50,-1
 406 151 l 2,51,52
 407 151 407 151 411.5 148 c 128,-1,53
 416 145 416 145 422 142 c 0,54,55
 436 135 436 135 445.5 128 c 128,-1,56
 455 121 455 121 467 112.5 c 128,-1,57
 479 104 479 104 490 97.5 c 0,58,59
 611.639225182 25.6222760291 611.639225182 25.6222760291 739 46 c 1,60,61
 915 146.571428571 915 146.571428571 915 503 c 0,62,63
 915 852.230769231 915 852.230769231 708 934.5 c 0,64,65
 652.872367581 956.409700064 652.872367581 956.409700064 606.936183791 953.204850032 c 128,-1,66
 561 950 561 950 543 940.5 c 128,-1,67
 525 931 525 931 510 919.5 c 0,68,69
 462.218543046 882.867549669 462.218543046 882.867549669 369 839 c 1,70,-1
 362 834 l 1,45,-1
381 845.5 m 2,71,-1
 393.5 851 l 2,72,73
 388 849 388 849 381 845.5 c 2,71,-1
455 882 m 1,74,-1
 454 881 l 1,75,-1
 455 882 l 1,74,-1
454 881 m 2,76,-1
 451 879 l 2,77,78
 450 879 450 879 454 881 c 2,76,-1
413 148 m 1,79,-1
 409 150 l 1,80,-1
 413 148 l 1,79,-1
371 842 m 2,81,-1
 369 840 l 2,82,83
 370 842 370 842 371 842.5 c 128,-1,84
 372 843 372 843 371 842 c 2,81,-1
406 151 m 1,85,-1
 407 151 l 1,86,-1
 406 151 l 1,85,-1
EndSplineSet
EndChar

StartChar: Aring
Encoding: 99 99 71
Width: 984
Flags: W
LayerCount: 2
Fore
SplineSet
965 262 m 1,0,1
 921.12 174.24 921.12 174.24 881.56 132.12 c 0,2,3
 820.110016275 66.6934753662 820.110016275 66.6934753662 693 20 c 0,4,5
 488.191685912 -61.2170900693 488.191685912 -61.2170900693 319 -2 c 0,6,7
 152.371868979 56.3198458574 152.371868979 56.3198458574 95 262.5 c 0,8,9
 47.4968944099 433.214285714 47.4968944099 433.214285714 87 622.5 c 0,10,11
 118.119247897 771.61306284 118.119247897 771.61306284 191 854 c 0,12,13
 314.935762817 994.101297097 314.935762817 994.101297097 563 1032 c 0,14,15
 666.375 1046.25862069 666.375 1046.25862069 754 1010 c 0,16,17
 827.15483871 979.729032258 827.15483871 979.729032258 891 868 c 1,18,-1
 715 801 l 1,19,20
 705 818 705 818 697 834.5 c 128,-1,21
 689 851 689 851 671.5 873 c 128,-1,22
 654 895 654 895 625 915 c 128,-1,23
 596 935 596 935 563 946.5 c 0,24,25
 496.972522898 969.509575354 496.972522898 969.509575354 424 957 c 1,26,27
 320.078516903 895.296619411 320.078516903 895.296619411 275 725 c 0,28,29
 214.040557441 498.095408254 214.040557441 498.095408254 282.5 300 c 0,30,31
 360.805506217 73.4138543517 360.805506217 73.4138543517 580 48 c 0,32,33
 627.666666667 42.7037037037 627.666666667 42.7037037037 665 51 c 1,34,-1
 668 51 l 1,35,36
 679.666666667 56.8333333333 679.666666667 56.8333333333 703.833333333 78.4166666667 c 0,37,38
 738.23411947 109.140127389 738.23411947 109.140127389 789 208 c 1,39,-1
 965 262 l 1,0,1
EndSplineSet
EndChar

StartChar: Ccedilla
Encoding: 100 100 72
Width: 1225
Flags: W
LayerCount: 2
Fore
SplineSet
795 1492 m 1,0,1
 841 1498 841 1498 872 1498 c 128,-1,2
 903 1498 903 1498 925 1495.5 c 128,-1,3
 947 1493 947 1493 968 1486.5 c 0,4,5
 1046.17014925 1462.30447761 1046.17014925 1462.30447761 1037 1392 c 0,6,7
 1034 1369 1034 1369 1034 1346 c 2,8,-1
 1034 1115 l 1,9,-1
 1030 172 l 2,10,11
 1030 156 1030 156 1028.5 140 c 128,-1,12
 1027 124 1027 124 1036.5 104 c 128,-1,13
 1046 84 1046 84 1068 71 c 128,-1,14
 1090 58 1090 58 1116.5 51.5 c 128,-1,15
 1143 45 1143 45 1170.5 44 c 2,16,-1
 1234 41.5 l 2,17,18
 1232.17157288 41.0410533906 1232.17157288 41.0410533906 1227 41 c 1,19,20
 1175 12.7714285714 1175 12.7714285714 1086 -33 c 1,21,22
 862.56 -33 862.56 -33 850.5 67.5 c 0,23,24
 849 80 849 80 850 94 c 1,25,26
 719.8 7.2 719.8 7.2 566.5 -22 c 0,27,28
 327.234482759 -67.5743842365 327.234482759 -67.5743842365 209 114 c 0,29,30
 130.625866051 234.360277136 130.625866051 234.360277136 120 415 c 0,31,32
 108.386117137 612.436008677 108.386117137 612.436008677 185.5 752.5 c 0,33,34
 244.092957746 858.923943662 244.092957746 858.923943662 297.046478873 898.961971831 c 128,-1,35
 350 939 350 939 388.5 956.5 c 0,36,37
 466.470588235 991.941176471 466.470588235 991.941176471 541.735294118 1013.97058824 c 0,38,39
 681.135338346 1054.77192982 681.135338346 1054.77192982 856 992 c 1,40,-1
 856 1285 l 2,41,42
 856 1313 856 1313 857 1334 c 128,-1,43
 858 1355 858 1355 852 1371.5 c 0,44,45
 839.857988166 1404.89053254 839.857988166 1404.89053254 779 1421 c 0,46,47
 767 1424 767 1424 746.5 1424 c 0,48,49
 709 1424 709 1424 673 1420 c 1,50,-1
 795 1492 l 1,0,1
694 62 m 128,-1,52
 710 71 710 71 731.5 86 c 0,53,54
 809.210031348 140.21630094 809.210031348 140.21630094 852 161 c 1,55,56
 853 201 853 201 854.5 240.5 c 128,-1,57
 856 280 856 280 856 320 c 2,58,-1
 856 847 l 1,59,60
 686.375875486 929.839688716 686.375875486 929.839688716 609.687937743 943.419844358 c 128,-1,61
 533 957 533 957 484 954 c 1,62,63
 325.877800407 847.62688391 325.877800407 847.62688391 300.5 604 c 0,64,65
 276.701754386 375.536842105 276.701754386 375.536842105 372 204 c 0,66,67
 472.656699029 25.4155339806 472.656699029 25.4155339806 645 45 c 0,68,69
 656 45 656 45 670 48 c 0,70,51
 678 53 678 53 694 62 c 128,-1,52
EndSplineSet
EndChar

StartChar: Eacute
Encoding: 101 101 73
Width: 1003
Flags: W
LayerCount: 2
Fore
SplineSet
282 537 m 2,0,1
 264 537 264 537 254 535 c 1,2,-1
 249 535 l 1,3,-1
 249 515 l 1,4,5
 252.778390717 276.96138482 252.778390717 276.96138482 365.5 147 c 0,6,7
 468.577464789 28.1577464789 468.577464789 28.1577464789 667 48 c 1,8,9
 731.76635514 85.0093457944 731.76635514 85.0093457944 787 201 c 1,10,-1
 963 255 l 1,11,12
 892.423387097 107.709677419 892.423387097 107.709677419 769.5 49 c 0,13,14
 527.850677238 -66.4146019161 527.850677238 -66.4146019161 339 -12 c 0,15,16
 78.1059479554 63.1728624535 78.1059479554 63.1728624535 71 454 c 0,17,18
 68.7797356828 538.370044053 68.7797356828 538.370044053 87 598 c 1,19,20
 102.932563075 892.752416883 102.932563075 892.752416883 369.5 993 c 0,21,22
 488.976360638 1037.93128092 488.976360638 1037.93128092 556.488180319 1039.46564046 c 128,-1,23
 624 1041 624 1041 666 1032 c 0,24,25
 829.426433915 996.980049875 829.426433915 996.980049875 883 846 c 1,26,27
 946.030837004 688.422907489 946.030837004 688.422907489 865 620.5 c 0,28,29
 801.984034833 567.677793904 801.984034833 567.677793904 694 547 c 0,30,31
 636.555555556 536 636.555555556 536 561.277777778 536 c 2,32,-1
 443 536 l 1,33,-1
 282 537 l 2,0,1
704 611 m 1,34,-1
 724 610 l 1,35,36
 741.5 655 741.5 655 729.75 702 c 128,-1,37
 718 749 718 749 704 787 c 128,-1,38
 690 825 690 825 659.5 862.5 c 128,-1,39
 629 900 629 900 589 925.5 c 0,40,41
 502.178005592 980.849021435 502.178005592 980.849021435 405 963 c 1,42,43
 373.306451613 945.568548387 373.306451613 945.568548387 339.653225806 894.284274194 c 0,44,45
 275.422042008 796.402137704 275.422042008 796.402137704 265 663 c 1,46,47
 266 663 266 663 266 663.5 c 128,-1,48
 266 664 266 664 267 664 c 1,49,50
 266 662 266 662 266 661 c 128,-1,51
 266 660 266 660 269.5 655.5 c 0,52,53
 283.5 637.5 283.5 637.5 294 627 c 1,54,55
 310.666666667 617 310.666666667 617 313.333333333 615 c 128,-1,56
 316 613 316 613 323 611 c 0,57,58
 355.277777778 601.777777778 355.277777778 601.777777778 380.638888889 606.388888889 c 128,-1,59
 406 611 406 611 423 611 c 2,60,-1
 704 611 l 1,34,-1
EndSplineSet
EndChar

StartChar: Ntilde
Encoding: 102 102 74
Width: 653
Flags: W
LayerCount: 2
Fore
SplineSet
221 911 m 1,0,-1
 220 959 l 1,1,-1
 19 959 l 1,2,-1
 160 1033 l 1,3,-1
 220 1033 l 1,4,5
 220 1230.95454545 220 1230.95454545 238.5 1307.47727273 c 128,-1,6
 257 1384 257 1384 278 1420.5 c 0,7,8
 334.920883165 1519.43391598 334.920883165 1519.43391598 523 1560 c 0,9,10
 685.44619666 1595.03741497 685.44619666 1595.03741497 789 1449 c 1,11,-1
 613 1382 l 1,12,13
 554.624817518 1464.15766423 554.624817518 1464.15766423 473 1489 c 0,14,15
 469 1489 469 1489 465 1491 c 1,16,17
 407.473520249 1404.71028037 407.473520249 1404.71028037 401.5 1204 c 0,18,19
 399 1120 399 1120 399 1033 c 1,20,-1
 679 1033 l 1,21,22
 627 1004.77142857 627 1004.77142857 538 959 c 1,23,-1
 399 959 l 1,24,-1
 399 236 l 2,25,26
 399 206 399 206 401.5 182 c 128,-1,27
 404 158 404 158 394 136 c 1,28,-1
 399 138 l 1,29,30
 467.922580645 79.288172043 467.922580645 79.288172043 571.5 76 c 0,31,32
 603 75 603 75 637 75 c 1,33,34
 585 46.7714285714 585 46.7714285714 496 1 c 1,35,36
 371.117647059 1 371.117647059 1 329.058823529 14 c 128,-1,37
 287 27 287 27 260 43 c 1,38,39
 155 1 155 1 15 1 c 1,40,-1
 156 75 l 1,41,42
 171 75 171 75 186 75 c 128,-1,43
 201 75 201 75 215 76 c 1,44,45
 229.444444444 90.4444444444 229.444444444 90.4444444444 221.722222222 154.222222222 c 128,-1,46
 214 218 214 218 217.5 285.5 c 128,-1,47
 221 353 221 353 221 421 c 2,48,-1
 221 911 l 1,0,-1
188 52 m 2,49,50
 188.785533906 52.4142135624 188.785533906 52.4142135624 190 53 c 2,51,-1
 188 52 l 2,49,50
EndSplineSet
EndChar

StartChar: Odieresis
Encoding: 103 103 75
Width: 1065
Flags: W
LayerCount: 2
Fore
SplineSet
1121 1038 m 1,0,1
 1105 1023 1105 1023 1090.5 1007 c 128,-1,2
 1076 991 1076 991 1048.5 970 c 0,3,4
 988.444589309 924.139504563 988.444589309 924.139504563 876 905 c 1,5,6
 866.232876712 878.9543379 866.232876712 878.9543379 876.616438356 843.47716895 c 128,-1,7
 887 808 887 808 893.5 788.5 c 128,-1,8
 900 769 900 769 903.5 745 c 128,-1,9
 907 721 907 721 906 686.5 c 128,-1,10
 905 652 905 652 897 618.5 c 0,11,12
 867.053500285 493.099032442 867.053500285 493.099032442 761.5 425 c 0,13,14
 618.057233704 332.456279809 618.057233704 332.456279809 421.5 326.5 c 0,15,16
 405 326 405 326 387 327 c 1,17,18
 322.189107413 258.376701967 322.189107413 258.376701967 320 213.5 c 0,19,20
 319 193 319 193 332.5 167.5 c 128,-1,21
 346 142 346 142 377.5 127.5 c 128,-1,22
 409 113 409 113 446.5 106.5 c 0,23,24
 489.769230769 99 489.769230769 99 556.384615385 99 c 128,-1,25
 623 99 623 99 662 99.5 c 128,-1,26
 701 100 701 100 739.5 97.5 c 0,27,28
 960.466502981 83.1515257804 960.466502981 83.1515257804 1015 -55 c 0,29,30
 1030 -93 1030 -93 1030 -136.5 c 128,-1,31
 1030 -180 1030 -180 1020.5 -217 c 0,32,33
 1000.5412844 -294.733944954 1000.5412844 -294.733944954 975.270642202 -334.866972477 c 0,34,35
 931.314004261 -404.675762701 931.314004261 -404.675762701 801 -466 c 0,36,37
 600.252336449 -563.028037383 600.252336449 -563.028037383 406.5 -541.5 c 0,38,39
 267.569620253 -526.063291139 267.569620253 -526.063291139 174 -441 c 0,40,41
 93.2116522531 -364.058716431 93.2116522531 -364.058716431 102 -257.5 c 0,42,43
 110.424722662 -155.350237718 110.424722662 -155.350237718 196 -82 c 0,44,45
 210.181818182 -70.1818181818 210.181818182 -70.1818181818 249 -48 c 0,46,47
 266 -34 266 -34 277 -11 c 128,-1,48
 288 12 288 12 302 31 c 1,49,50
 164.587719298 46.8552631579 164.587719298 46.8552631579 145 135 c 0,51,52
 133.98980632 188.478083588 133.98980632 188.478083588 190.5 251 c 0,53,54
 214 277 214 277 239 301.5 c 128,-1,55
 264 326 264 326 277 352 c 1,56,-1
 286 355 l 1,57,58
 227.726618705 395.791366906 227.726618705 395.791366906 208.863309353 420.395683453 c 128,-1,59
 190 445 190 445 167 486 c 128,-1,60
 144 527 144 527 135 596 c 128,-1,61
 126 665 126 665 141.5 731 c 0,62,63
 175.783628137 876.981900452 175.783628137 876.981900452 298 941 c 0,64,65
 420.390438247 1007.93227092 420.390438247 1007.93227092 565 1024 c 0,66,67
 695.570347003 1038.19242902 695.570347003 1038.19242902 791.5 968 c 0,68,69
 812 953 812 953 833 939 c 1,70,-1
 876 952 l 2,71,72
 907 960.454545455 907 960.454545455 921 963 c 1,73,-1
 952 993 l 1,74,-1
 1121 1038 l 1,0,1
675 9 m 0,75,76
 617 25 617 25 557 24.5 c 128,-1,77
 497 24 497 24 437 24 c 1,78,79
 407.545454545 -17.7272727273 407.545454545 -17.7272727273 359 -42 c 1,80,81
 283.195121951 -113.707317073 283.195121951 -113.707317073 279 -206 c 0,82,83
 274.61452514 -302.480446927 274.61452514 -302.480446927 350 -374 c 0,84,85
 462.042843233 -480.831548199 462.042843233 -480.831548199 650 -473 c 0,86,87
 706.192771084 -470.658634538 706.192771084 -470.658634538 729.596385542 -453.329317269 c 128,-1,88
 753 -436 753 -436 767 -423 c 128,-1,89
 781 -410 781 -410 792 -395.5 c 0,90,91
 827.158663883 -349.154488518 827.158663883 -349.154488518 835.079331942 -314.077244259 c 128,-1,92
 843 -279 843 -279 846 -265 c 0,93,94
 866 -164 866 -164 823.5 -92 c 128,-1,95
 781 -20 781 -20 675 9 c 0,75,76
727 611.5 m 0,96,97
 730 652 730 652 725.5 681.5 c 128,-1,98
 721 711 721 711 714 730.5 c 128,-1,99
 707 750 707 750 701 770.5 c 0,100,101
 686.602385686 819.691848907 686.602385686 819.691848907 698 849 c 1,102,103
 667 861 667 861 642.5 880.5 c 128,-1,104
 618 900 618 900 584 920 c 0,105,106
 511.518453427 962.636203866 511.518453427 962.636203866 411 947 c 1,107,108
 331.754716981 871.528301887 331.754716981 871.528301887 316.877358491 781.264150943 c 0,109,110
 285.306568714 589.71734271 285.306568714 589.71734271 402 469 c 0,111,112
 416 455 416 455 432.5 443.5 c 128,-1,113
 449 432 449 432 463.5 421.5 c 128,-1,114
 478 411 478 411 494 407 c 128,-1,115
 510 403 510 403 527 401.5 c 0,116,117
 552.947368421 399.210526316 552.947368421 399.210526316 573.473684211 400.605263158 c 128,-1,118
 594 402 594 402 603.5 402.5 c 128,-1,119
 613 403 613 403 621 404 c 1,120,121
 717.01783591 476.74078478 717.01783591 476.74078478 727 611.5 c 0,96,97
1002 978 m 256,122,123
 1001 978 1001 978 1000 977 c 1,124,125
 1002 977 1002 977 1002.5 977.5 c 128,-1,126
 1003 978 1003 978 1002 978 c 256,122,123
EndSplineSet
EndChar

StartChar: Udieresis
Encoding: 104 104 76
Width: 1242
Flags: W
LayerCount: 2
Fore
SplineSet
149.5 69 m 1,0,-1
 190 71 l 1,1,-1
 197 71 l 1,2,-1
 204 76 l 1,3,4
 202 87 202 87 202 98 c 2,5,-1
 202 602 l 2,6,7
 202 645 202 645 198.5 687.5 c 128,-1,8
 195 730 195 730 206 772 c 1,9,-1
 314 809 l 1,10,-1
 206 776 l 1,11,12
 198 814 198 814 200 851.5 c 128,-1,13
 202 889 202 889 202 927 c 2,14,-1
 202 1359 l 2,15,16
 202 1402.75 202 1402.75 191.5 1415.875 c 0,17,18
 175.257425743 1436.17821782 175.257425743 1436.17821782 143.628712871 1443.58910891 c 128,-1,19
 112 1451 112 1451 98 1451 c 128,-1,20
 84 1451 84 1451 68.5 1450.5 c 0,21,22
 32.3333333333 1449.33333333 32.3333333333 1449.33333333 4 1446 c 1,23,-1
 145 1520 l 1,24,25
 351.301886792 1538.75471698 351.301886792 1538.75471698 378 1464 c 0,26,27
 383 1453 383 1453 381.5 1442 c 128,-1,28
 380 1431 380 1431 380 1420 c 2,29,-1
 380 988 l 2,30,31
 380 962 380 962 378.5 937.5 c 128,-1,32
 377 913 377 913 379 888 c 1,33,34
 460.088235294 955.573529412 460.088235294 955.573529412 595 998.5 c 0,35,36
 630.666666667 1009.84848485 630.666666667 1009.84848485 769 1035 c 1,37,38
 881.334328358 1044.17014925 881.334328358 1044.17014925 952 988 c 0,39,40
 1059.95856941 906.431303116 1059.95856941 906.431303116 1056 661 c 0,41,42
 1055 599 1055 599 1055 549 c 2,43,-1
 1055 219 l 2,44,45
 1055 199 1055 199 1057.5 174 c 128,-1,46
 1060 149 1060 149 1050 130 c 1,47,-1
 1055 132 l 1,48,49
 1119.58823529 71 1119.58823529 71 1243.5 71 c 0,50,51
 1254 71 1254 71 1264 68 c 1,52,-1
 1096 -2 l 1,53,54
 1116 -7 1116 -7 1106 -5 c 128,-1,55
 1096 -3 1096 -3 1094 -3 c 2,56,-1
 1092 -3 l 1,57,-1
 1065 -1 l 1,58,-1
 1008 5 l 2,59,60
 955 11 955 11 913 38 c 1,61,62
 811.823529412 -5 811.823529412 -5 668 -5 c 1,63,64
 757 40.7714285714 757 40.7714285714 809 69 c 1,65,66
 828 69 828 69 839 68.5 c 128,-1,67
 850 68 850 68 870 70 c 1,68,69
 882.340425532 82.3404255319 882.340425532 82.3404255319 880.170212766 105.670212766 c 128,-1,70
 878 129 878 129 878 146 c 1,71,72
 861.65034965 190.144055944 861.65034965 190.144055944 865.825174825 238.572027972 c 128,-1,73
 870 287 870 287 873.5 316 c 128,-1,74
 877 345 877 345 877 374 c 2,75,-1
 877 488 l 2,76,77
 877 524 877 524 877.5 567.5 c 128,-1,78
 878 611 878 611 876 656.5 c 128,-1,79
 874 702 874 702 866.5 746.5 c 128,-1,80
 859 791 859 791 842.5 830 c 0,81,82
 806.189988623 915.823663254 806.189988623 915.823663254 731 947 c 0,83,84
 630.489051095 987.948905109 630.489051095 987.948905109 494 893 c 1,85,-1
 448 866 l 2,86,87
 432 857 432 857 416 849 c 128,-1,88
 400 841 400 841 384 832 c 1,89,90
 373 790 373 790 376.5 748 c 128,-1,91
 380 706 380 706 380 663 c 2,92,-1
 380 181 l 2,93,94
 380 113.65625 380 113.65625 423 93.5 c 0,95,96
 452.744034707 79.557483731 452.744034707 79.557483731 483.872017354 77.7787418655 c 128,-1,97
 515 76 515 76 531 75 c 0,98,99
 570.272727273 72.5454545455 570.272727273 72.5454545455 593 68 c 1,100,-1
 436 -5 l 1,101,102
 415 -2 415 -2 387.5 -0.5 c 128,-1,103
 360 1 360 1 331 4 c 0,104,105
 260.264550265 11.3174603175 260.264550265 11.3174603175 229 36 c 1,106,107
 130 -0.666666666667 130 -0.666666666667 0 -5 c 1,108,109
 89 40.7714285714 89 40.7714285714 141 69 c 1,110,-1
 149.5 69 l 1,0,-1
841 46 m 1,111,-1
 851 51 l 1,112,-1
 841 46 l 1,111,-1
EndSplineSet
EndChar

StartChar: aacute
Encoding: 105 105 77
Width: 596
Flags: W
LayerCount: 2
Fore
SplineSet
14 1 m 1,0,1
 103 46.7714285714 103 46.7714285714 155 75 c 1,2,3
 173 75 173 75 183.5 74.5 c 128,-1,4
 194 74 194 74 211 76 c 1,5,6
 220 89.5 220 89.5 220 133 c 2,7,-1
 220 857 l 2,8,9
 220 901.153846154 220 901.153846154 212 914.076923077 c 0,10,11
 187.285714286 954 187.285714286 954 111 954 c 0,12,13
 87 954 87 954 63.5 953 c 128,-1,14
 40 952 40 952 17 952 c 1,15,-1
 158 1026 l 1,16,-1
 252 1028 l 1,17,18
 346.117647059 1028 346.117647059 1028 384.5 984.5 c 0,19,20
 398 969.2 398 969.2 398 945.5 c 2,21,-1
 398 194 l 2,22,23
 398 180 398 180 398.5 166.5 c 0,24,25
 399.068965517 151.137931034 399.068965517 151.137931034 391 135 c 1,26,-1
 398 138 l 1,27,28
 462.680395387 78.9439868204 462.680395387 78.9439868204 611 74 c 1,29,-1
 454 1 l 1,30,31
 324.095890411 5.81126331811 324.095890411 5.81126331811 258 44 c 1,32,33
 147.695652174 1 147.695652174 1 14 1 c 1,0,1
678 1840 m 1,34,-1
 390 1251 l 1,35,-1
 225 1251 l 1,36,-1
 221 1413 l 1,37,-1
 678 1840 l 1,34,-1
EndSplineSet
EndChar

StartChar: agrave
Encoding: 106 106 78
Width: 573
Flags: W
LayerCount: 2
Fore
SplineSet
169 1025 m 1,0,1
 196 1025 196 1025 229.5 1027.5 c 128,-1,2
 263 1030 263 1030 295.5 1027 c 0,3,4
 372.329781268 1019.90802019 372.329781268 1019.90802019 401 971 c 0,5,6
 415.220472441 948.653543307 415.220472441 948.653543307 410.11023622 910.326771654 c 128,-1,7
 405 872 405 872 405 860 c 2,8,-1
 405 383 l 2,9,10
 405 334 405 334 406.5 275.5 c 128,-1,11
 408 217 408 217 407.5 154.5 c 128,-1,12
 407 92 407 92 404 28.5 c 128,-1,13
 401 -35 401 -35 391 -94.5 c 0,14,15
 364.039785427 -254.91327671 364.039785427 -254.91327671 294.5 -330.5 c 0,16,17
 283 -343 283 -343 268.5 -359.5 c 128,-1,18
 254 -376 254 -376 232 -391 c 128,-1,19
 210 -406 210 -406 185 -418.5 c 0,20,21
 28.4864864865 -496.756756757 28.4864864865 -496.756756757 -96 -510 c 1,22,-1
 26 -438 l 1,23,24
 32 -437 32 -437 38 -437 c 0,25,26
 46.4285714286 -437 46.4285714286 -437 66.2142857143 -427.5 c 128,-1,27
 86 -418 86 -418 103 -401 c 0,28,29
 222.486171943 -286.390814666 222.486171943 -286.390814666 226 3.5 c 0,30,31
 227 86 227 86 227 170 c 2,32,-1
 227 799 l 2,33,34
 227 809 227 809 228.5 823.5 c 128,-1,35
 230 838 230 838 231 853.5 c 0,36,37
 235.073569482 916.640326975 235.073569482 916.640326975 185 939.5 c 0,38,39
 145.358823529 957.597058824 145.358823529 957.597058824 99.1794117647 954.298529412 c 128,-1,40
 53 951 53 951 28 951 c 1,41,-1
 169 1025 l 1,0,1
678 1840 m 1,42,-1
 390 1251 l 1,43,-1
 225 1251 l 1,44,-1
 221 1413 l 1,45,-1
 678 1840 l 1,42,-1
EndSplineSet
EndChar

StartChar: acircumflex
Encoding: 107 107 79
Width: 1073
Flags: W
LayerCount: 2
Fore
SplineSet
840 966 m 1,0,-1
 837 965 l 1,1,2
 818 946 818 946 800.5 927 c 128,-1,3
 783 908 783 908 758.5 882.5 c 128,-1,4
 734 857 734 857 705 826.5 c 128,-1,5
 676 796 676 796 651.5 763 c 0,6,7
 598.435558493 691.525446134 598.435558493 691.525446134 582 613 c 1,8,9
 599 605 599 605 604.5 586 c 128,-1,10
 610 567 610 567 597 554 c 1,11,12
 698.95703125 397.5078125 698.95703125 397.5078125 887 195 c 0,13,14
 979.7265625 95.140625 979.7265625 95.140625 1079.5 77 c 0,15,16
 1118 70 1118 70 1155 60 c 1,17,-1
 986 -11 l 1,18,19
 949 -2 949 -2 910 5 c 128,-1,20
 871 12 871 12 819.5 40.5 c 0,21,22
 742.636636637 83.036036036 742.636636637 83.036036036 611 241 c 0,23,24
 462.25 419.5 462.25 419.5 406 512 c 1,25,-1
 411 514 l 1,26,-1
 381 514 l 1,27,-1
 381 420 l 1,28,-1
 377 219 l 2,29,30
 377 205 377 205 376 192 c 128,-1,31
 375 179 375 179 375.5 166 c 0,32,33
 377.749488055 107.51331058 377.749488055 107.51331058 441.5 88.5 c 0,34,35
 493.470588235 73 493.470588235 73 573 73 c 1,36,37
 521 44.7714285714 521 44.7714285714 432 -1 c 1,38,39
 276.411764706 -1 276.411764706 -1 227 41 c 1,40,41
 126.902439024 3.46341463415 126.902439024 3.46341463415 -7 -1 c 1,42,43
 82 44.7714285714 82 44.7714285714 134 73 c 1,44,45
 151 74 151 74 166.5 74 c 128,-1,46
 182 74 182 74 198 76 c 1,47,-1
 201 79 l 1,48,49
 196 98 196 98 197.5 117.5 c 128,-1,50
 199 137 199 137 199 158 c 2,51,-1
 203 359 l 1,52,-1
 203 1321 l 2,53,54
 203 1348 203 1348 204 1368.5 c 128,-1,55
 205 1389 205 1389 200 1404.5 c 0,56,57
 189.968879668 1435.59647303 189.968879668 1435.59647303 128 1452 c 0,58,59
 117 1455 117 1455 109.5 1455.5 c 128,-1,60
 102 1456 102 1456 87 1457 c 0,61,62
 52.7692307692 1459.28205128 52.7692307692 1459.28205128 20 1452 c 1,63,-1
 119 1520 l 1,64,65
 280.607228916 1551.07831325 280.607228916 1551.07831325 352 1501.5 c 0,66,67
 384.05630355 1479.23867809 384.05630355 1479.23867809 382.528151775 1445.61933905 c 128,-1,68
 381 1412 381 1412 381 1382 c 2,69,-1
 381 591 l 1,70,71
 396 591 396 591 413 594 c 1,72,-1
 427 629 l 1,73,74
 453.197674419 688.381395349 453.197674419 688.381395349 494.098837209 734.190697674 c 128,-1,75
 535 780 535 780 561 806.5 c 128,-1,76
 587 833 587 833 607 854.5 c 128,-1,77
 627 876 627 876 641.5 892 c 128,-1,78
 656 908 656 908 676 927.5 c 128,-1,79
 696 947 696 947 726 965 c 128,-1,80
 756 983 756 983 789 996 c 0,81,82
 879.951219512 1031.82926829 879.951219512 1031.82926829 1002 1042 c 1,83,-1
 1060 1045 l 1,84,-1
 1068 1045 l 2,85,86
 1071 1045 1071 1045 1073.5 1045.5 c 128,-1,87
 1076 1046 1076 1046 1078 1046 c 1,88,89
 1021.91935484 1019.43548387 1021.91935484 1019.43548387 978.459677419 993.717741935 c 128,-1,90
 935 968 935 968 922.5 967 c 128,-1,91
 910 966 910 966 875 966 c 2,92,-1
 840 966 l 1,0,-1
856 981 m 1,93,-1
 855 980 l 1,94,-1
 856 981 l 1,93,-1
EndSplineSet
EndChar

StartChar: adieresis
Encoding: 108 108 80
Width: 571
Flags: W
LayerCount: 2
Fore
SplineSet
-9 -1 m 1,0,1
 80 44.7714285714 80 44.7714285714 132 73 c 1,2,-1
 163 73 l 2,3,4
 178 73 178 73 194 74 c 0,5,6
 194 76 194 76 199 83 c 128,-1,7
 204 90 204 90 204 106 c 128,-1,8
 204 122 204 122 200.5 157.5 c 128,-1,9
 197 193 197 193 198.5 249.5 c 128,-1,10
 200 306 200 306 200 366 c 2,11,-1
 200 1313 l 2,12,13
 200 1334 200 1334 202 1354.5 c 128,-1,14
 204 1375 204 1375 200.5 1394 c 128,-1,15
 197 1413 197 1413 184.5 1424.5 c 128,-1,16
 172 1436 172 1436 155.5 1443 c 0,17,18
 124.857142857 1456 124.857142857 1456 97.9285714286 1456 c 0,19,20
 41 1456 41 1456 17 1452 c 1,21,-1
 139 1524 l 1,22,23
 185 1530 185 1530 216.5 1530 c 128,-1,24
 248 1530 248 1530 266 1528.5 c 128,-1,25
 284 1527 284 1527 301 1522.5 c 0,26,27
 389.020057307 1499.20057307 389.020057307 1499.20057307 379.5 1404 c 0,28,29
 378 1389 378 1389 378 1374 c 2,30,-1
 378 226 l 2,31,32
 378 196 378 196 378.5 174 c 128,-1,33
 379 152 379 152 372 134 c 1,34,-1
 378 136 l 1,35,36
 422.895522388 96.7164179104 422.895522388 96.7164179104 463.447761194 87.3582089552 c 0,37,38
 520.0875 74.2875 520.0875 74.2875 591 72 c 1,39,-1
 434 -1 l 1,40,41
 377 1 377 1 330 7.5 c 128,-1,42
 283 14 283 14 239 41 c 1,43,44
 143.468438538 5.61794019934 143.468438538 5.61794019934 84.7342192691 2.30897009967 c 128,-1,45
 26 -1 26 -1 -9 -1 c 1,0,1
EndSplineSet
EndChar

StartChar: atilde
Encoding: 109 109 81
Width: 1890
Flags: W
LayerCount: 2
Fore
SplineSet
456 -1 m 1,0,1
 324.909992913 1.3408929837 324.909992913 1.3408929837 258 40 c 1,2,3
 145.25 -1 145.25 -1 9 -1 c 1,4,-1
 150 73 l 1,5,6
 165 73 165 73 180 73 c 128,-1,7
 195 73 195 73 210 74 c 1,8,9
 213 79 213 79 214.5 85 c 128,-1,10
 216 91 216 91 219 112 c 128,-1,11
 222 133 222 133 218.5 168 c 128,-1,12
 215 203 215 203 215 238 c 2,13,-1
 215 613 l 2,14,15
 215 632 215 632 212 655 c 128,-1,16
 209 678 209 678 207.5 701 c 0,17,18
 203.882352941 756.470588235 203.882352941 756.470588235 224 790 c 1,19,-1
 215 787 l 1,20,21
 215 808 215 808 215.5 829 c 128,-1,22
 216 850 216 850 213.5 880 c 128,-1,23
 211 910 211 910 190 927.5 c 128,-1,24
 169 945 169 945 140 950 c 128,-1,25
 111 955 111 955 78 952.5 c 128,-1,26
 45 950 45 950 17 950 c 1,27,-1
 158 1024 l 1,28,29
 183 1024 183 1024 219.5 1026.5 c 128,-1,30
 256 1029 256 1029 291.5 1024.5 c 0,31,32
 379.100719424 1013.39568345 379.100719424 1013.39568345 389 954 c 0,33,34
 393 932.666666667 393 932.666666667 393 891 c 1,35,36
 587.139833226 1016.38197563 587.139833226 1016.38197563 759 1041.5 c 0,37,38
 864.284757119 1056.88777219 864.284757119 1056.88777219 928 1020 c 0,39,40
 994.080882353 981.742647059 994.080882353 981.742647059 1009.04044118 948.371323529 c 2,41,-1
 1037 886 l 1,42,43
 1091.76470588 929.235294118 1091.76470588 929.235294118 1138.88235294 955.117647059 c 0,44,45
 1270.0243952 1027.15572271 1270.0243952 1027.15572271 1463 1042 c 0,46,47
 1544.84318766 1048.29562982 1544.84318766 1048.29562982 1596.42159383 1011.64781491 c 128,-1,48
 1648 975 1648 975 1671.5 936.5 c 128,-1,49
 1695 898 1695 898 1706.5 851 c 128,-1,50
 1718 804 1718 804 1722.5 754 c 128,-1,51
 1727 704 1727 704 1726.5 654 c 128,-1,52
 1726 604 1726 604 1726 560 c 2,53,-1
 1726 223 l 2,54,55
 1726 191 1726 191 1726.5 170.5 c 128,-1,56
 1727 150 1727 150 1721 134 c 1,57,-1
 1726 136 l 1,58,59
 1790.68039539 76.9439868204 1790.68039539 76.9439868204 1939 72 c 1,60,-1
 1782 -1 l 1,61,62
 1728 1 1728 1 1679.5 8 c 128,-1,63
 1631 15 1631 15 1586 42 c 1,64,65
 1501.77821012 4.56809338521 1501.77821012 4.56809338521 1435.88910506 1.78404669261 c 128,-1,66
 1370 -1 1370 -1 1335 -1 c 1,67,68
 1424 44.7714285714 1424 44.7714285714 1476 73 c 1,69,-1
 1509 73 l 2,70,71
 1525 73 1525 73 1542 74 c 1,72,73
 1551 83 1551 83 1551 103 c 2,74,-1
 1547 253 l 1,75,-1
 1548 381 l 1,76,-1
 1548 541 l 2,77,78
 1548 577 1548 577 1548.5 616.5 c 128,-1,79
 1549 656 1549 656 1546 695 c 0,80,81
 1531.17808219 887.684931507 1531.17808219 887.684931507 1407 948 c 0,82,83
 1369 967 1369 967 1348 967 c 2,84,-1
 1317 967 l 2,85,86
 1314 967 1314 967 1309 966 c 128,-1,87
 1304 965 1304 965 1300 964.5 c 128,-1,88
 1296 964 1296 964 1293.5 963.5 c 128,-1,89
 1291 963 1291 963 1294 964 c 2,90,-1
 1267 960.5 l 2,91,92
 1253 959 1253 959 1240 956 c 1,93,94
 1220 943 1220 943 1202 928 c 128,-1,95
 1184 913 1184 913 1164 898.5 c 0,96,97
 1135.39240506 877.759493671 1135.39240506 877.759493671 1104.69620253 860.879746835 c 0,98,99
 1066.00329761 839.602638087 1066.00329761 839.602638087 1059 834 c 1,100,-1
 1059 197 l 2,101,102
 1059 182 1059 182 1060 166.5 c 0,103,104
 1061.29411765 146.441176471 1061.29411765 146.441176471 1053 134 c 1,105,-1
 1059 136 l 1,106,107
 1105.76258993 96.7194244604 1105.76258993 96.7194244604 1147.88129496 87.3597122302 c 0,108,109
 1206.69090909 74.2909090909 1206.69090909 74.2909090909 1280 72 c 1,110,-1
 1123 -1 l 1,111,112
 984.057441253 3.7911227154 984.057441253 3.7911227154 918 44 c 1,113,114
 803.625 -1 803.625 -1 668 -1 c 1,115,116
 757 44.7714285714 757 44.7714285714 809 73 c 1,117,118
 825 73 825 73 841 73 c 128,-1,119
 857 73 857 73 874 74 c 1,120,121
 885.587628866 93.3127147766 885.587628866 93.3127147766 883.293814433 163.656357388 c 128,-1,122
 881 234 881 234 881 268 c 2,123,-1
 881 777 l 1,124,125
 867.5 797.25 867.5 797.25 854.75 829.125 c 0,126,127
 832.125 885.6875 832.125 885.6875 817.0625 903.34375 c 0,128,129
 796.768623582 927.132215096 796.768623582 927.132215096 756.384311791 949.066107548 c 128,-1,130
 716 971 716 971 684 972.5 c 128,-1,131
 652 974 652 974 623.5 964 c 128,-1,132
 595 954 595 954 567 935.5 c 128,-1,133
 539 917 539 917 511 900 c 0,134,135
 477.567164179 879.701492537 477.567164179 879.701492537 405 849 c 1,136,137
 377.127423823 823.271468144 377.127423823 823.271468144 390 716 c 0,138,139
 393 691 393 691 393 674 c 2,140,-1
 393 299 l 2,141,142
 393 280 393 280 395.5 259 c 128,-1,143
 398 238 398 238 399.5 216.5 c 0,144,145
 403.027431421 165.940149626 403.027431421 165.940149626 390 135 c 1,146,-1
 393 136 l 1,147,148
 439.762589928 96.7194244604 439.762589928 96.7194244604 481.881294964 87.3597122302 c 0,149,150
 540.854545455 74.2545454545 540.854545455 74.2545454545 613 72 c 1,151,-1
 456 -1 l 1,0,1
EndSplineSet
EndChar

StartChar: aring
Encoding: 110 110 82
Width: 1268
Flags: W
LayerCount: 2
Fore
SplineSet
21 -1 m 1,0,1
 110 44.7714285714 110 44.7714285714 162 73 c 0,2,3
 169 73 169 73 219 78 c 1,4,5
 226 91 226 91 226 105 c 2,6,-1
 226 785 l 1,7,8
 219 807 219 807 220.5 834 c 128,-1,9
 222 861 222 861 219.5 885.5 c 0,10,11
 213.656804734 942.763313609 213.656804734 942.763313609 156 951 c 0,12,13
 117.21686747 955.012048193 117.21686747 955.012048193 81.1084337349 953.006024096 c 128,-1,14
 45 951 45 951 28 951 c 1,15,-1
 169 1025 l 1,16,17
 190 1025 190 1025 224 1027.5 c 128,-1,18
 258 1030 258 1030 292 1027.5 c 0,19,20
 375.889447236 1021.33165829 375.889447236 1021.33165829 391 976 c 0,21,22
 399 955 399 955 397.5 933.5 c 128,-1,23
 396 912 396 912 397 890 c 1,24,25
 468.6 943.7 468.6 943.7 515.3 964.35 c 128,-1,26
 562 985 562 985 623.5 1005.5 c 128,-1,27
 685 1026 685 1026 748.5 1035 c 0,28,29
 1038.31701392 1076.07642717 1038.31701392 1076.07642717 1069.5 788.5 c 0,30,31
 1077.31082654 716.466821886 1077.31082654 716.466821886 1075.65541327 652.733410943 c 128,-1,32
 1074 589 1074 589 1074 557 c 2,33,-1
 1074 172.5 l 2,34,35
 1074 151 1074 151 1066 134 c 1,36,-1
 1074 137 l 1,37,38
 1131.84126984 83.9788359788 1131.84126984 83.9788359788 1228.5 75.5 c 0,39,40
 1257 73 1257 73 1288 72 c 1,41,-1
 1131 -1 l 1,42,43
 1075 1 1075 1 1026.5 7.5 c 128,-1,44
 978 14 978 14 934 42 c 1,45,46
 847.2 7.28 847.2 7.28 785.1 3.14 c 128,-1,47
 723 -1 723 -1 687 -1 c 1,48,49
 776 44.7714285714 776 44.7714285714 828 73 c 1,50,-1
 854 73 l 2,51,52
 860 73 860 73 888 75 c 1,53,54
 899 94 899 94 897.5 117 c 128,-1,55
 896 140 896 140 896 163 c 2,56,-1
 896 496 l 2,57,58
 896 533 896 533 896.5 582 c 128,-1,59
 897 631 897 631 893.5 682.5 c 128,-1,60
 890 734 890 734 879.5 784 c 128,-1,61
 869 834 869 834 847 873.5 c 0,62,63
 779.731568998 994.277410208 779.731568998 994.277410208 596 956 c 1,64,65
 564 936 564 936 535.5 913 c 128,-1,66
 507 890 507 890 473 873 c 2,67,-1
 431 852.5 l 1,68,-1
 413 844 l 1,69,-1
 404 839 l 1,70,-1
 404 197 l 2,71,72
 404 182 404 182 405 167 c 0,73,74
 406.303030303 147.454545455 406.303030303 147.454545455 398 135 c 1,75,-1
 404 137 l 1,76,77
 461.712230216 84.0971223022 461.712230216 84.0971223022 558 75.5 c 0,78,79
 586 73 586 73 617 72 c 1,80,-1
 460 -1 l 1,81,82
 403 1 403 1 356 7.5 c 128,-1,83
 309 14 309 14 265 42 c 1,84,85
 165.24 -1 165.24 -1 21 -1 c 1,0,1
195 55 m 1,86,87
 193 53 193 53 195.5 54 c 128,-1,88
 198 55 198 55 200 57 c 1,89,-1
 195 55 l 1,86,87
865 55 m 1,90,91
 863 53 863 53 865.5 54 c 128,-1,92
 868 55 868 55 870 57 c 1,93,-1
 865 55 l 1,90,91
427 851 m 1,94,95
 429 851 429 851 430 852 c 1,96,97
 429 851 429 851 427 851 c 1,94,95
EndSplineSet
EndChar

StartChar: ccedilla
Encoding: 111 111 83
Width: 1077
Flags: W
LayerCount: 2
Fore
SplineSet
526 1044 m 1,0,1
 650.130994565 1062.48533854 650.130994565 1062.48533854 765.5 1014.5 c 0,2,3
 1015.10081284 910.683732714 1015.10081284 910.683732714 1006 533 c 0,4,5
 1003.8108388 386.326199517 1003.8108388 386.326199517 971.905419399 302.663099758 c 128,-1,6
 940 219 940 219 903 167.5 c 128,-1,7
 866 116 866 116 824.5 85.5 c 0,8,9
 717.172413793 6.62068965517 717.172413793 6.62068965517 541 -25 c 0,10,11
 410.617100372 -49.1449814126 410.617100372 -49.1449814126 296 1 c 0,12,13
 105.068292683 82.3227642276 105.068292683 82.3227642276 75 380.5 c 0,14,15
 25.8242527546 868.159493517 25.8242527546 868.159493517 384.5 1003 c 0,16,17
 451 1028 451 1028 526 1044 c 1,0,1
714.5 870.5 m 0,18,19
 670 924 670 924 592.481132075 956.283018868 c 0,20,21
 498.386544235 995.469057519 498.386544235 995.469057519 416 973 c 1,22,23
 389.225806452 958.274193548 389.225806452 958.274193548 347 907 c 0,24,25
 240.383650265 764.134091355 240.383650265 764.134091355 248.5 499 c 0,26,27
 256.758139535 229.234108527 256.758139535 229.234108527 408 106 c 0,28,29
 484.750593824 45.2391132225 484.750593824 45.2391132225 596.5 42 c 0,30,31
 631 41 631 41 662 47 c 1,32,33
 823.053085143 175.185108583 823.053085143 175.185108583 828 472 c 0,34,35
 831.899347935 729.356963718 831.899347935 729.356963718 714.5 870.5 c 0,18,19
EndSplineSet
EndChar

StartChar: eacute
Encoding: 112 112 84
Width: 1189
Flags: W
LayerCount: 2
Fore
SplineSet
166 -404 m 257,0,-1
 199 -403 l 1,1,2
 202 -398 202 -398 203.5 -392.5 c 128,-1,3
 205 -387 205 -387 208.5 -369.5 c 128,-1,4
 212 -352 212 -352 208.5 -323.5 c 128,-1,5
 205 -295 205 -295 205 -266 c 2,6,-1
 205 105 l 1,7,-1
 215 108 l 1,8,9
 200 143 200 143 202.5 173.5 c 128,-1,10
 205 204 205 204 205 234 c 2,11,-1
 205 708 l 2,12,13
 205 726 205 726 202.5 744.5 c 0,14,15
 197.519582245 781.355091384 197.519582245 781.355091384 217 803 c 1,16,-1
 205 799 l 1,17,18
 202 828 202 828 203.5 858 c 128,-1,19
 205 888 205 888 195.5 914 c 128,-1,20
 186 940 186 940 162 949.5 c 128,-1,21
 138 959 138 959 109.5 961 c 128,-1,22
 81 963 81 963 53 960.5 c 128,-1,23
 25 958 25 958 7 958 c 1,24,-1
 148 1032 l 1,25,26
 169 1032 169 1032 203 1034.5 c 128,-1,27
 237 1037 237 1037 271 1034 c 0,28,29
 355.502252252 1026.54391892 355.502252252 1026.54391892 372 982 c 0,30,31
 382 954.857142857 382 954.857142857 382 904 c 1,32,33
 509.696177062 1014.67002012 509.696177062 1014.67002012 803 1048 c 1,34,-1
 804 1048 l 2,35,36
 818 1048 818 1048 830.5 1048.5 c 0,37,38
 898.44982699 1051.21799308 898.44982699 1051.21799308 948.224913495 1012.10899654 c 128,-1,39
 998 973 998 973 1027.5 926.5 c 0,40,41
 1074.18478873 852.912112676 1074.18478873 852.912112676 1095.59239437 764.456056338 c 128,-1,42
 1117 676 1117 676 1118 629 c 128,-1,43
 1119 582 1119 582 1114.5 533.5 c 128,-1,44
 1110 485 1110 485 1103 435 c 128,-1,45
 1096 385 1096 385 1082.5 337 c 0,46,47
 1052.37086093 229.874172185 1052.37086093 229.874172185 1000.18543046 173.437086093 c 0,48,49
 877.890008638 41.1780017276 877.890008638 41.1780017276 657 -3 c 0,50,51
 539.401129944 -26.5197740113 539.401129944 -26.5197740113 449.5 3 c 0,52,53
 416 14 416 14 383 27 c 1,54,-1
 383 -205 l 2,55,56
 383 -222 383 -222 385 -240 c 128,-1,57
 387 -258 387 -258 387.5 -275.5 c 0,58,59
 388.666666667 -316.333333333 388.666666667 -316.333333333 377 -343 c 1,60,-1
 383 -341 l 1,61,62
 459.487804878 -405 459.487804878 -405 610 -405 c 1,63,64
 558 -433.228571429 558 -433.228571429 469 -479 c 1,65,66
 321.137931034 -479 321.137931034 -479 247 -436 c 1,67,68
 142 -478 142 -478 25 -478 c 0,69,70
 21 -478 21 -478 15 -478.5 c 128,-1,71
 9 -479 9 -479 7.5 -479 c 2,72,73
 0 -479 l 1,74,-1
 131 -410 l 1,75,76
 100 -417 l 2,77,78
 98 -417 98 -417 109.5 -413.5 c 128,-1,79
 121 -410 121 -410 135 -408 c 1,80,-1
 141 -405 l 1,81,82
 144 -405 144 -405 149.5 -404.5 c 128,-1,83
 155 -404 155 -404 156.5 -404 c 2,84,-1
 166 -404 l 257,0,-1
383 295 m 1,85,-1
 379 225.5 l 1,86,87
 379 180.615384615 379 180.615384615 395 167.307692308 c 128,-1,88
 411 154 411 154 442.5 140 c 128,-1,89
 474 126 474 126 509.5 111.5 c 0,90,91
 649.343566297 54.3807968648 649.343566297 54.3807968648 720.5 61 c 0,92,93
 742 63 742 63 764 68 c 1,94,95
 913.688737974 178.639501981 913.688737974 178.639501981 936 440 c 0,96,97
 960.353347732 725.282073434 960.353347732 725.282073434 827.5 892 c 0,98,99
 758.037807183 979.168241966 758.037807183 979.168241966 670 975.5 c 0,100,101
 604 972.75 604 972.75 569 964 c 1,102,-1
 523 926 l 2,103,104
 504.333333333 909.666666667 504.333333333 909.666666667 487.666666667 901.333333333 c 128,-1,105
 471 893 471 893 462.5 888.5 c 128,-1,106
 454 884 454 884 445 880 c 128,-1,107
 436 876 436 876 431.5 873.5 c 128,-1,108
 427 871 427 871 422.5 869 c 128,-1,109
 418 867 418 867 413.5 865 c 0,110,111
 400 859 400 859 406 862 c 1,112,113
 381 852.625 381 852.625 381 815 c 1,114,-1
 383 769 l 1,115,-1
 383 295 l 1,85,-1
EndSplineSet
EndChar

StartChar: egrave
Encoding: 113 113 85
Width: 1210
Flags: W
LayerCount: 2
Fore
SplineSet
633 -523 m 1,0,1
 722 -477.228571429 722 -477.228571429 774 -449 c 1,2,-1
 817.5 -449 l 2,3,4
 825 -449 825 -449 847 -447 c 1,5,6
 865.530612245 -419.204081633 865.530612245 -419.204081633 862.265306122 -376.102040816 c 128,-1,7
 859 -333 859 -333 851.5 -268.5 c 128,-1,8
 844 -204 844 -204 847.5 -105.5 c 128,-1,9
 851 -7 851 -7 853 93 c 1,10,11
 819.117647059 64.7647058824 819.117647059 64.7647058824 736.558823529 29.8823529412 c 128,-1,12
 654 -5 654 -5 586.5 -19.5 c 128,-1,13
 519 -34 519 -34 454 -29.5 c 0,14,15
 308.669645275 -19.4386677498 308.669645275 -19.4386677498 224 91 c 0,16,17
 135.580187997 203.876355748 135.580187997 203.876355748 120 387.5 c 0,18,19
 103.93375147 576.852214818 103.93375147 576.852214818 175.5 736.5 c 0,20,21
 223.542130366 843.6709062 223.542130366 843.6709062 304 901.5 c 0,22,23
 441.541284404 1000.35779817 441.541284404 1000.35779817 634 1023 c 0,24,25
 782.506870229 1037.14351145 782.506870229 1037.14351145 896 967.5 c 0,26,27
 932.042553191 945.382978723 932.042553191 945.382978723 962.521276596 933.191489362 c 0,28,29
 1015.24137931 912.103448276 1015.24137931 912.103448276 1023.62068966 892.051724138 c 128,-1,30
 1032 872 1032 872 1034 856 c 128,-1,31
 1036 840 1036 840 1035.5 823.5 c 128,-1,32
 1035 807 1035 807 1033.5 790.5 c 128,-1,33
 1032 774 1032 774 1032 758 c 2,34,-1
 1032 297 l 2,35,36
 1032 261 1032 261 1030.5 238 c 128,-1,37
 1029 215 1029 215 1015 196 c 1,38,-1
 1032 202 l 1,39,-1
 1032 -223 l 2,40,41
 1032 -242 1032 -242 1035 -263.5 c 128,-1,42
 1038 -285 1038 -285 1040 -306 c 0,43,44
 1044.60162602 -354.317073171 1044.60162602 -354.317073171 1027 -386 c 1,45,-1
 1032 -385 l 1,46,47
 1073.36283186 -422.915929204 1073.36283186 -422.915929204 1115.18141593 -430.957964602 c 128,-1,48
 1157 -439 1157 -439 1184.5 -442 c 128,-1,49
 1212 -445 1212 -445 1242 -450 c 1,50,-1
 1085 -523 l 1,51,52
 1058 -519 1058 -519 1033 -516.5 c 128,-1,53
 1008 -514 1008 -514 984.5 -510 c 0,54,55
 928.694252874 -500.501149425 928.694252874 -500.501149425 894 -480 c 1,56,57
 807.905901116 -513.688995215 807.905901116 -513.688995215 741.952950558 -518.344497608 c 128,-1,58
 676 -523 676 -523 633 -523 c 1,0,1
793 861.5 m 128,-1,60
 781 866 781 866 767.5 873 c 128,-1,61
 754 880 754 880 729.727272727 896.181818182 c 128,-1,62
 705.454545455 912.363636364 705.454545455 912.363636364 661.727272727 929.181818182 c 0,63,64
 595.731481481 954.564814815 595.731481481 954.564814815 509 950 c 0,65,66
 502 949 502 949 499.5 949 c 128,-1,67
 497 949 497 949 495 948.5 c 128,-1,68
 493 948 493 948 490 947 c 128,-1,69
 487 946 487 946 478 945 c 1,70,71
 424.66 906.9 424.66 906.9 391.33 862.95 c 128,-1,72
 358 819 358 819 333 746.5 c 128,-1,73
 308 674 308 674 300 596.5 c 0,74,75
 274.644202838 350.865714997 274.644202838 350.865714997 381.5 185 c 0,76,77
 451.559255246 76.2513052901 451.559255246 76.2513052901 565.5 49.5 c 0,78,79
 623 36 623 36 691 53 c 1,80,81
 749.831908832 102.418803419 749.831908832 102.418803419 803 123 c 1,82,-1
 832 136 l 2,83,84
 860.248447205 147.770186335 860.248447205 147.770186335 856 203 c 0,85,86
 855 216 855 216 855 226 c 0,87,88
 839.75879397 266.64321608 839.75879397 266.64321608 843.879396985 310.32160804 c 128,-1,89
 848 354 848 354 851 380 c 128,-1,90
 854 406 854 406 854 432 c 2,91,-1
 854 697 l 2,92,93
 854 712 854 712 855.5 728 c 128,-1,94
 857 744 857 744 858 760 c 0,95,96
 862.430939227 830.895027624 862.430939227 830.895027624 816 852 c 0,97,59
 805 857 805 857 793 861.5 c 128,-1,60
EndSplineSet
EndChar

StartChar: ecircumflex
Encoding: 114 114 86
Width: 794
Flags: W
LayerCount: 2
Fore
SplineSet
744 996 m 1,0,1
 692 967.771428571 692 967.771428571 603 922 c 1,2,3
 557 922 557 922 532 917 c 1,4,5
 515 894 515 894 485 879 c 128,-1,6
 455 864 455 864 432 851 c 1,7,-1
 410 836 l 1,8,-1
 406 832 l 1,9,-1
 399 830 l 1,10,-1
 400 790 l 1,11,-1
 400 191 l 2,12,13
 400 176 400 176 401 161.5 c 128,-1,14
 402 147 402 147 395 133 c 1,15,-1
 400 135 l 1,16,17
 464.800875274 77.6761487965 464.800875274 77.6761487965 573.5 72.5 c 0,18,19
 605 71 605 71 638 71 c 1,20,21
 586 42.7714285714 586 42.7714285714 497 -3 c 1,22,23
 433 -3 433 -3 375 3 c 128,-1,24
 317 9 317 9 263 39 c 1,25,26
 188.784810127 10.4556962025 188.784810127 10.4556962025 144.392405063 6.22784810127 c 2,27,-1
 79 0 l 2,28,29
 57 -2 57 -2 40.5 -2 c 2,30,-1
 24 -2 l 2,31,32
 22 -2 22 -2 20.5 -2.5 c 128,-1,33
 19 -3 19 -3 17 -3 c 1,34,35
 106 42.7714285714 106 42.7714285714 158 71 c 0,36,37
 165 73 165 73 180.5 72.5 c 128,-1,38
 196 72 196 72 216 73 c 1,39,40
 225.106382979 88.9361702128 225.106382979 88.9361702128 223.553191489 104.468085106 c 128,-1,41
 222 120 222 120 222 130 c 2,42,-1
 222 729 l 1,43,-1
 215 872 l 1,44,45
 215 952 215 952 114 952 c 0,46,47
 91 952 91 952 69 950.5 c 128,-1,48
 47 949 47 949 24 949 c 1,49,-1
 165 1023 l 1,50,51
 192 1023 192 1023 218.5 1025 c 128,-1,52
 245 1027 245 1027 272.5 1025.5 c 0,53,54
 350.20746888 1021.26141079 350.20746888 1021.26141079 380 987 c 0,55,56
 392 974 392 974 392 956.5 c 128,-1,57
 392 939 392 939 392.5 927.5 c 128,-1,58
 393 916 393 916 393 910 c 128,-1,59
 393 904 393 904 394 898 c 1,60,61
 479.690607735 955.127071823 479.690607735 955.127071823 578.845303867 975.563535912 c 128,-1,62
 678 996 678 996 744 996 c 1,0,1
196 53 m 2,63,-1
 193 52 l 2,64,65
 192 51 192 51 193.5 51.5 c 128,-1,66
 195 52 195 52 196 53 c 2,63,-1
556 933 m 1,67,68
 558 934 558 934 555.5 933 c 1,69,-1
 556 933 l 1,67,68
EndSplineSet
EndChar

StartChar: edieresis
Encoding: 115 115 87
Width: 893
Flags: W
LayerCount: 2
Fore
SplineSet
208 351 m 1,0,1
 224 309 224 309 227.5 271.5 c 128,-1,2
 231 234 231 234 239 201.5 c 128,-1,3
 247 169 247 169 268 140 c 128,-1,4
 289 111 289 111 321 95.5 c 128,-1,5
 353 80 353 80 362 76 c 128,-1,6
 371 72 371 72 379.5 68.5 c 0,7,8
 465.187702265 33.216828479 465.187702265 33.216828479 547 46 c 1,9,10
 589.895052474 73.2968515742 589.895052474 73.2968515742 614.5 160 c 0,11,12
 637.806636156 242.128146453 637.806636156 242.128146453 627.403318078 293.064073227 c 128,-1,13
 617 344 617 344 580.5 383 c 128,-1,14
 544 422 544 422 501 444.5 c 128,-1,15
 458 467 458 467 412 484.5 c 128,-1,16
 366 502 366 502 319.5 517.5 c 128,-1,17
 273 533 273 533 240.5 550.5 c 128,-1,18
 208 568 208 568 187 584 c 128,-1,19
 166 600 166 600 148.5 619.5 c 0,20,21
 94.453815261 679.722891566 94.453815261 679.722891566 108.5 764 c 0,22,23
 122.70754717 849.245283019 122.70754717 849.245283019 148.853773585 885.622641509 c 128,-1,24
 175 922 175 922 206.5 945.5 c 0,25,26
 304.966025481 1018.95878091 304.966025481 1018.95878091 459 1049.5 c 0,27,28
 583.74327151 1074.2335797 583.74327151 1074.2335797 685.5 1034.5 c 0,29,30
 738 1014 738 1014 776 969 c 0,31,32
 805.501805054 934.581227437 805.501805054 934.581227437 803.5 844.5 c 0,33,34
 803 822 803 822 803 806 c 1,35,-1
 625 745 l 1,36,37
 625 835.764705882 625 835.764705882 615.5 865.382352941 c 0,38,39
 590.415437988 943.58716392 590.415437988 943.58716392 493 972 c 0,40,41
 419.335766423 993.48540146 419.335766423 993.48540146 360 980 c 1,42,43
 317.71559633 947.325688073 317.71559633 947.325688073 301.357798165 894.162844037 c 0,44,45
 272.846153846 801.5 272.846153846 801.5 285.923076923 759.75 c 0,46,47
 318.479726172 655.808109531 318.479726172 655.808109531 445.5 605 c 0,48,49
 493 586 493 586 544 567.5 c 128,-1,50
 595 549 595 549 644 528 c 128,-1,51
 693 507 693 507 731 477.5 c 0,52,53
 833.66440678 397.8 833.66440678 397.8 798 247.5 c 0,54,55
 779.430868167 169.24437299 779.430868167 169.24437299 760.215434084 141.622186495 c 128,-1,56
 741 114 741 114 720 95.5 c 0,57,58
 641.510638298 26.3546099291 641.510638298 26.3546099291 495.5 -11.5 c 0,59,60
 351.884422111 -48.7336683417 351.884422111 -48.7336683417 226 -10 c 0,61,62
 161 10 161 10 122.5 44.5 c 128,-1,63
 84 79 84 79 72.5 106.5 c 128,-1,64
 61 134 61 134 55.5 164 c 128,-1,65
 50 194 50 194 46 224.5 c 128,-1,66
 42 255 42 255 32 284 c 1,67,-1
 208 351 l 1,0,1
EndSplineSet
EndChar

